<?xml version="1.0" encoding="UTF-8" standalone="no"?>
<!DOCTYPE svg PUBLIC "-//W3C//DTD SVG 1.1//EN" "http://www.w3.org/Graphics/SVG/1.1/DTD/svg11.dtd">
<svg width="100%" height="100%" viewBox="0 0 3508 2481" version="1.1" xmlns="http://www.w3.org/2000/svg" xmlns:xlink="http://www.w3.org/1999/xlink" xml:space="preserve" style="fill-rule:evenodd;clip-rule:evenodd;">
    <g id="Layer-1" transform="matrix(1,0,0,1,1192.68,754.008)">
        <g id="path4791" transform="matrix(3.10464,0,0,3.10464,-856.325,-1005.21)">
            <path d="M341.136,732.246C316.911,734.765 298.196,724.234 287.838,719.741C271.797,712.785 260.957,704.846 251.03,693.241C244.561,685.677 237.644,675.715 235.458,667.321L235.151,663.456L241.272,643.826C239.865,652.447 239.644,653.469 239.507,660.646C237.809,666.365 247.886,684.067 254.342,689.003C260.423,693.653 271.062,700.837 267.44,696.963C264.437,693.751 256.706,680.681 255.433,676.665L254.869,674.886L258.114,670.467C260.145,667.702 262.39,665.181 264.116,663.73L266.874,661.411L266.587,659.787C265.738,654.973 266.67,645.825 268.546,640.55C269.186,638.751 269.554,637.307 269.362,637.34C268.626,637.47 264.16,640.287 261.762,642.134C258.926,644.318 254.712,648.627 252.337,651.77L250.744,653.878L250.795,652.484C250.899,649.666 252.065,642.635 252.999,639.197C254.202,634.768 255.622,631.121 257.327,628.079C258.327,626.296 258.452,625.871 257.838,626.341C256.651,627.25 247.485,635.897 245.934,637.647C243.833,640.019 241.248,644.834 242.161,642.319C244.91,634.747 254.767,618.66 260.917,612.179C272.389,600.09 287.511,590.928 304.432,585.817C310.553,583.968 322.618,581.741 329.4,581.207C343.116,580.128 360.624,581.981 372.173,586.319L381.271,590.318L372.562,589.914C365.969,589.609 353.748,591.537 349.817,592.236C340.612,593.874 338.621,598.776 342.03,601.617C344.207,603.432 353.33,605.34 361.113,605.609C366.229,605.786 377.905,603.641 382.491,601.682C386.591,599.931 391.032,597.297 393.185,595.34C397.45,591.462 396.222,586.956 389.781,582.848C387.773,581.568 386.304,581.002 383.67,580.493C380.006,579.786 372.083,579.123 367.391,579.131L364.588,579.136L366.054,578.436C377.207,570.095 386.383,564.671 397.777,562.58C412.483,560.244 426.574,559.805 439.556,566.397C434.711,567.265 435.932,567.181 431.297,567.998C419.745,570.033 414.817,571.864 409.651,576.042C406.198,578.834 405.447,581.03 407.627,581.961C408.681,582.411 409.108,582.317 415.941,580.116C427,576.554 433.268,575.072 444.964,573.255C457.475,571.312 463.239,570.905 476.301,571.041C481.118,571.144 484.822,571.38 489.612,571.759C501.513,572.765 507.255,573.973 500.545,574.059C498.705,574.083 489.538,574.605 481.76,575.13C476.766,575.679 472.04,576.431 468.165,577.142C456.075,579.348 451.93,580.528 444.265,583.949C436.828,587.269 429.739,591.811 423.748,597.096C422.127,599.284 425.208,595.51 420.491,600.161C420.42,600.246 416.156,604.339 411.015,609.257C396.24,623.388 393.775,624.887 379.983,628.131C363.993,631.893 358.453,634.671 356.874,639.72C355.786,643.198 357.275,645.644 361.159,646.763C372.842,648.807 386.359,639.892 395.783,632.137C402.274,626.77 410.25,621.049 415.883,617.72C423.472,613.522 431.931,609.908 439.879,607.461C442.374,606.69 447.499,605.282 451.269,604.333C457.306,602.813 458.338,602.448 459.931,601.266C460.925,600.528 461.814,599.977 461.907,600.041C461.999,600.105 462.035,599.738 461.988,599.226C461.877,598.017 460.276,597.163 457.42,596.791C455.314,596.516 454.813,596.613 446.035,598.988C432.892,602.544 430.756,603.082 430.938,602.795C431.194,602.393 442.332,597.098 447.623,594.863C470.885,585.037 495.584,580.156 520.925,580.376C527.124,580.43 539.919,581.173 540.386,581.507C540.514,581.598 537.564,582.088 533.83,582.596C522.214,584.174 507.359,588.175 497.084,592.493C486.901,596.772 476.248,603.401 468.275,610.34C460.667,616.963 461.201,619.249 453.901,624.452C449.607,627.512 427.593,631.867 427.258,631.637C427.179,631.583 434.112,628.202 436.249,626.919C441.026,624.05 442.566,622.344 444,620.068C445.708,617.357 444.582,615.006 443.56,614.405C442.092,613.542 431.608,615.67 425.835,618.228C420.996,620.372 416.169,625.284 415.079,627.309C414.262,628.826 413.779,633.513 415.753,635.678C417.689,637.801 424.47,638.001 431.188,636.539C470.133,628.066 426.86,651.846 399.767,648.898C398.864,648.8 387.393,645.151 381.965,658.41C379.986,663.242 389.014,668.014 391.247,668.28C404.068,669.809 408.835,659.882 409.954,659.747C457.665,654.006 479.631,616.968 483.456,611.292C491.011,600.08 459.945,652.86 422.107,676.032C418.577,681.564 426.031,687.303 430.166,684.952C443.95,677.113 442.848,677.182 449.541,671.967C458.642,664.876 460.251,661.701 469.404,650.581C473.15,645.127 480.675,636.32 483.447,632.331C488.995,624.357 495.337,618.424 501.168,612.931C507.231,607.219 518.341,599.273 524.664,596.128C526.813,595.058 527.71,594.981 525.834,596.027C524.156,596.963 517.194,602.809 513.062,606.752C501.825,617.476 493.594,628.502 477.273,654.694C467.6,670.219 459.872,679.449 448.52,689.04C427.699,706.63 401.738,719.293 370.425,727.132C364.176,728.697 347.832,731.55 341.136,732.246L341.136,732.246ZM368.171,713.224C370.745,712.332 372.92,711.492 373.006,711.358C373.092,711.224 371.187,711.576 368.774,712.139C366.361,712.703 363.13,713.386 361.594,713.658C358.869,714.142 358.805,714.176 358.97,715.115C359.137,716.057 359.186,716.065 361.316,715.462C362.512,715.124 365.597,714.117 368.171,713.224L368.171,713.224ZM340.895,717.804C340.91,717.203 340.982,716.415 341.054,716.054C341.158,715.53 340.665,715.348 338.64,715.163C333.198,714.664 322.437,712.939 322.37,712.555C322.312,712.228 325.011,704.037 325.355,703.496C325.408,703.413 326.856,703.882 328.572,704.539C330.289,705.196 334.169,706.353 337.195,707.11C340.22,707.866 342.728,708.658 342.768,708.869C342.809,709.079 342.514,710.438 342.114,711.888C341.714,713.338 341.412,714.662 341.441,714.831C341.517,715.262 343.135,715.235 351.369,714.664C355.341,714.388 358.681,714.019 358.791,713.844C359.155,713.264 359.41,710.506 359.129,710.192C358.976,710.022 358.005,709.905 356.969,709.932C354.656,709.993 343.902,708.914 343.379,708.569C344.522,703.838 348.571,701.057 343.508,698.933C339.759,697.398 332.94,693.65 332.837,693.068C332.739,692.509 337.354,688.092 340.256,685.968C341.822,684.821 343.037,683.717 342.955,683.514C342.873,683.311 341.186,681.516 339.206,679.526C336.333,676.639 335.419,675.94 334.686,676.07C333.186,676.334 326.575,679.033 323.565,680.61C322.027,681.415 320.586,682.109 320.362,682.151C319.274,682.357 311.846,670.895 311.389,668.305L311.236,667.439L319.458,666.19C323.979,665.503 327.986,665.01 328.36,665.095C328.979,665.235 328.943,664.801 327.962,660.368C327.295,655.504 327.497,656.836 327.231,653.672L327.207,652.124L323.995,651.499C320.321,650.785 312.222,649.794 310.011,649.79C309.116,649.788 308.483,649.57 308.425,649.243C308.105,647.426 310.133,640.653 312.218,636.578C312.87,635.304 313.282,634.178 313.135,634.075C310.505,633.641 310.066,633.609 307.171,633.239C304.663,632.916 300.781,632.525 298.544,632.371C296.307,632.218 294.198,632.03 293.857,631.955C293.516,631.88 293.049,631.77 292.74,631.872C292.43,631.974 293.342,630.479 294.848,628.388C297.722,624.397 303.493,618.567 306.37,616.75C307.302,616.161 308.048,615.578 308.027,615.454C307.972,615.119 299.818,613.135 297.134,612.803C295.849,612.644 294.779,612.406 294.756,612.274C294.7,611.954 300.795,609.413 304.562,608.186C306.215,607.647 309.961,606.841 312.887,606.394C315.813,605.948 318.19,605.489 318.17,605.376C318.075,604.86 312.151,602.672 310.324,602.479C307.555,602.188 294.638,604.388 291.027,605.766C286.457,607.51 282.628,609.268 278.532,611.502L274.545,613.676L280.943,612.789C287.028,611.946 293.088,611.823 293.214,612.539C293.243,612.705 292.253,613.423 291.012,614.134C288.178,615.761 283.588,619.142 281.672,621.015C279.502,623.294 280.872,621.588 278.303,624.434C275.658,627.19 269.282,636.959 270.239,636.79C270.338,636.773 271.636,636.242 273.123,635.61C276.24,634.287 290.975,631.432 291.783,631.996C292.087,632.208 291.41,633.545 290.403,635.9C288.587,640.147 287.615,644.296 287.418,648.647L287.271,651.887L284.37,652.651C279.967,653.81 273.911,656.74 268.93,660.121L266.89,661.505L267.326,663.977C268.287,669.427 268.963,671.362 271.683,676.605C273.281,678.305 274.648,682.006 277.229,685.384C277.527,685.553 279.167,684.383 281.665,682.218C283.845,680.329 287.163,677.857 289.039,676.724C290.915,675.591 292.56,674.536 292.696,674.38C292.831,674.224 292.262,672.481 291.431,670.507C290.029,667.175 289.456,665.591 288.905,663.699C287.985,660.518 287.05,652.813 287.507,652.168C287.844,651.692 300.415,649.438 300.889,649.769C303.619,649.61 303.296,649.48 304.758,649.416C306.208,649.2 308.239,649.113 308.425,649.243C308.612,649.373 308.251,652.145 308.337,654.622C308.483,658.876 309.086,662.163 310.429,666.037L310.928,667.476L307.255,668.392C304.14,669.169 293.892,673.353 293.404,674.048C293.117,674.455 296.467,679.923 298.984,683.156C300.399,684.974 302.855,687.716 304.441,689.249C306.028,690.783 307.197,692.188 307.04,692.373C306.883,692.558 305.875,693.645 304.8,694.79C303.725,695.935 301.814,698.46 300.554,700.401L298.261,703.93L292.674,699.999C287.146,696.111 281.962,691.465 279.206,687.931C278.423,686.927 277.627,686.132 277.437,686.165C277.247,686.199 276.44,686.98 275.645,687.902C273.082,690.304 271.684,692.776 270.464,695.223L268.709,698.516L271.925,700.594C278.799,705.033 285.218,708.403 292.432,711.359L294.858,712.353L295.652,710.145C296.874,706.744 298.251,704.172 298.792,704.276C299.061,704.328 300.996,705.24 303.09,706.304C307.691,708.639 313.528,710.825 318.299,711.999C320.24,712.476 321.872,712.889 321.926,712.917C321.979,712.944 321.848,714.199 321.634,715.705C321.315,717.957 321.349,718.484 321.825,718.673C322.97,719.127 336.979,719.435 339.656,719.065C340.682,718.923 340.872,718.73 340.895,717.804L340.895,717.804ZM322.06,701.787C319.141,700.429 312.65,696.171 309.417,693.493L307.557,691.952L310.003,689.687C312.775,687.122 317.807,683.491 319.393,682.913C320.369,682.558 320.643,682.732 322.898,685.14C324.244,686.577 326.974,688.958 328.963,690.431L332.582,693.109L329.121,698.046C327.218,700.761 325.484,703.008 325.267,703.039C325.05,703.071 323.607,702.507 322.06,701.787L322.06,701.787ZM381.771,707.036C381.678,706.575 377.508,704.919 376.764,705.049C375.701,705.233 364.619,704.571 363.017,704.226L361.579,703.917L363.277,701.354L364.975,698.79L363.249,697.824C362.3,697.292 359.921,695.87 357.963,694.664L354.403,692.471L352.025,694.811C343.354,702.111 351.133,703.041 359.183,703.843C360.178,703.914 361.114,704.109 361.263,704.276C361.412,704.442 361.095,705.702 360.558,707.074C360.021,708.446 359.599,709.667 359.62,709.789C359.664,710.035 361.563,710.09 364.811,709.938C367.769,709.8 381.842,707.392 381.771,707.036L381.771,707.036ZM335.71,635.446L339.011,631.217L336.852,629.67C335.665,628.819 332.596,626.875 330.034,625.351C327.471,623.827 325.301,622.467 325.213,622.328C325.065,622.097 332.159,617.911 334.363,616.928C335.263,616.526 335.074,616.344 330.277,612.989C327.511,611.055 325.225,609.345 325.198,609.19C325.17,609.035 326.392,608.689 327.912,608.421C331.895,607.997 330.441,608.314 334.259,607.697L331.989,606.694C330.075,605.847 328.904,605.679 324.51,605.617C321.645,605.577 319.253,605.612 319.195,605.696C319.136,605.779 320.306,606.517 321.794,607.336L324.5,608.824L322.067,609.567C316.335,611.316 308.676,614.617 308.794,615.287C308.822,615.446 311.641,616.734 315.059,618.15C318.477,619.567 321.303,620.896 321.34,621.105C321.376,621.313 321.523,621.383 321.665,621.26C321.807,621.137 322.567,621.329 323.354,621.687L324.784,622.337L322.713,624.149C320.379,626.19 316.304,630.522 314.731,632.632L313.687,634.033L319.858,635.796C323.252,636.766 327.279,638.061 328.808,638.676C330.336,639.29 331.772,639.766 331.998,639.734C332.224,639.702 333.895,637.772 335.71,635.446L335.71,635.446ZM342.004,617.297C341.657,615.881 341.268,614.65 341.14,614.561C340.914,614.403 335.9,616.075 335.65,616.391C335.581,616.478 337.095,618.006 339.015,619.786L342.505,623.023L342.57,621.446C342.606,620.58 342.351,618.712 342.004,617.297L342.004,617.297ZM474.14,659.335C474.318,658.869 473.882,660.013 474.14,659.335L474.14,659.335Z" style="fill-rule:nonzero;stroke:black;stroke-width:0.39px;"/>
        </g>
        <g id="path3904" transform="matrix(3.10464,0,0,3.10464,-856.325,-1005.21)">
            <path d="M636.535,844.222C629.165,842.099 620.535,837.674 607.013,829.084C593.917,820.764 573.092,809.383 548.623,797.173C524.012,784.891 508.32,780.272 462.315,771.765C419.975,763.936 404.304,757.906 385.392,750.941C382.071,749.718 366.75,744.93 365.043,743.864C362.422,742.226 354.271,740.726 349.781,740.729C339.289,740.734 336.357,743.085 327.895,748.61C319.837,753.87 307.479,763.643 299.123,771.365C295.584,774.636 290.774,778.353 288.435,779.627C280.945,783.703 275.215,781.862 260.343,770.599C255.785,767.147 246.692,761.003 240.137,756.945C233.583,752.888 221.858,745.464 214.082,740.448C184.726,721.511 175.165,717.288 162.98,717.876L157.789,718.127L159.494,720.289C160.451,721.502 163.375,723.243 166.158,724.258C171.908,726.355 175.4,729.859 178.655,736.8C180.569,740.879 180.813,742.42 180.773,750.144C180.733,757.686 180.38,759.864 178.177,766.129C171.695,784.565 157.101,801.421 145.559,803.801L142.733,804.384L143.234,801.295C143.51,799.596 144.87,795.782 146.256,792.82C148.711,787.574 148.74,787.365 147.388,784.797C146.32,782.768 145.862,778.681 145.404,767.066C145.076,758.764 144.573,751.231 144.286,750.325C143.619,748.227 140.161,747.525 135.568,748.557C126.737,750.541 123.156,754.583 114.623,772.2C106.454,789.064 103.369,793.095 95.198,797.58C91.792,799.449 87.818,802.33 86.369,803.98C83.782,806.926 83.744,807.093 84.28,813.007C84.617,816.733 84.508,819.229 83.994,819.547C82.811,820.278 77.267,817.253 74.673,814.461C71.723,811.286 69.371,806.378 68.239,801.038C67.079,795.567 67.028,783.43 68.141,777.565C68.6,775.142 68.869,773.053 68.739,772.922C68.534,772.718 65.377,776.51 59.493,784.029C57.956,785.992 57.955,786.206 59.426,792.65C61.426,801.405 60.831,802.007 53.662,798.477C48.022,795.701 42.567,790.391 39.89,785.071C34.338,774.041 36.12,752.248 43.938,735.566C48.067,726.755 51.413,723.595 63.681,716.921C74.39,711.095 90.025,700.768 106.39,688.713C136.604,666.455 140.138,664.327 147.01,664.252C152.192,664.195 157.548,667.04 165.702,674.178C178.181,685.103 181.735,687.946 194.54,697.236C219.188,715.12 238.147,726.858 261.334,738.592C273.253,744.623 276.388,745.898 277.346,745.103C278.702,743.978 284.689,734.357 284.234,734.035C284.071,733.919 281.504,732.116 278.531,730.028C272.102,725.514 261.285,714.435 255.949,706.901C252.396,701.884 242.628,686.227 237.154,676.619C234.147,671.341 231.443,659.056 231.443,654.831C231.443,652.948 231.346,650.962 231.821,648.202L232.355,645.096L215.512,624.977C200.062,606.522 196.987,605.519 184.949,580.913C168.754,547.81 161.812,517.702 161.844,480.705C161.86,462.084 164.203,441.569 167.552,430.723C167.89,429.628 167.015,429.301 162.661,428.895C152.11,427.909 144.476,423.532 140.942,416.441C139.224,412.993 138.823,410.979 138.823,405.803C138.823,402.008 139.364,397.941 140.157,395.779C143.365,387.032 143.213,385.185 137.672,365.62C136.103,360.081 133.854,351.433 132.674,346.402C128.837,330.036 125.663,325.54 107.923,311.336C100.653,305.515 96.955,301.899 94.689,298.393C91.737,293.826 89.758,287.736 89.758,283.22C89.758,281.223 93.189,277.795 95.187,277.795C95.954,277.795 95.661,275.625 94.096,269.687C92.486,263.583 91.943,259.42 91.897,252.847C91.822,241.908 92.927,239.095 97.263,239.186C98.853,239.219 100.752,239.518 101.484,239.851C102.675,240.392 102.653,239.736 101.271,233.553C96.868,213.854 99.503,191.839 107.687,179.957C110.324,176.128 114.907,172.182 116.718,172.182C118.01,172.182 119.696,178.287 119.696,182.966C119.696,185.725 119.976,187.981 120.319,187.98C120.662,187.98 121.983,184.705 123.254,180.704C132.452,151.75 153.463,126.697 170.536,124.324C176.625,123.478 177.908,124.612 177.907,130.839C177.906,136.676 175.118,143.599 169.908,150.696C168.284,152.908 167.124,154.718 167.331,154.718C167.935,154.718 177.879,146.579 186.756,138.82C202.942,124.672 213.45,118.075 224.258,115.274C233.827,112.794 250.938,114.12 253.074,117.507C253.745,118.569 253.495,119.503 251.996,121.53L250.045,124.169L252.853,123.63C258.993,122.453 271.54,122.117 274.936,123.038C279.282,124.217 282.689,128.045 282.689,131.75C282.689,138.625 275.513,144.889 253.999,156.791C247.596,160.334 241.608,163.788 240.694,164.468C239.12,165.636 239.165,165.674 241.525,165.168C242.897,164.874 247.575,164.419 251.92,164.158C259.18,163.722 260.006,163.83 262.107,165.498C263.842,166.875 264.394,168.035 264.394,170.306C264.394,175.769 260.24,178.578 229.417,193.957C201.778,207.748 190.438,214.332 182.482,221.21C177.161,225.809 176.898,226.612 181.376,224.579C185.806,222.569 191.062,222.378 191.761,224.201C192.577,226.328 190.575,234.374 187.87,239.832C185.521,244.574 182.557,248.488 169.071,264.652C161.862,273.294 159.026,278.082 156.634,285.653C153.791,294.653 153.198,303.325 154.959,310.183C155.716,313.131 156.498,315.706 156.697,315.905C156.896,316.104 158.344,315.656 159.916,314.91C161.488,314.164 163.861,313.554 165.188,313.554C168.719,313.554 175.834,317.39 178.945,320.972C180.433,322.684 183.684,325.177 186.169,326.512C191.98,329.632 198.644,335.73 202.059,341.051C204.047,344.148 205.1,345.096 206.09,344.679C206.827,344.368 210.345,343.924 213.909,343.693L220.389,343.274L219.844,339.64C219.185,335.25 219.58,335.162 227.339,337.979C237.71,341.743 241.941,346.909 241.941,355.809C241.941,360.872 242.029,360.677 235.921,369.103C234.338,371.286 233.113,374.772 231.906,380.529C229.319,392.862 230.296,396.433 239.337,407.672C244.417,413.986 247.276,418.803 248.192,422.589C248.873,425.407 247.763,425.831 238.199,426.398C229.95,426.887 218.484,425.28 210.699,422.543L206.148,420.944L203.611,425.971C197.247,438.578 191.489,456.766 189.574,470.31C188.343,479.019 188.543,496.273 189.962,503.709C194.265,526.27 208.241,553.536 222.993,568.15C230.878,575.961 242.739,584.021 254.479,589.546C263.495,593.788 266.007,594.619 277.981,598.35C290.635,602.294 355.247,568.416 352.711,646.823C351.942,670.586 386.183,685.573 400.2,688.366C446.089,697.508 458.708,656.944 477.232,653.71C478.325,654.802 515.153,633.14 531.232,618.598C548.981,602.544 560.444,578.478 560.444,543.321C560.444,519.274 557.061,500.13 548.934,478.19C546.651,472.027 542.84,461.745 540.465,455.342C533.179,435.695 526.588,406.795 523.303,380.082C521.284,363.667 521.298,337.63 523.33,328.938C526.738,314.364 532.29,302.692 540.996,291.802C548.725,282.134 556.533,276.94 564.308,276.295C572.456,275.619 575.412,278.398 575.412,286.733L575.412,290.434L580.496,285.985C596.154,272.285 608.863,263.635 624.893,255.77C645.188,245.812 660.759,241.642 677.699,241.629C687.594,241.621 688.334,241.74 693.084,244.115C700.973,248.06 702.055,252.552 696.464,258.144L693.63,260.977L700.841,261.56C724.976,263.509 741.596,269.782 747.565,279.194C750.639,284.041 750.769,287.622 747.992,290.922C744.519,295.05 740.877,295.546 718.225,294.977L698.073,294.471L702.647,296.593C708.462,299.291 710.963,301.63 710.963,304.366C710.963,311.144 702.858,314.594 674.873,319.731C666.229,321.318 658.803,322.969 658.372,323.401C657.88,323.893 657.926,324.819 658.495,325.884C661.644,331.767 658,338.949 644.989,352.505C639.87,357.839 634.841,363.388 633.813,364.837L631.945,367.472L634.532,368.04C638.295,368.867 643.137,374.125 644.954,379.358C647.163,385.718 646.964,399.29 644.553,406.693C643.586,409.666 642.789,412.379 642.783,412.722C642.777,413.065 644.842,413.346 647.373,413.346C653.204,413.346 656.645,414.789 660.043,418.658C665.137,424.46 667.408,433.094 668.258,449.885L668.798,460.543L673.157,462.35C675.555,463.344 678.146,464.851 678.914,465.7C683.065,470.288 683.787,497.627 680.207,514.666C679.213,519.395 678.584,523.447 678.807,523.671C679.031,523.895 680.651,522.796 682.407,521.229C688.547,515.749 692.827,513.138 695.666,513.138C698.167,513.138 698.465,513.409 698.98,516.155C699.291,517.814 699.347,524.269 699.103,530.5C698.283,551.465 692.728,568.521 682.21,582.361L679.214,586.303L681.233,587.071C682.344,587.493 684.248,589.022 685.465,590.469C692.023,598.262 684.286,612.145 667.263,623.13C661.104,627.105 646.303,634.68 638.406,637.898C633.807,639.773 632.271,641.204 634.859,641.204C635.538,641.204 637.315,642.296 638.809,643.631C641.115,645.691 641.525,646.623 641.525,649.807C641.525,654.36 639.639,657.193 634.114,660.942C626.91,665.829 613.373,668.886 591.868,670.483L578.803,671.453L582.119,674.291C588.674,679.902 589.331,685.693 583.78,688.934C579.415,691.484 564.205,692.365 537.392,690.516C497.715,687.78 472.93,687.577 453.969,690.058C452.591,690.238 446.77,690.385 443.79,694.064C440.467,698.168 442.33,703.424 443.199,708.906L447.477,720.295L449.514,724.901C453.99,735.023 460.057,742.233 466.412,744.986C470.139,746.6 479.808,746.56 484.364,744.911C486.2,744.247 489.54,742.537 491.787,741.112C500.617,735.512 504.643,736.302 514.857,745.638C529.598,759.112 549.782,771.829 571.726,781.467C578.099,784.266 586.494,787.952 590.381,789.657C613.892,799.969 616.778,800.681 620.921,797.195C623.922,794.669 625.819,789.51 628.96,775.326C631.515,763.79 632.83,760.963 637.59,756.773C646.849,748.623 669.889,746.164 687.898,751.403C693.967,753.169 701.816,756.905 701.816,758.029C701.816,759.561 699.193,761.592 696.41,762.214C695.038,762.521 693.305,762.936 692.559,763.135C691.813,763.335 690.963,764.698 690.67,766.163C689.557,771.728 686.688,774.543 676.948,779.624C671.699,782.362 666.658,785.646 665.261,787.236C662.267,790.646 660.393,796.264 661.589,798.246C663.014,800.609 669.451,803.366 673.543,803.366C682.484,803.366 689.844,800.176 708.053,788.407C726.344,776.585 733.601,773.814 744.567,774.465C748.969,774.726 752.734,775.5 755.454,776.703C757.741,777.714 761.423,778.757 763.637,779.02C768.467,779.595 769.944,781.669 768.491,785.838C767.635,788.294 767.692,788.397 769.895,788.397C771.36,788.397 773.055,787.495 774.581,785.903C779.418,780.854 781.649,783.21 781.649,793.365C781.649,798.61 781.255,800.88 779.872,803.59C772.904,817.248 756.077,825.789 736.09,825.813C732.745,825.817 730.144,826.291 728.865,827.128C725.59,829.274 718.886,830.663 706.984,831.66C694.921,832.672 689.332,834.083 676.868,839.267C664.664,844.343 658.526,845.786 649.442,845.719C644.59,845.682 639.593,845.103 636.535,844.222L636.535,844.222ZM657.845,841.255C660.875,840.612 667.236,838.583 671.982,836.746C679.083,833.996 681.283,833.485 684.409,833.861C687.862,834.276 688.397,834.094 690.274,831.863C692.712,828.967 694.443,828.45 703.64,827.873C715.978,827.099 720.943,826.531 720.943,825.892C720.943,825.547 719.82,825.265 718.448,825.265C715.554,825.265 714.704,824.673 715.574,823.266C716.025,822.535 718.297,822.412 723.97,822.811C731.524,823.342 735.911,822.939 735.911,821.713C735.911,821.384 733.973,820.208 731.605,819.101C726.793,816.851 723.437,814.456 723.437,813.271C723.437,812.839 725.231,813.395 727.423,814.505C733.581,817.626 740.304,819.278 746.95,819.304C757.259,819.345 763.925,816.805 770.191,810.449L773.965,806.621L771.494,804.15C769.255,801.91 769.05,801.251 769.307,797.125C769.635,791.865 769.732,791.942 761.825,791.207C753.989,790.478 747.739,792.264 733.417,799.32C718.585,806.628 713.834,808.299 706.85,808.662C702.515,808.887 694.386,808.023 697.069,807.623C707.982,805.993 716.661,802.935 732.424,795.169C738.053,792.395 745.23,789.298 748.373,788.286C754.602,786.279 755.877,784.629 753.729,781.351C751.168,777.443 745.125,776.577 736.355,778.862C729.373,780.68 722.934,783.951 710.244,792.125C687.377,806.854 677.954,809.811 666.473,805.861C663.814,804.946 661.296,804.198 660.877,804.198C660.44,804.198 660.359,806.142 660.688,808.772C661.332,813.93 660.366,814.755 657.968,811.095C654.946,806.483 656.896,789.266 661.11,783.348C662.599,781.257 667.618,778.688 676.452,775.495C684.956,772.421 690.377,763.532 684.468,762.35C681.047,761.666 676.868,757.886 676.868,755.475C676.868,753.513 676.715,753.47 669.799,753.47C663.483,753.47 662.731,753.633 662.731,755.004C662.731,755.848 663.479,757.216 664.394,758.044C665.309,758.872 666.057,759.865 666.057,760.252C666.057,761.822 664.154,760.767 661.184,757.551C658.854,755.027 657.52,754.221 656.028,754.432C653.049,754.855 653.169,756.871 656.42,760.979C658.015,762.994 659.182,764.781 659.013,764.949C658.845,765.117 657.419,764.643 655.845,763.896C652.913,762.505 651.088,759.725 651.088,756.649C651.088,755.124 650.729,754.974 648.103,755.4C642.498,756.31 640.317,759.944 642.394,764.914C643.094,766.591 644.272,768.631 645.012,769.448C645.751,770.265 646.093,770.934 645.77,770.934C644.34,770.934 640.28,768.289 638.776,766.377C637.869,765.224 636.932,764.281 636.692,764.281C635.756,764.281 633.518,771.82 631.55,781.602C629.232,793.117 627.411,797.832 624.105,800.871C622.094,802.72 621.137,802.946 615.468,802.915C607.388,802.871 605.265,802.052 572.352,786.277C548.786,774.981 525.901,760.582 515.42,750.454C509.417,744.653 504.92,741.828 501.687,741.828C500.901,741.828 496.492,743.603 491.889,745.774C484.902,749.068 482.721,749.72 478.672,749.724L473.822,749.728L474.357,754.023C475.001,759.203 473.658,764.766 471.426,766.16C469.268,767.508 469.367,768.438 471.67,768.442C474.553,768.447 496.495,773.767 507.637,777.162C535.665,785.704 572.416,802.931 607.845,824.135C624.235,833.944 628.17,836.104 634.379,838.696C643.537,842.518 649.05,843.119 657.845,841.255L657.845,841.255ZM80.22,811.058C79.496,806.117 77.241,800.941 74.91,798.871C73.156,797.314 73.124,797.314 73.001,798.871C72.744,802.113 73.321,805.491 74.548,807.927C75.736,810.287 79.668,815.009 80.445,815.009C80.64,815.009 80.539,813.231 80.22,811.058L80.22,811.058ZM85.021,799.554C85.846,798.471 88.05,797.173 89.92,796.67C92.079,796.088 94.976,794.187 97.863,791.457C101.785,787.747 103.498,784.959 110.383,771.078C119.186,753.329 122.761,748.469 129.227,745.458C134.98,742.78 142.002,742.735 144.395,745.362C147.567,748.845 148.105,751.095 148.831,763.918C149.506,775.848 150.786,783.408 152.132,783.408C152.447,783.408 153.921,782.801 155.409,782.059C157.272,781.129 159.223,780.861 161.682,781.199C165.095,781.666 165.34,781.552 167.323,778.556C173.342,769.46 176.219,761.161 176.235,752.846C176.244,748 176.118,747.651 174.373,747.675C173.344,747.69 171.792,748.239 170.925,748.896C169.168,750.226 167.929,749.85 167.929,747.986C167.929,747.311 169.637,746.026 171.724,745.131C175.602,743.469 176.014,741.828 172.554,741.828C171.422,741.828 169.178,743.231 167.126,745.222C165.203,747.089 163.448,748.435 163.226,748.213C162.628,747.616 166.297,740.747 167.842,739.57C168.576,739.011 170.206,738.542 171.465,738.528C173.706,738.502 173.732,738.445 172.68,735.869C170.259,729.935 165.525,730.531 157.633,737.762C154.605,740.537 152.128,742.572 152.128,742.284C152.128,739.521 157.928,732.391 162.837,729.119L164.814,727.801L161.955,726.607C159.373,725.528 152.96,719.132 152.96,717.636C152.96,717.302 154.667,716.202 156.754,715.192C160.016,713.612 161.559,713.405 167.772,713.715C174.11,714.031 175.899,714.5 182.343,717.535C192.349,722.248 207.653,731.526 238.199,751.399C252.378,760.623 267.346,770.155 271.463,772.582C275.579,775.008 279.693,777.451 280.604,778.01C282.011,778.875 282.685,778.704 285.092,776.867C290.301,772.894 291.773,765.213 288.303,760.115C285.377,755.818 281.707,753.388 265.642,745.111C235.154,729.403 230.12,726.365 198.282,704.454C177.56,690.193 171.17,685.271 162.523,676.911C158.407,672.931 153.762,669.028 152.201,668.238C145.752,664.973 137.743,668.982 116.315,686.202C107.229,693.504 94.341,702.642 81.109,711.166C69.629,718.561 59.924,724.888 59.542,725.224C59.16,725.561 59.883,727.47 61.148,729.466C63.275,732.823 65.098,741.828 63.651,741.828C63.357,741.828 61.802,739.057 60.194,735.67C56.389,727.654 55.673,727.085 52.637,729.66C51.328,730.77 49.607,732.796 48.812,734.162L47.367,736.645L49.793,737.65C51.994,738.561 54.831,742.741 54.831,745.072C54.831,746.631 53.771,746.1 50.495,742.902C47.477,739.954 47.273,739.883 45.886,741.292C44.504,742.698 44.583,742.886 47.554,745.289C50.701,747.833 51.64,750.144 49.527,750.144C48.897,750.144 47.916,749.582 47.347,748.896C44.558,745.537 43.36,748.45 41.471,763.177C40.168,773.336 42.23,783.867 44.983,781.114C46.395,779.703 49.751,779.826 52.752,781.4L55.247,782.708L59.752,777.879C63.218,774.165 65.642,770.167 70.253,760.558C77.656,745.131 79.767,742.229 87.889,736.31C91.433,733.728 96.11,729.904 98.282,727.813C100.455,725.722 102.232,724.48 102.232,725.052C102.232,727.21 98.908,732.395 95.232,735.972C91.169,739.924 90.636,740.996 92.733,740.996C93.454,740.996 95.138,742.09 96.475,743.427C98.431,745.383 98.899,746.56 98.869,749.456L98.832,753.054L97.213,749.988C96.322,748.301 94.758,746.336 93.738,745.622C89.369,742.562 81.532,745.24 79.313,750.551C77.548,754.776 77.794,755.942 80.568,756.497C83.093,757.002 86.26,759.74 85.36,760.64C85.082,760.919 83.656,760.729 82.192,760.219C78.1,758.793 76.896,759.083 75.894,761.738C74.84,764.529 75.028,764.837 78.739,766.391C80.226,767.013 81.442,768.051 81.442,768.697C81.442,769.659 80.846,769.712 78.142,768.99C76.327,768.506 74.635,768.316 74.382,768.569C73.746,769.205 71.715,781.036 71.005,788.249C70.417,794.216 70.417,794.219 72.491,794.219C75.384,794.219 78.359,796.8 80.218,800.924C81.582,803.949 81.914,804.227 82.659,802.973C83.133,802.175 84.196,800.637 85.021,799.554L85.021,799.554ZM777.118,799.651C778.462,796.435 778.741,789.585 777.558,788.854C776.404,788.141 773.448,792.345 772.846,795.554C772.364,798.122 774.025,802.535 775.474,802.535C775.715,802.535 776.455,801.237 777.118,799.651L777.118,799.651ZM153.28,795.792C155.415,793.913 158.264,790.773 159.612,788.814C161.841,785.574 161.925,785.217 160.539,784.855C158.627,784.355 154.646,786.014 152.811,788.076C151.41,789.651 147.97,797.019 147.97,798.446C147.97,799.911 149.429,799.182 153.28,795.792L153.28,795.792ZM56.414,793.814C55.12,786.889 52.365,783.408 48.177,783.408C46.25,783.408 46.369,784.812 48.678,789.353C49.539,791.048 56.102,797.545 56.952,797.545C57.04,797.545 56.797,795.866 56.414,793.814ZM764.019,786.568C764.568,786.019 765.017,784.896 765.017,784.073C765.017,782.917 764.355,782.576 762.107,782.576C759.427,782.576 759.196,782.774 759.196,785.071C759.196,787.12 759.538,787.566 761.109,787.566C762.161,787.566 763.471,787.117 764.019,786.568ZM306.408,759.988C312.735,754.883 321.409,748.334 325.685,745.435C329.96,742.536 333.355,740.159 333.23,740.153C333.104,740.147 341.102,736.034 331.04,732.63L302.748,722.965L291.421,733.096C288.677,736.028 285.055,740.644 283.372,743.354L280.313,748.282L283.621,749.773C289.823,752.57 293.484,758.643 293.496,766.152C293.498,767.867 293.816,769.271 294.203,769.271C294.589,769.271 300.082,765.093 306.408,759.988L306.408,759.988ZM466.198,763.325C470.503,761.715 470.543,760.281 470.543,757.161C470.543,751.889 469.491,751.501 463.565,748.035C456.819,744.089 451.502,739.403 447.108,730.116L442.427,721.447L432.275,700.816C430.185,683.358 427.314,695.404 402.693,707.659C387.718,715.112 358.536,712.849 360.868,728.841C365.171,737.845 367.84,737.024 374.118,741.085C382.087,746.24 393.307,748.914 410.921,754.935C440.42,765.019 454.278,767.785 466.198,763.325L466.198,763.325ZM695.971,758.492C697.516,757.515 696.939,757.283 688.926,755.658C683.277,754.513 681.026,754.874 681.026,756.925C681.026,758.953 693.22,760.232 695.971,758.492L695.971,758.492ZM282.603,713.15C301.646,724.468 354.071,721.058 369.322,720.97C412.702,720.721 352.676,658.915 342.758,609.285C335.837,574.651 286.571,604.745 270.339,603.507C254.781,602.321 229.475,581.853 216.635,567.956C202.909,553.101 189.82,526.158 185.761,504.406C184.025,495.103 184.514,471.34 186.642,461.579C188.781,451.765 193.35,438.857 198.178,428.986L202.615,419.917L200.103,418.618C195.699,416.34 190.827,417.469 182.014,422.807C177.706,425.417 173.358,427.758 172.351,428.011C170.307,428.524 170.187,428.925 168.351,441.4C166.041,457.102 165.167,477.675 166.181,492.505C168.492,526.3 174.283,550.027 188.005,577.888C203.33,616.327 240.475,637.279 237.158,644.199L235.834,649.459C232.023,671.387 251.979,694.948 282.603,713.15ZM291.213,727.851C292.014,727.164 294.99,724.031 294.99,723.714C294.99,723.397 290.823,720.971 287.507,719.326C280.072,715.639 272.347,711.039 264.289,704.477C258.644,699.881 256.827,701.939 258.262,704.48C261.357,709.961 275.279,723.084 281.812,726.678C288.024,730.096 288.527,730.158 291.213,727.851L291.213,727.851ZM506.759,683.081C515.76,683.299 520.201,683.412 537.991,684.888C553.097,686.141 572.733,686.813 579.038,685.8C583.025,685.158 583.072,685.115 582.56,682.555C581.301,676.259 577.633,673.933 564.602,671.167C548.796,667.811 549.674,667.269 570.964,667.24C595.044,667.208 609.337,665.449 624.652,660.633C631.561,658.46 635.408,655.803 637.5,651.758C638.76,649.321 638.736,649.135 636.975,647.71C631.275,643.094 620.538,643.611 600.519,649.466C586.229,653.645 572.936,655.726 571.842,653.955C571.574,653.522 581.055,650.64 593.136,647.483C632.427,637.215 651.692,630.003 665.703,620.317C675.307,613.678 682.356,604.894 684.723,596.615C685.415,594.195 681.724,591.863 677.203,591.863C673.058,591.863 668.697,594.274 661.067,600.784C655.456,605.573 648.33,609.931 646.895,609.453C646.44,609.302 649.457,606.786 653.599,603.862C679.401,585.651 692.875,562.988 696.034,532.49C696.545,527.563 696.838,521.94 696.686,519.994L696.41,516.456L691.372,518.844C682.607,522.999 677.811,530.45 672.293,548.481C670.614,553.969 668.74,559.957 668.13,561.786L667.02,565.113L666.971,560.955C666.892,554.31 668.317,546.276 672.648,528.938C677.877,508.006 678.799,501.919 678.88,487.774C678.942,476.943 678.802,475.843 676.868,471.987C675.031,468.326 670.05,463.962 668.956,465.055C667.326,466.685 664.112,513.962 664.855,525.367C665.412,533.911 664.235,533.354 662.285,524.15C660.644,516.411 660.783,503.43 662.731,482.369C665.404,453.463 664.764,437.166 660.552,426.901C657.684,419.909 650.218,414.986 644.414,416.261C642.48,416.686 641.802,417.508 640.774,420.678C638.2,428.613 637.367,436.305 637.367,452.135C637.367,467.516 637.318,467.981 635.928,465.862C633.418,462.033 632.535,455.268 633.114,444.296C633.753,432.203 634.282,429.432 639.178,412.514C642.767,400.115 642.895,399.292 642.543,390.893C642.137,381.198 640.564,376.092 637.158,373.413C634.091,371.001 632.076,371.375 628.633,374.994C626.296,377.45 624.927,380.183 622.908,386.419C620.468,393.957 617.1,409.926 615.684,420.674C615.301,423.58 614.82,424.812 614.281,424.272C613.775,423.766 613.623,418.57 613.886,410.707C614.366,396.317 615.778,390.065 621.087,378.834C624.729,371.131 628.817,365.472 639.118,353.877C648.306,343.535 652.131,338.343 654.786,332.611C656.705,328.47 656.752,328.083 655.428,327.315C654.642,326.86 651.753,326.479 649.009,326.469C642.208,326.445 636.794,329.234 627.415,337.592C623.313,341.248 619.806,344.087 619.621,343.902C618.598,342.879 624.827,334.269 629.1,330.802C637.151,324.268 647.669,320.867 674.789,316.027C682.564,314.64 690.797,312.902 693.084,312.167C698.584,310.397 704.546,307.373 706.008,305.612C707.055,304.35 706.88,303.939 704.417,301.883C694.467,293.576 672.413,293.551 641.733,301.81C636.816,303.133 632.793,304.047 632.793,303.841C632.793,302.88 647.23,296.869 653.167,295.359C667.147,291.803 678.566,290.952 708.431,291.244C737.835,291.531 741.563,291.177 744.61,287.811C746.748,285.449 745.702,282.516 741.067,277.882C734.04,270.855 715.689,264.781 698.838,263.904C687.657,263.322 684.09,264.053 670.631,269.684C658.848,274.614 653.678,276.118 648.593,276.095C645.309,276.081 645.029,275.944 646.303,274.977C647.101,274.371 654.667,271.577 663.116,268.768C682.39,262.361 687.065,260.154 692.2,255.041L696.305,250.953L693.724,248.647C689.849,245.184 684.002,244.256 673.069,245.368C661.93,246.501 655.351,247.866 644.776,251.237C618.978,259.462 591.311,277.802 572.813,298.938C565.707,307.059 562.368,312.811 557.158,325.911C553.177,335.919 550.529,341.338 549.917,340.726C549.233,340.042 551.845,328.47 553.806,323.495C556.526,316.593 560.906,308.185 564.661,302.656C570.895,293.476 572.494,287.815 570.404,282.32C569.614,280.24 569.308,280.121 566.038,280.628C551.45,282.887 534.07,302.534 527.952,323.682C522.516,342.471 526.853,395.842 536.625,430.393C538.177,435.882 542.673,449.272 546.615,460.149C561.151,500.249 564.605,516.729 564.598,545.964C564.592,575.389 560.324,590.606 547.643,609.665C541.9,618.295 527.898,629.69 503.85,646.823C491.538,655.595 437.414,680.509 490.26,682.066L506.759,683.081ZM173.75,422.765C178.94,421.346 185.518,417.999 187.568,415.734C188.704,414.478 188.76,413.982 187.883,412.925C187.298,412.22 187,411.461 187.222,411.239C187.443,411.017 193.203,412.698 200.022,414.973C215.665,420.193 222.52,421.651 234.274,422.258L243.655,422.743L240.654,417.421C233.382,404.523 227.409,394.986 227.13,395.826C226.702,397.107 230.98,405.966 235.59,413.346C238.134,417.418 239.114,419.663 238.416,419.814C237.827,419.941 233.608,419.097 229.041,417.939C219.056,415.408 205.731,409.039 194.124,401.25C183.766,394.299 181.865,393.301 181.865,390.874C181.865,388.377 180.762,387.868 174.103,390.532C171.169,391.706 167.737,392.542 166.477,392.389C164.252,392.118 164.303,392.034 168.257,389.449C173.886,385.77 179.848,383.934 186.234,383.914C193.685,383.891 194.912,384.843 190.288,387.062C185.016,389.593 185.354,391.497 191.629,394.635C196.068,396.854 197.445,397.129 204.103,397.125C210.739,397.121 212.14,396.842 216.456,394.661C225.801,389.939 230.993,380.915 230.073,370.994C229.654,366.473 225.451,352.598 224.526,352.681C224.271,352.704 222.998,354.966 221.698,357.709C218.469,364.523 214.513,367.159 207.487,367.178L202.391,367.192L202.415,372.044C202.437,376.402 202.19,377.111 199.983,379.011C197.295,381.325 199.016,381.283 177.787,379.559C170.354,378.955 164.825,380.028 157.39,383.518C147.574,388.124 141.372,396.314 141.336,404.717C141.267,420.839 154.285,428.088 173.75,422.765L173.75,422.765ZM229.883,412.838C225.135,409.167 215.035,405.824 213.457,407.401C212.794,408.065 216.606,409.811 226.972,413.591C227.658,413.841 228.968,414.064 229.883,414.085L231.546,414.124L229.883,412.838ZM225.309,402.968C225.309,402.291 224.708,400.235 223.974,398.4L222.638,395.062L220.255,396.76C218.944,397.693 215.148,399.004 211.819,399.673C202.475,401.55 201.788,401.745 202.388,402.344C202.695,402.652 207.324,403.133 212.673,403.414C218.022,403.695 223.053,403.986 223.854,404.061C224.654,404.136 225.309,403.644 225.309,402.968ZM159.344,378.296C161.927,377.389 167.404,376.195 171.515,375.645L178.99,374.643L170.96,368.185C166.544,364.633 161.379,359.775 159.483,357.391C155.613,352.525 151.67,344.602 150.858,340.064C150.352,337.231 150.48,336.996 153.011,336.114C158.731,334.12 162.32,334.871 172.483,340.19C177.754,342.948 182.066,345.026 182.066,344.808C182.066,344.59 180.23,341.986 177.987,339.023C173.277,332.799 172.418,329.968 173.821,325.286C175.003,321.34 174.166,319.813 169.826,317.999C166.125,316.451 164.053,316.597 162.107,318.543C159.807,320.844 160.002,322.014 163.355,326.028C164.956,327.944 166.265,329.82 166.265,330.198C166.265,330.576 164.011,329.758 161.255,328.381C153.142,324.327 145.455,325.417 144.1,330.814C143.644,332.633 145.541,343.855 146.908,347.416C147.83,349.819 143.921,346.946 142.482,344.163C140.705,340.728 140.073,333.107 141.214,328.89C141.927,326.255 142.774,325.206 145.077,324.108C146.699,323.334 148.4,322.701 148.857,322.701C149.313,322.701 150.974,322.163 152.548,321.506L155.41,320.31L153.18,315.477C151.382,311.577 150.886,309.098 150.616,302.649C150.021,288.466 153.261,281.211 170.625,257.838C181.999,242.528 185.969,236.176 188.312,229.536L189.541,226.052L186.427,226.604C179.597,227.812 174.812,231.041 167.809,239.165C164.116,243.448 160.165,247.562 159.028,248.307C157.009,249.63 156.974,249.617 157.535,247.72C161.31,234.961 171.62,223.493 190.798,210.721C202.61,202.855 222.887,191.887 232.958,187.917C243.294,183.843 251.425,179.267 256.228,174.82L261.243,170.177L259.4,168.685C256.853,166.622 247.441,166.704 239.004,168.862C229.751,171.229 222.096,175.274 207.158,185.689C191.082,196.898 189.946,197.523 194.062,192.898C202.3,183.639 215.329,174.212 233.625,164.272C258.253,150.891 268.294,144.911 272.358,141.203C276.682,137.258 279.743,131.727 278.866,129.443C277.014,124.617 260.472,124.277 247.149,128.791C232.866,133.632 225.095,138.496 201.544,157.34C184.077,171.317 179.23,174.693 176.705,174.642C175.388,174.615 176.413,173.265 181.183,168.747C188.482,161.832 224.162,136.2 234.83,130.208C238.923,127.909 243.975,124.344 246.057,122.286L249.841,118.544L245.683,118.06C239.671,117.36 228.295,118.594 221.567,120.677C207.294,125.095 196.296,132.711 175.413,152.64C163.4,164.104 149.9,175.22 149.038,174.358C148.442,173.763 154.367,164.824 159.575,158.46C168.858,147.117 172.67,139.882 174.154,130.792L174.734,127.24L170.458,128.925C163.85,131.53 160.424,133.442 154.821,137.654C139.944,148.837 129.472,168.428 121.251,200.456C119.431,207.546 117.767,213.867 117.552,214.504C116.414,217.882 115.954,212.632 115.954,196.272C115.954,175.266 115.511,173.701 111.404,180.177C101.224,196.226 101.011,227.959 110.882,258.025C112.424,262.724 113.553,266.713 113.389,266.89C112.563,267.786 107.929,261.327 106.417,257.173C103.322,248.672 101.972,246.123 99.428,243.982L96.923,241.875L96.126,243.827C95.688,244.9 95.356,249.146 95.388,253.263C95.459,262.448 97.603,271.062 102.58,282.16C104.58,286.62 105.885,290.269 105.481,290.269C105.076,290.269 102.678,288.398 100.153,286.111C97.628,283.824 95.139,281.953 94.623,281.953C93.181,281.953 94.356,289.568 96.424,293.621C98.964,298.601 103.662,303.395 114.82,312.398C131.289,325.686 134.512,331.513 139.608,357.213C142.186,370.209 144.899,380.73 146.408,383.581C147.086,384.863 147.523,384.756 150.904,382.474C152.963,381.084 156.761,379.204 159.344,378.296L159.344,378.296ZM199.529,370.428C199.529,366.207 197.795,363.462 191.453,357.648C180.732,347.819 165.071,338.493 159.32,338.514C153.553,338.536 153.352,339.139 156.844,345.928C160.549,353.131 167.742,361.124 176.887,368.2C183.421,373.256 183.575,373.323 184.072,371.343C185.221,366.765 191.112,366.952 195.878,371.718C198.738,374.578 199.529,374.298 199.529,370.428L199.529,370.428ZM237.684,359.209C238.678,354.634 237.23,349.863 233.593,345.731C230.596,342.327 225.309,339.268 225.309,340.938C225.309,341.316 225.916,343.074 226.659,344.845C227.401,346.616 228.86,350.872 229.902,354.302C230.944,357.732 232.224,361.635 232.746,362.975L233.697,365.411L235.383,363.724C236.311,362.797 237.346,360.765 237.684,359.209L237.684,359.209ZM220.335,352.166C221.242,348.926 221.228,348.208 220.241,347.584C218.892,346.729 214.568,346.618 210.281,347.327L207.312,347.819L209.674,354.492C210.972,358.162 212.28,361.561 212.579,362.045C213.495,363.527 219.182,356.285 220.335,352.166L220.335,352.166ZM203.756,355.965L207.056,355.965L205.675,353.263C202.782,347.602 195.74,338.226 191.782,334.764C187.669,331.165 181.728,327.575 178.034,326.456C176.28,325.924 176.141,326.064 176.671,327.817C178.645,334.348 182.008,339.549 191.18,350.252C194.853,354.538 197.86,358.408 197.862,358.853C197.864,359.298 198.449,358.83 199.161,357.814C200.129,356.432 201.288,355.965 203.756,355.965L203.756,355.965Z" style="fill-rule:nonzero;stroke:black;stroke-width:0.83px;"/>
        </g>
        <g id="path3920" transform="matrix(3.10464,0,0,3.10464,-856.325,-1005.21)">
            <path d="M153.318,422.732C149.682,421.384 145.416,417.619 143.644,414.193C143.018,412.981 142.271,410.003 141.986,407.575C140.85,397.912 146.185,389.821 157.294,384.354C166.104,380.019 170.678,379.272 182.166,380.288C195.927,381.506 197.859,381.4 200.311,379.291C202.049,377.795 202.52,376.543 202.894,372.417L203.352,367.372L207.89,367.369C211.087,367.367 213.259,366.859 215.243,365.649C218.615,363.594 219.507,362.532 222.239,357.318C223.846,354.252 224.24,351.79 224.766,352.73C226.174,355.246 229.814,370.089 229.814,372.976C229.814,381.44 224.026,390.345 215.89,394.4C212.29,396.194 210.649,396.485 204.149,396.485C196.46,396.485 192.267,395.245 188.368,391.818C186.323,390.019 186.575,389.432 190.188,387.589C191.967,386.682 193.423,385.589 193.423,385.162C193.423,383.849 189.473,383.303 183.554,383.799C177.676,384.292 169.89,387.331 165.927,390.68L163.905,392.388L166.811,392.415C168.409,392.429 171.833,391.714 174.418,390.824C180.553,388.713 181.225,388.772 182.176,391.501C183.409,395.036 196.261,403.93 210.441,411.059C222.11,416.926 238.71,421.593 238.71,419.005C238.71,418.392 237.22,415.348 235.399,412.242C230.793,404.386 227.529,397.411 227.988,396.952C228.354,396.586 238.357,413.78 241.488,419.835L242.89,422.546L235.341,422.004C224.006,421.191 215.68,419.477 201.55,415.048C194.519,412.845 188.38,411.042 187.909,411.042C187.438,411.042 187.413,412.846 187.496,414.036C187.964,420.689 163.729,426.59 153.318,422.732Z" style="fill:rgb(255,204,0);fill-rule:nonzero;stroke:black;stroke-width:0.81px;"/>
        </g>
        <g id="path3924" transform="matrix(3.10464,0,0,3.10464,-856.325,-1005.21)">
            <path d="M212.159,359.998C211.766,358.938 210.652,355.931 209.684,353.315C208.715,350.699 208.089,348.393 208.291,348.19C209.243,347.239 218.541,346.996 219.623,347.894C221.555,349.497 218.597,356.744 214.496,360.455C212.917,361.884 212.853,361.871 212.159,359.998L212.159,359.998Z" style="fill:rgb(255,204,0);fill-rule:nonzero;stroke:black;stroke-width:0.81px;"/>
        </g>
        <g id="path3926" transform="matrix(3.10464,0,0,3.10464,-856.325,-1005.21)">
            <path d="M232.505,363.773C232.526,362.392 225.838,341.156 226.092,340.902C226.629,340.365 231.872,344.555 234.049,347.26C236.978,350.901 238.062,355.439 237.055,359.393C236.035,363.401 232.423,369 232.505,363.773Z" style="fill:rgb(255,204,0);fill-rule:nonzero;stroke:black;stroke-width:0.81px;"/>
        </g>
        <g id="path3956" transform="matrix(3.10464,0,0,3.10464,-856.325,-1005.21)">
            <path d="M205.499,553.454C198.15,541.85 191.825,527.885 187.675,514.096C186.046,508.682 185.44,505.676 185.262,502.121L185.209,501.059L185.358,502.121C185.608,503.904 185.89,505.396 186.469,507.994C189.72,522.574 196.963,539.721 205.686,553.491C206.107,554.155 206.429,554.721 206.401,554.748C206.373,554.776 205.967,554.194 205.499,553.454L205.499,553.454Z" style="fill:rgb(255,42,42);fill-rule:nonzero;stroke:black;stroke-width:0.1px;"/>
        </g>
        <g id="path4004" transform="matrix(3.10464,0,0,3.10464,-856.325,-1005.21)">
            <path d="M555.028,331.491C555.141,330.991 558.794,322.052 560.005,319.312C563.802,310.718 567.279,305.315 573.557,298.25C591.637,277.909 618.097,260.277 643.113,251.902C653.969,248.267 661.455,246.659 673.111,245.457C677.3,245.025 683.422,244.935 685.463,245.275C689.638,245.971 691.53,246.848 694.51,249.469C695.357,250.215 696.085,250.852 696.127,250.884C696.169,250.917 696.12,251.026 696.019,251.128C695.891,251.256 695.355,250.89 694.26,249.924C691.613,247.591 690.067,246.705 687.435,246.016C683.174,244.9 675.82,245.109 666.053,246.625C638.758,250.861 611.136,264.297 587.705,284.736C583.708,288.222 575.331,296.631 572.681,299.817C565.787,308.103 562.436,313.925 557.147,326.805C555.37,331.135 554.846,332.292 555.028,331.491L555.028,331.491Z" style="fill:rgb(255,42,42);fill-rule:nonzero;stroke:black;stroke-width:0.18px;"/>
        </g>
        <g id="path4008" transform="matrix(3.10464,0,0,3.10464,-856.325,-1005.21)">
            <path d="M661.038,269.216C661.079,269.175 663.375,268.35 666.141,267.383C681.474,262.018 685.475,260.13 690.808,255.745C691.915,254.834 692.856,254.125 692.9,254.169C693.018,254.287 690.123,256.882 688.631,257.996C684.902,260.778 679.676,263.046 667.231,267.286C661.903,269.102 660.813,269.441 661.038,269.216Z" style="fill:rgb(255,42,42);fill-rule:nonzero;stroke:black;stroke-width:0.18px;"/>
        </g>
        <g id="path4012" transform="matrix(3.10464,0,0,3.10464,-856.325,-1005.21)">
            <path d="M690.669,290.982C692.367,290.907 702.69,290.764 713.608,290.663C733.117,290.482 737.352,290.349 739.813,289.84C742.944,289.192 745.013,287.317 745.017,285.122C745.021,282.968 742.069,279.013 738.459,276.336C730.334,270.311 715.159,265.627 699.585,264.335C696.349,264.067 690.049,264.213 687.934,264.605C683.724,265.386 679.246,266.775 671.993,269.55C669.535,270.49 667.487,271.224 667.444,271.18C667.307,271.044 677.016,267.164 680.169,266.095C685.007,264.454 688.777,263.818 693.655,263.82C711.176,263.826 731.235,269.544 740.005,277.033C742.239,278.941 744.558,281.866 745.222,283.611C745.899,285.393 745.552,286.715 744.018,288.203C742.52,289.656 740.944,290.234 737.053,290.757C735.122,291.017 732.159,291.054 711.226,291.084C698.221,291.103 688.97,291.057 690.669,290.982L690.669,290.982Z" style="fill:rgb(255,42,42);fill-rule:nonzero;stroke:black;stroke-width:0.18px;"/>
        </g>
        <g id="path4016" transform="matrix(3.10464,0,0,3.10464,-856.325,-1005.21)">
            <path d="M671.435,316.373C686.135,313.329 691.591,312.018 696.315,310.394C700.162,309.072 700.436,309.007 698.786,309.812C694.327,311.986 689.675,313.181 675.216,315.869C670.543,316.737 668.108,317.062 671.435,316.373Z" style="fill:rgb(255,42,42);fill-rule:nonzero;stroke:black;stroke-width:0.18px;"/>
        </g>
        <g id="path4054" transform="matrix(3.10464,0,0,3.10464,-856.325,-1005.21)">
            <path d="M562.736,305.222C562.736,305.147 563.758,303.396 565.006,301.33C567.638,296.973 569.014,294.244 569.873,291.676C571.038,288.191 571.097,286.28 570.141,283.059C569.563,281.114 569.563,280.542 570.14,281.89C571.841,285.858 571.415,290.192 568.805,295.456C567.578,297.929 567.275,298.448 564.97,302.022C562.988,305.096 562.736,305.457 562.736,305.222Z" style="fill:rgb(255,42,42);fill-rule:nonzero;stroke:black;stroke-width:0.18px;"/>
        </g>
        <g id="path4056" transform="matrix(3.10464,0,0,3.10464,-856.325,-1005.21)">
            <path d="M665.374,517.336C665.507,510.14 665.936,501.048 666.678,489.721C666.872,486.761 667.064,484.18 667.106,483.986C667.221,483.446 667.062,486.906 666.676,493.338C666.484,496.541 666.127,503.767 665.882,509.396C665.358,521.466 665.274,522.788 665.374,517.336Z" style="fill:rgb(255,42,42);fill-rule:nonzero;stroke:black;stroke-width:0.18px;"/>
        </g>
        <g id="path4066" transform="matrix(3.10464,0,0,3.10464,-856.325,-1005.21)">
            <path d="M652.024,604.697C652.024,604.656 653.394,603.57 655.068,602.284C665.152,594.539 671.808,588.056 677.605,580.332C688.802,565.415 694.51,548.702 696.139,526.071C696.247,524.567 696.4,522.502 696.478,521.483L696.619,519.63L696.643,521.219C696.672,523.122 696.421,527.373 696.045,531.365C693.448,558.895 682.525,580.035 661.976,597.297C659.766,599.154 656.564,601.631 653.834,603.597C652.287,604.712 652.024,604.871 652.024,604.697L652.024,604.697Z" style="fill:rgb(255,42,42);fill-rule:nonzero;stroke:black;stroke-width:0.18px;"/>
        </g>
        <g id="path4080" transform="matrix(3.10464,0,0,3.10464,-856.325,-1005.21)">
            <path d="M624.015,645.235C624.186,645.19 624.425,645.193 624.544,645.242C624.664,645.29 624.523,645.327 624.232,645.323C623.941,645.32 623.843,645.28 624.015,645.235L624.015,645.235Z" style="fill:rgb(255,42,42);fill-rule:nonzero;stroke:black;stroke-width:0.18px;"/>
        </g>
        <g id="path4116" transform="matrix(3.10464,0,0,3.10464,-856.325,-1005.21)">
            <path d="M131.062,329.344C130.905,329.067 130.524,328.449 130.215,327.97C129.906,327.491 129.67,327.082 129.691,327.062C129.755,326.997 131.603,329.546 131.603,329.699C131.603,329.726 131.545,329.77 131.475,329.797C131.387,329.831 131.256,329.688 131.062,329.344L131.062,329.344Z" style="fill:rgb(255,42,42);fill-rule:nonzero;stroke:black;stroke-width:0.09px;"/>
        </g>
        <g id="path4128" transform="matrix(3.10464,0,0,3.10464,-856.325,-1005.21)">
            <path d="M203.164,369.066C203.168,368.963 203.189,368.942 203.217,369.013C203.243,369.076 203.24,369.152 203.21,369.182C203.181,369.211 203.16,369.159 203.164,369.066L203.164,369.066Z" style="fill:rgb(255,204,0);fill-rule:nonzero;stroke:black;stroke-width:0.09px;"/>
        </g>
        <g id="path4186" transform="matrix(3.10464,0,0,3.10464,-856.325,-1005.21)">
            <path d="M647.043,609.87C646.76,609.815 646.628,609.622 646.741,609.429C646.791,609.341 646.834,609.319 646.836,609.38C646.838,609.451 646.979,609.49 647.238,609.49C649.048,609.49 655.41,605.553 660.624,601.208C661.937,600.113 662.28,599.861 662.003,600.195C661.896,600.324 661.906,600.333 662.103,600.278C662.386,600.199 662.481,600.121 660.113,601.909C654.517,606.134 649.956,609.091 647.994,609.767C647.52,609.93 647.413,609.942 647.043,609.87L647.043,609.87Z" style="fill:rgb(255,42,42);fill-rule:nonzero;stroke:black;stroke-width:0.09px;"/>
        </g>
        <g id="path4190" transform="matrix(3.10464,0,0,3.10464,-856.325,-1005.21)">
            <path d="M663.971,530.948C663.332,529.914 662.371,526.362 661.708,522.584C661.211,519.751 661.037,516.612 661.059,510.85L661.075,506.747L661.136,510.938C661.231,517.533 661.515,520.693 662.376,524.746C662.939,527.394 663.682,530.076 664.06,530.82C664.276,531.247 664.213,531.339 663.971,530.948L663.971,530.948Z" style="fill:rgb(255,42,42);fill-rule:nonzero;stroke:black;stroke-width:0.09px;"/>
        </g>
        <g id="path4194" transform="matrix(3.10464,0,0,3.10464,-856.325,-1005.21)">
            <path d="M635.812,466.441C635.011,465.64 634.058,462.761 633.48,459.394C632.936,456.222 632.701,452.973 632.702,448.63C632.703,444.421 632.861,441.87 633.397,437.429C633.668,435.182 633.773,434.944 633.567,437.045C633.39,438.843 633.1,443.474 632.988,446.292C632.601,455.994 633.557,462.368 635.93,465.913C636.191,466.303 636.383,466.644 636.357,466.67C636.25,466.777 636.073,466.702 635.812,466.441L635.812,466.441Z" style="fill:rgb(255,42,42);fill-rule:nonzero;stroke:black;stroke-width:0.09px;"/>
        </g>
        <g id="path4196" transform="matrix(3.10464,0,0,3.10464,-856.325,-1005.21)">
            <path d="M613.858,423.378C613.562,422.177 613.532,421.494 613.534,415.985C613.536,411.631 613.567,410.063 613.685,408.53C613.912,405.594 614.224,402.269 614.262,402.383C614.281,402.439 614.233,403.408 614.157,404.537C613.872,408.766 613.804,411.049 613.8,416.559C613.798,420.612 613.828,422.415 613.906,422.949C614.027,423.765 614.004,423.969 613.858,423.378L613.858,423.378Z" style="fill:rgb(255,42,42);fill-rule:nonzero;stroke:black;stroke-width:0.09px;"/>
        </g>
        <g id="path4198" transform="matrix(3.10464,0,0,3.10464,-856.325,-1005.21)">
            <path d="M616.237,419.073C616.237,418.952 616.257,418.902 616.281,418.963C616.306,419.024 616.306,419.123 616.281,419.184C616.257,419.244 616.237,419.195 616.237,419.073Z" style="fill:rgb(255,42,42);fill-rule:nonzero;stroke:black;stroke-width:0.09px;"/>
        </g>
        <g id="path4200" transform="matrix(3.10464,0,0,3.10464,-856.325,-1005.21)">
            <path d="M648.097,276.537C648.231,276.517 648.43,276.518 648.538,276.538C648.647,276.559 648.537,276.576 648.294,276.575C648.052,276.574 647.963,276.557 648.097,276.537L648.097,276.537Z" style="fill:rgb(255,42,42);fill-rule:nonzero;stroke:black;stroke-width:0.09px;"/>
        </g>
        <g id="path4202" transform="matrix(3.10464,0,0,3.10464,-856.325,-1005.21)">
            <path d="M647.042,276.42C646.839,276.38 646.573,276.295 646.451,276.231C646.263,276.132 646.555,276.114 648.409,276.109C649.968,276.105 650.91,276.059 651.721,275.948C652.344,275.863 652.872,275.811 652.894,275.833C652.942,275.881 650.781,276.294 649.81,276.421C649.011,276.527 647.578,276.526 647.042,276.419L647.042,276.42Z" style="fill:rgb(255,42,42);fill-rule:nonzero;stroke:black;stroke-width:0.09px;"/>
        </g>
        <g id="path4204" transform="matrix(3.10464,0,0,3.10464,-856.325,-1005.21)">
            <path d="M549.618,340.395C549.137,339.541 550.736,331.947 552.379,327.288C552.697,326.384 552.656,326.74 552.3,327.965C551.069,332.201 549.941,337.489 549.799,339.685C549.745,340.532 549.729,340.593 549.618,340.395L549.618,340.395Z" style="fill:rgb(255,42,42);fill-rule:nonzero;stroke:black;stroke-width:0.09px;"/>
        </g>
        <g id="path4216" transform="matrix(3.10464,0,0,3.10464,-856.325,-1005.21)">
            <path d="M80.462,800.873C78.948,797.218 76.384,794.7 73.655,794.188L71.129,793.715L71.549,787.988C71.962,782.351 73.879,770.211 74.519,769.176C74.699,768.885 76.169,768.944 77.786,769.307C81.651,770.176 83.046,769.023 80.501,767.064C79.53,766.317 78.378,765.699 77.94,765.691C76.299,765.658 75.499,763.811 76.259,761.81C76.975,759.928 77.071,759.901 81.282,760.39C85.223,760.847 85.555,760.781 85.332,759.576C85.193,758.829 83.645,757.574 81.736,756.662C79.892,755.781 78.399,754.669 78.417,754.192C78.496,752.182 81.021,748.32 83.227,746.836C88.65,743.188 92.84,744.117 96.553,749.792L98.853,753.307L98.853,749.395C98.853,745.894 98.612,745.257 96.559,743.329C95.297,742.144 93.677,740.968 92.958,740.715C91.83,740.317 92.2,739.662 95.666,735.919C101.76,729.337 104.784,721.993 99.658,726.222C98.531,727.152 93.936,730.864 89.447,734.471C84.957,738.079 80.187,742.525 78.846,744.353C77.506,746.181 73.693,753.027 70.372,759.566C64.647,770.841 60.841,776.754 56.961,780.398L55.236,782.019L51.649,780.745C48.749,779.715 47.659,779.623 45.957,780.266C42.491,781.574 42.033,780.291 42.033,769.272C42.033,759.541 43.189,751.248 44.866,748.955C45.741,747.758 45.855,747.756 47.142,748.921C47.887,749.595 49.027,750.147 49.676,750.147C51.716,750.147 50.965,747.966 47.99,745.246C45.467,742.94 45.256,742.517 46.224,741.713C47.156,740.94 47.805,741.193 50.444,743.356C52.16,744.761 53.907,745.912 54.327,745.912C56.703,745.912 53.466,739.47 50.14,737.577C48.986,736.92 48.039,736.189 48.037,735.953C48.025,734.843 53.948,728.972 55.079,728.972C55.977,728.972 57.334,730.859 59.624,735.293C61.42,738.77 63.248,741.836 63.686,742.107C65.183,743.032 63.828,734.297 61.87,730.398C60.859,728.385 60.032,726.454 60.032,726.106C60.032,725.758 69.799,718.977 81.736,711.038C93.674,703.098 108.84,692.418 115.44,687.304C135.004,672.144 142.433,667.585 147.593,667.571C150.881,667.562 154.762,670.112 162.746,677.53C173.839,687.835 181.018,693.2 210.022,712.861C228.122,725.131 238.043,731.058 257.666,741.324C284.124,755.166 287.879,757.775 289.363,763.344C290.652,768.179 288.232,774.421 284.059,777.023L281.867,778.39L273.472,773.337C268.855,770.557 254.119,761.23 240.725,752.609C210.121,732.91 201.397,727.475 191.67,722.046C179.508,715.257 175.922,714.001 167.576,713.605C160.997,713.293 160.104,713.411 156.459,715.08C154.28,716.078 152.496,717.243 152.496,717.669C152.496,718.912 158.596,725.084 161.22,726.497L163.621,727.79L159.438,731.663C155.343,735.455 151.205,741.326 152.039,742.161C152.271,742.393 153.922,741.346 155.708,739.835C165.282,731.74 168.982,730.564 171.561,734.795C173.356,737.739 173.324,738.147 171.296,738.147C169.007,738.147 166.152,740.547 164.434,743.914C161.967,748.75 162.952,749.355 167.276,745.662C169.722,743.573 171.772,742.391 172.923,742.406L174.73,742.429L173.219,743.641C172.388,744.308 170.721,745.394 169.513,746.055C167.17,747.339 166.966,747.79 167.994,749.415C168.561,750.312 168.98,750.289 171.183,749.239C175.856,747.01 176.025,747.213 175.625,754.558C175.207,762.231 172.639,769.679 167.937,776.857L165.005,781.334L162.014,780.886C159.877,780.565 157.992,780.829 155.415,781.808L151.806,783.179L151.149,780.603C150.317,777.345 149.843,773.278 148.963,761.869C148.096,750.623 147.455,748.167 144.695,745.525C142.719,743.633 142.083,743.444 137.802,743.472C132.133,743.508 127.313,745.447 123.318,749.299C120.117,752.386 115.239,760.532 107.616,775.522C101.581,787.388 96.935,793.149 91.441,795.579C85.99,797.989 85.212,798.515 83.745,800.782C82.931,802.038 82.066,803.071 81.822,803.076C81.578,803.081 80.966,802.089 80.462,800.873L80.462,800.873Z" style="fill:rgb(255,204,0);fill-rule:nonzero;stroke:black;stroke-width:0.71px;"/>
        </g>
        <g id="path4218" transform="matrix(3.10464,0,0,3.10464,-856.325,-1005.21)">
            <path d="M641.805,840.811C634.965,838.97 628.193,835.619 610.681,825.412C574.538,804.345 551.468,792.906 524.118,782.492C510.468,777.295 488.146,771.147 471.544,768.013C469.998,767.721 469.935,767.601 471.014,766.996C473.452,765.632 474.612,762.082 474.589,756.057L474.567,750.321L479.226,749.982C482.815,749.721 485.832,748.794 492.355,745.949C498.891,743.098 501.356,742.341 503.158,742.633C505.78,743.059 508.621,745.065 518.61,753.547C534.144,766.738 557.424,780.151 592.844,796.318C605.557,802.12 608.828,803.084 615.8,803.084C621.212,803.084 621.973,802.912 623.971,801.231C627.272,798.453 628.796,794.813 631.426,783.423C634.213,771.354 636.03,764.969 636.679,764.969C636.933,764.969 638.074,765.95 639.214,767.15C642.749,770.868 647.646,772.627 645.329,769.347C640.272,762.185 641.288,756.885 647.889,756C650.562,755.641 650.816,755.744 650.816,757.18C650.816,760.491 655.037,764.969 658.159,764.969C659.703,764.969 659.631,764.747 656.815,760.828C653.804,756.637 653.642,755.087 656.213,755.087C657.453,755.087 659.222,756.155 661.476,758.264C663.344,760.011 665.203,761.44 665.608,761.44C666.721,761.44 666.49,759.616 665.247,758.585C664.643,758.084 663.816,757.052 663.409,756.291C662.315,754.245 663.715,753.699 670.086,753.687L675.592,753.676L676.556,755.984C677.741,758.82 679.706,760.655 683.531,762.499C685.911,763.646 686.425,764.233 686.269,765.627C685.932,768.664 682.792,771.839 677.81,774.181C661.431,781.88 661.453,781.867 659.984,784.747C657.798,789.032 656.484,795.767 656.475,802.731C656.468,807.878 656.739,809.529 657.898,811.43C660.046,814.953 661.094,813.985 660.812,808.736C660.605,804.874 660.723,804.355 661.721,804.738C669.636,807.775 678.284,808.362 684.343,806.273C689.9,804.357 698.01,800.077 709.618,792.933C724.61,783.706 727.347,782.251 733.663,780.142C743.339,776.911 751.328,777.68 753.592,782.059C755.045,784.868 754.303,785.602 747.274,788.31C744.107,789.53 736.91,792.694 731.281,795.34C716.284,802.391 709.736,804.807 700.744,806.608C698.507,807.057 696.858,807.718 697.08,808.077C697.768,809.19 710.902,808.838 715.088,807.595C717.192,806.97 723.999,804.08 730.215,801.172C744.331,794.569 749.143,792.72 754.428,791.869C759.337,791.078 767.907,791.947 768.779,793.323C769.105,793.839 769.184,795.292 768.954,796.551C768.389,799.634 769.03,801.835 771.263,804.489L773.131,806.709L769.675,810.227C764.956,815.032 758.92,817.915 752.34,818.507C744.42,819.219 737.588,818.242 730.409,815.37C726.942,813.983 723.922,813.031 723.698,813.256C722.906,814.047 725.808,816.412 730.769,819.019C735.477,821.492 735.682,821.697 734.064,822.311C733.116,822.671 728.846,822.77 724.575,822.531C720.145,822.282 716.388,822.378 715.826,822.753C714.162,823.864 715.487,825.671 717.965,825.671C723.221,825.671 718.841,826.349 708.678,827.108C695.656,828.081 692.895,828.697 690.438,831.172C688.879,832.743 687.721,833.124 683.284,833.525C679.99,833.822 675.858,834.839 672.344,836.217C659.062,841.426 649.455,842.871 641.805,840.811L641.805,840.811Z" style="fill:rgb(255,204,0);fill-rule:nonzero;stroke:black;stroke-width:0.71px;"/>
        </g>
        <g id="path5311" transform="matrix(3.10464,0,0,3.10464,-856.325,-1005.21)">
            <path d="M249.892,655.297C244.925,658.987 240.563,669.881 240.563,669.881L243.543,676.41L247.943,683.081L254.869,674.886C252.072,668.684 250.575,660.991 249.892,655.297L249.892,655.297Z" style="fill:none;stroke:black;stroke-width:0.83px;"/>
        </g>
        <g id="path5701" transform="matrix(3.10464,0,0,3.10464,-856.325,-727.968)">
            <path d="M247.284,591.373C245.453,588.616 244.006,586.101 242.632,583.287C242.235,582.473 241.497,580.845 241.307,580.362L241.219,580.138L241.635,579.2C242.158,578.02 243.384,575.545 244.001,574.421C245.25,572.148 246.687,569.976 247.879,568.562C248.325,568.032 249.494,566.843 249.531,566.88C249.547,566.896 249.636,567.429 249.728,568.065C250.664,574.52 252.171,580.355 254.039,584.757C254.182,585.095 254.31,585.406 254.323,585.448C254.339,585.502 254.207,585.69 253.897,586.058C251.682,588.684 248.227,592.767 248.219,592.767C248.214,592.767 247.793,592.14 247.284,591.373L247.284,591.373Z" style="fill-rule:nonzero;stroke:black;stroke-width:0.04px;"/>
        </g>
    </g>
</svg>
