<?xml version="1.0" encoding="UTF-8" standalone="no"?>
<!-- Created with Inkscape (http://www.inkscape.org/) -->

<svg
   xmlns:dc="http://purl.org/dc/elements/1.1/"
   xmlns:cc="http://creativecommons.org/ns#"
   xmlns:rdf="http://www.w3.org/1999/02/22-rdf-syntax-ns#"
   xmlns:svg="http://www.w3.org/2000/svg"
   xmlns="http://www.w3.org/2000/svg"
   xmlns:sodipodi="http://sodipodi.sourceforge.net/DTD/sodipodi-0.dtd"
   xmlns:inkscape="http://www.inkscape.org/namespaces/inkscape"
   version="1.1"
   id="svg3894"
   width="297mm"
   height="210mm"
   viewBox="0 0 1122.5197 793.7008"
   sodipodi:docname="roadrunner_empty.svg"
   inkscape:version="0.92.1 r">
  <metadata
     id="metadata3900">
    <rdf:RDF>
      <cc:Work
         rdf:about="">
        <dc:format>image/svg+xml</dc:format>
        <dc:type
           rdf:resource="http://purl.org/dc/dcmitype/StillImage" />
        <dc:title></dc:title>
      </cc:Work>
    </rdf:RDF>
  </metadata>
  <defs
     id="defs3898" />
  <sodipodi:namedview
     pagecolor="#ffffff"
     bordercolor="#666666"
     borderopacity="1"
     objecttolerance="10"
     gridtolerance="10"
     guidetolerance="10"
     inkscape:pageopacity="0"
     inkscape:pageshadow="2"
     inkscape:window-width="2445"
     inkscape:window-height="1391"
     id="namedview3896"
     showgrid="false"
     inkscape:zoom="1.0069267"
     inkscape:cx="231.099"
     inkscape:cy="378.08013"
     inkscape:window-x="0"
     inkscape:window-y="22"
     inkscape:window-maximized="0"
     inkscape:current-layer="layer1"
     units="mm"
     inkscape:showpageshadow="false" />
  <path
     style="fill:#ff2a2a;stroke-width:0.97246695"
     d=""
     id="path3928"
     inkscape:connector-curvature="0" />
  <path
     style="fill:#ff2a2a;stroke-width:0.97246695"
     d=""
     id="path3932"
     inkscape:connector-curvature="0" />
  <path
     style="fill:#ff2a2a;stroke-width:0.15004234"
     d=""
     id="path3982"
     inkscape:connector-curvature="0" />
  <path
     style="fill:#ff2a2a;stroke-width:0.21219191"
     d=""
     id="path4002"
     inkscape:connector-curvature="0" />
  <path
     style="fill:#ff2a2a;stroke-width:0.21219191"
     d=""
     id="path4006"
     inkscape:connector-curvature="0" />
  <path
     style="fill:#ff2a2a;stroke-width:0.21219191"
     d=""
     id="path4010"
     inkscape:connector-curvature="0" />
  <path
     style="fill:#ff2a2a;stroke-width:0.21219191"
     d=""
     id="path4014"
     inkscape:connector-curvature="0" />
  <path
     style="fill:#ff2a2a;stroke-width:0.21219191"
     d=""
     id="path4018"
     inkscape:connector-curvature="0" />
  <path
     style="fill:#ff2a2a;stroke-width:0.21219191"
     d=""
     id="path4020"
     inkscape:connector-curvature="0" />
  <path
     style="fill:#ff2a2a;stroke-width:0.21219191"
     d=""
     id="path4024"
     inkscape:connector-curvature="0" />
  <path
     style="fill:#ff2a2a;stroke-width:0.21219191"
     d=""
     id="path4026"
     inkscape:connector-curvature="0" />
  <path
     style="fill:#ff2a2a;stroke-width:0.21219191"
     d=""
     id="path4032"
     inkscape:connector-curvature="0" />
  <path
     style="fill:#ff2a2a;stroke-width:0.21219191"
     d=""
     id="path4036"
     inkscape:connector-curvature="0" />
  <path
     style="fill:#ff2a2a;stroke-width:0.21219191"
     d=""
     id="path4038"
     inkscape:connector-curvature="0" />
  <path
     style="fill:#ff2a2a;stroke-width:0.21219191"
     d=""
     id="path4040"
     inkscape:connector-curvature="0" />
  <path
     style="fill:#ff2a2a;stroke-width:0.21219191"
     d=""
     id="path4042"
     inkscape:connector-curvature="0" />
  <path
     style="fill:#ff2a2a;stroke-width:0.21219191"
     d=""
     id="path4046"
     inkscape:connector-curvature="0" />
  <path
     style="fill:#ff2a2a;stroke-width:0.21219191"
     d=""
     id="path4050"
     inkscape:connector-curvature="0" />
  <path
     style="fill:#ff2a2a;stroke-width:0.21219191"
     d=""
     id="path4052"
     inkscape:connector-curvature="0" />
  <path
     style="fill:#ff2a2a;stroke-width:0.21219191"
     d=""
     id="path4058"
     inkscape:connector-curvature="0" />
  <path
     style="fill:#ff2a2a;stroke-width:0.21219191"
     d=""
     id="path4060"
     inkscape:connector-curvature="0" />
  <path
     style="fill:#ff2a2a;stroke-width:0.21219191"
     d=""
     id="path4062"
     inkscape:connector-curvature="0" />
  <path
     style="fill:#ff2a2a;stroke-width:0.21219191"
     d=""
     id="path4076"
     inkscape:connector-curvature="0" />
  <path
     style="fill:#ff2a2a;stroke-width:0.21219191"
     d=""
     id="path4084"
     inkscape:connector-curvature="0" />
  <path
     style="fill:#ff2a2a;stroke-width:0.21219191"
     d=""
     id="path4086"
     inkscape:connector-curvature="0" />
  <path
     style="fill:#ff2a2a;stroke-width:0.21219191"
     d=""
     id="path4088"
     inkscape:connector-curvature="0" />
  <path
     style="fill:#ff2a2a;stroke-width:0.21219191"
     d=""
     id="path4090"
     inkscape:connector-curvature="0" />
  <path
     style="fill:#ff2a2a;stroke-width:0.15004234"
     d=""
     id="path4092"
     inkscape:connector-curvature="0" />
  <path
     style="fill:#ff2a2a;stroke-width:0.10609595"
     d=""
     id="path4106"
     inkscape:connector-curvature="0" />
  <path
     style="fill:#ffcc00;fill-opacity:1;stroke-width:0.10609595"
     d=""
     id="path4138"
     inkscape:connector-curvature="0" />
  <path
     style="fill:#ffcc00;fill-opacity:1;stroke-width:0.10609595"
     d=""
     id="path4142"
     inkscape:connector-curvature="0" />
  <path
     style="fill:#ff2a2a;fill-opacity:1;stroke-width:0.10609595"
     d=""
     id="path4154"
     inkscape:connector-curvature="0" />
  <path
     style="fill:#ff2a2a;fill-opacity:1;stroke-width:0.15004234"
     d=""
     id="path4178"
     inkscape:connector-curvature="0" />
  <path
     style="fill:#ff2a2a;fill-opacity:1;stroke-width:0.15004234"
     d=""
     id="path4212"
     inkscape:connector-curvature="0" />
  <g
     inkscape:groupmode="layer"
     id="layer1"
     inkscape:label="Layer 1"
     style="display:inline"
     transform="translate(0,-89.299218)">
    <path
       style="fill:#000000;stroke-width:0.39042574"
       d="m 341.1357,732.24639 c -24.22474,2.51824 -48.82129,0.69696 -67.91649,-5.02896 -2.90682,-0.87165 -11.7693,-4.19735 -11.81069,-4.43205 -0.0145,-0.0823 1.05055,0.12861 2.36684,0.4688 5.99728,1.55008 15.55126,3.39275 19.22509,3.70797 3.13468,0.26894 4.99622,0.18658 8.3538,-0.36966 7.42148,-1.22939 6.84189,-2.35852 -3.51675,-6.8512 -16.04002,-6.95677 -26.88076,-14.89489 -36.80706,-26.50075 -6.46937,-7.56401 -13.38649,-17.52587 -15.57266,-25.91981 l -0.30721,-3.86511 6.12142,-19.62921 c -1.40673,8.62068 -1.62769,9.643 -1.76499,16.81961 -1.69791,5.7192 8.37888,23.42117 14.83457,28.35715 6.08096,4.64946 16.72016,11.83386 13.09801,7.95937 -3.00224,-3.21143 -10.73324,-16.28128 -12.0062,-20.29744 l -0.5639,-1.7791 3.24457,-4.41865 c 2.03066,-2.7655 4.27623,-5.28612 6.00213,-6.73731 l 2.75757,-2.31865 -0.28647,-1.6247 c -0.84881,-4.81383 0.0828,-13.96138 1.95911,-19.23629 0.64004,-1.79932 1.00715,-3.24388 0.81577,-3.21013 -0.73611,0.12979 -5.20175,2.9466 -7.6003,4.79405 -2.83561,2.18414 -7.0497,6.4923 -9.42523,9.63569 l -1.59267,2.1075 0.0513,-1.39383 c 0.10381,-2.8178 1.27013,-9.84899 2.204,-13.28683 1.20312,-4.42911 2.62291,-8.07631 4.32779,-11.11736 0.99978,-1.7833 1.12475,-2.20851 0.51104,-1.73861 -1.18698,0.90886 -10.35356,9.5563 -11.90376,11.306 -2.10132,2.37173 -4.68624,7.18728 -3.77314,4.672 2.74892,-7.57233 12.60566,-23.65925 18.7557,-30.14015 11.47182,-12.08903 26.59433,-21.25026 43.51468,-26.36124 6.12176,-1.84915 18.18608,-4.07676 24.96857,-4.61031 13.71572,-1.07895 31.22429,0.77404 42.7731,5.11136 l 9.09819,3.99931 -8.70992,-0.40356 c -6.59207,-0.30543 -18.81389,1.62265 -22.74468,2.32195 -9.2046,1.63754 -11.19578,6.53978 -7.7867,9.38091 2.17719,1.81446 11.30004,3.72274 19.08268,3.99162 5.11658,0.17677 16.79235,-1.96758 21.37848,-3.92631 4.09973,-1.75104 8.54085,-4.38515 10.69397,-6.3428 4.26457,-3.87749 3.03633,-8.38387 -3.40459,-12.49143 -2.00792,-1.28051 -3.47703,-1.84668 -6.11083,-2.35506 -3.66387,-0.70718 -11.58655,-1.37025 -16.27896,-1.36241 l -2.80246,0.005 1.46558,-0.69996 c 11.15321,-8.34082 20.32947,-13.76443 31.72308,-15.8559 14.70579,-2.33588 28.79644,-2.77512 41.77858,3.81677 -4.84429,0.86798 -3.62372,0.78481 -8.25842,1.60134 -11.5525,2.03533 -16.47993,3.86636 -21.64612,8.04395 -3.45265,2.79196 -4.20386,4.98829 -2.02452,5.91913 1.0543,0.45032 1.48168,0.35548 8.31474,-1.84529 11.0584,-3.56164 17.32676,-5.04333 29.02315,-6.86041 12.5101,-1.9435 18.27422,-2.35082 31.33612,-2.2144 4.81745,0.10332 8.52102,0.33873 13.31154,0.71837 11.90095,1.00582 17.64306,2.21383 10.9326,2.29991 -1.83979,0.0236 -11.00675,0.54601 -18.78514,1.0705 -4.99337,0.54873 -9.71982,1.30171 -13.59478,2.01203 -12.09009,2.20578 -16.23492,3.38642 -23.89982,6.80756 -7.43679,3.31933 -14.52586,7.86183 -20.51738,13.14703 -1.62015,2.18754 1.46013,-1.58611 -3.25667,3.0647 -0.0707,0.0852 -4.3351,4.17819 -9.47639,9.09566 -14.77409,14.13094 -17.2391,15.63024 -31.03167,18.87453 -15.99024,3.76122 -21.53027,6.5394 -23.10929,11.58869 -1.08755,3.47767 0.40109,5.92444 4.28504,7.04281 11.6835,2.04407 25.2005,-6.87104 34.62389,-14.62578 6.49144,-5.36739 14.46713,-11.08776 20.10096,-14.41695 7.58841,-4.19852 16.04762,-7.8125 23.99522,-10.25857 2.49501,-0.77196 7.62056,-2.1798 11.39007,-3.12851 6.03745,-1.51951 7.06902,-1.88476 8.66205,-3.06683 0.99463,-0.73806 1.88366,-1.28942 1.97568,-1.22528 0.092,0.0642 0.12874,-0.30258 0.0817,-0.81494 -0.11116,-1.20939 -1.71209,-2.06276 -4.56869,-2.4353 -2.10547,-0.27458 -2.60691,-0.1778 -11.38434,2.19702 -13.14343,3.55609 -15.27955,4.09483 -15.09701,3.80753 0.2554,-0.40196 11.39431,-5.69763 16.68522,-7.9325 23.26158,-9.82568 47.96057,-14.70707 73.30156,-14.48698 6.19904,0.0539 18.9943,0.79748 19.46106,1.13105 0.12803,0.0915 -2.82229,0.58158 -6.55634,1.089 -11.61576,1.57851 -26.47091,5.57964 -36.74547,9.89707 -10.1835,4.27918 -20.85252,10.88878 -28.80882,17.84745 -7.80453,6.8259 -13.19672,10.33273 -21.41029,13.92424 -4.20002,1.83649 -18.04247,5.77755 -18.37693,5.54726 -0.0788,-0.0543 5.62366,-1.60974 7.76068,-2.89307 4.77677,-2.86852 6.38911,-4.20401 7.82253,-6.47935 1.70801,-2.71114 1.85299,-3.41102 0.83112,-4.01192 -1.46774,-0.86309 -9.91583,1.11409 -15.68895,3.67184 -4.83961,2.14414 -10.2161,5.92414 -11.30647,7.94913 -0.81675,1.51684 -0.47733,3.19462 0.74425,3.67896 0.52854,0.20954 0.86988,0.86991 3.93696,0.91698 39.31476,-2.45697 10.75347,-4.28013 -23.23243,15.19503 -11.40152,6.08005 -19.1241,15.4318 -22.76524,27.56778 -1.50045,5.00101 -1.83462,7.57608 -1.34414,10.35776 0.35677,2.02333 0.61401,2.563 1.62222,3.40322 1.8342,1.52862 3.61511,1.51523 10.92826,-0.0822 6.9709,-1.52262 11.35723,-2.92921 15.01214,-4.81404 6.11766,-3.15489 9.71442,-9.75242 6.58649,-12.08165 -1.55639,-1.15895 -3.4578,-1.29509 -6.36844,-0.45597 -4.8863,1.4087 -12.50221,5.81657 -17.94385,10.38534 -4.93157,4.14056 -4.99736,4.16012 -2.98656,0.88804 0.98288,-1.59943 2.95946,-4.32639 4.3924,-6.05992 8.60279,-10.40748 17.48952,-16.67289 30.66307,-21.61839 58.04796,-34.77617 9.21206,-16.8014 11.18464,22.16826 -3.52954,5.53173 -2.85525,8.27996 1.82882,7.45404 3.76608,-0.66407 12.92868,-5.81434 19.62174,-11.02942 9.10043,-7.09083 18.71918,-17.77137 27.41876,-30.44544 3.07496,-5.71508 4.1939,-6.44119 6.96607,-10.4301 5.54799,-7.97446 11.16525,-14.62303 16.99561,-20.11587 6.06299,-5.71203 17.17295,-13.65737 23.49592,-16.80326 2.14962,-1.06949 3.04615,-1.14663 1.17065,-0.10069 -1.67886,0.93625 -8.6403,6.78196 -12.77192,10.7249 -11.23724,10.72414 -19.46847,21.7505 -35.78917,47.94239 -9.67365,15.5245 -17.40097,24.75476 -28.75328,34.3457 -20.82078,17.59033 -46.78217,30.25342 -78.09543,38.09243 -6.24842,1.56423 -22.59252,4.41815 -29.28896,5.11419 z m 27.03523,-19.02225 c 2.57374,-0.89234 4.74955,-1.73206 4.83516,-1.86605 0.0856,-0.13398 -1.81876,0.21754 -4.23195,0.78116 -2.41323,0.56359 -5.64447,1.24715 -7.18055,1.51898 -2.72411,0.48371 -2.78874,0.51783 -2.62315,1.45694 0.16614,0.9422 0.21599,0.94954 2.34537,0.34703 1.19659,-0.33855 4.28139,-1.34569 6.85512,-2.23803 z m -27.27575,4.58013 c 0.0152,-0.60112 0.0866,-1.38887 0.15846,-1.75057 0.10407,-0.52355 -0.38818,-0.70525 -2.41345,-0.89096 -5.44246,-0.49909 -16.20286,-2.22365 -16.27057,-2.60768 -0.0576,-0.32699 2.64174,-8.51803 2.98547,-9.05906 0.0528,-0.0831 1.50063,0.38626 3.2174,1.04321 1.71672,0.65691 5.59675,1.81362 8.62228,2.57044 3.02551,0.75683 5.53351,1.54836 5.57335,1.75893 0.0405,0.21046 -0.25454,1.56928 -0.65413,3.01935 -0.39959,1.45006 -0.70225,2.77441 -0.67252,2.94304 0.076,0.43111 1.69335,0.40383 9.92803,-0.16735 3.97183,-0.27553 7.3116,-0.64434 7.42171,-0.8196 0.36415,-0.57966 0.61886,-3.33781 0.33731,-3.65248 -0.15206,-0.16993 -1.12382,-0.28666 -2.15953,-0.25938 -2.31255,0.061 -13.06683,-1.01808 -13.59038,-1.36355 1.14357,-4.73099 5.19224,-7.51136 0.12955,-9.63529 -3.74876,-1.53503 -10.56848,-5.2837 -10.67109,-5.86568 -0.0985,-0.55831 4.51716,-4.97527 7.41889,-7.09957 1.56621,-1.1466 2.78074,-2.25097 2.69892,-2.45415 -0.0818,-0.20318 -1.76902,-1.99771 -3.74934,-3.98781 -2.87293,-2.88715 -3.78627,-3.58563 -4.51951,-3.45634 -1.49987,0.26446 -8.11092,2.96336 -11.12065,4.53989 -1.53805,0.80565 -2.97941,1.49936 -3.20299,1.54156 -1.08882,0.20558 -8.51653,-11.25612 -8.9733,-13.84662 l -0.15262,-0.86548 8.22117,-1.24937 c 4.52169,-0.68714 8.5279,-1.17996 8.90277,-1.09513 0.61905,0.14008 0.58245,-0.2936 -0.39865,-4.72659 -0.66672,-4.86381 -0.4648,-3.53252 -0.73123,-6.69618 l -0.0237,-1.54748 -3.21194,-0.625 c -3.67359,-0.71483 -11.77285,-1.70507 -13.98356,-1.70967 -0.89538,-0.002 -1.52849,-0.22017 -1.58611,-0.5469 -0.32032,-1.81666 1.70814,-8.59005 3.79266,-12.66442 0.65185,-1.27404 1.06443,-2.4006 0.91686,-2.50347 -2.62979,-0.43385 -3.06909,-0.46576 -5.96389,-0.83629 -2.50773,-0.32311 -6.38979,-0.71338 -8.62682,-0.86724 -2.237,-0.15386 -4.34624,-0.34116 -4.68721,-0.41619 -0.34095,-0.075 -0.80747,-0.18472 -1.11721,-0.0827 -0.30976,0.10198 0.60267,-1.39339 2.10809,-3.48409 2.87441,-3.9918 8.64573,-9.82137 11.52196,-11.63825 0.93269,-0.58916 1.67868,-1.17232 1.6577,-1.29589 -0.0558,-0.33565 -8.20901,-2.31966 -10.89377,-2.65152 -1.28429,-0.15875 -2.35414,-0.39676 -2.37744,-0.52892 -0.0564,-0.31972 6.03859,-2.86067 9.8062,-4.08814 1.65291,-0.53852 5.39912,-1.34464 8.3249,-1.79139 2.92578,-0.44673 5.30291,-0.90515 5.28254,-1.01853 -0.0944,-0.51609 -6.01848,-2.70387 -7.84602,-2.89635 -2.76919,-0.29168 -15.68569,1.90834 -19.29717,3.28681 -4.56915,1.74397 -8.39901,3.50215 -12.49498,5.73606 l -3.98633,2.17411 6.39818,-0.88691 c 6.08411,-0.84339 12.14414,-0.9669 12.27053,-0.25008 0.0293,0.16584 -0.96144,0.88362 -2.20152,1.59505 -2.83446,1.62608 -7.42478,5.0077 -9.34044,6.88093 -2.17031,2.27871 -0.8,0.57303 -3.36877,3.41854 -2.64533,2.75577 -9.02138,12.52491 -8.06454,12.3562 0.0995,-0.0176 1.39761,-0.54843 2.8846,-1.17973 3.11679,-1.32324 17.85197,-4.17811 18.65986,-3.61472 0.3039,0.21194 -0.37354,1.54884 -1.38043,3.90385 -1.81616,4.24781 -2.7874,8.39611 -2.98463,12.74742 l -0.14684,3.24015 -2.90117,0.76372 c -4.40321,1.15913 -10.45935,4.0891 -15.4398,7.46981 l -2.03998,1.38473 0.43575,2.47128 c 0.9611,5.4507 1.63687,7.3858 4.35717,12.62788 1.59754,1.70094 2.9644,5.40179 5.54554,8.77987 0.29867,0.16886 1.93866,-1.00168 4.43657,-3.16655 2.17949,-1.88893 5.49754,-4.36124 7.37343,-5.49403 1.87588,-1.13279 3.52158,-2.18751 3.6571,-2.34383 0.13556,-0.15633 -0.43368,-1.89919 -1.26493,-3.87302 -1.40186,-3.33181 -1.97539,-4.91609 -2.52579,-6.80772 -0.92045,-3.18126 -1.85469,-10.88629 -1.39817,-11.53132 0.3367,-0.47576 12.90811,-2.72972 13.38202,-2.3993 2.73036,-0.15894 2.40729,-0.28831 3.8686,-0.35253 1.45079,-0.21593 3.48109,-0.30317 3.66759,-0.17322 0.18652,0.12996 -0.17379,2.90251 -0.0886,5.37938 0.14657,4.25383 0.74904,7.54086 2.09226,11.41515 l 0.49867,1.43834 -3.67284,0.91606 c -3.11494,0.77693 -13.36274,4.9615 -13.85108,5.65597 -0.28642,0.4073 3.06368,5.87531 5.58062,9.10861 1.41502,1.81778 3.87072,4.55959 5.45706,6.0929 1.58638,1.53332 2.7557,2.93894 2.59854,3.12359 -0.15716,0.18466 -1.16507,1.2725 -2.23979,2.41739 -1.07474,1.14492 -2.98562,3.66969 -4.24645,5.61063 l -2.29239,3.52893 -5.58707,-3.9304 c -5.52767,-3.88861 -10.71178,-8.53404 -13.46826,-12.06878 -0.78286,-1.00389 -1.57895,-1.79824 -1.76911,-1.76523 -0.19012,0.0333 -0.9966,0.81454 -1.79204,1.7367 -2.56251,2.40239 -3.96094,4.87418 -5.18053,7.32056 l -1.75541,3.29358 3.21664,2.07748 c 6.87381,4.43952 13.29261,7.80923 20.50613,10.76516 l 2.42658,0.99437 0.79368,-2.2083 c 1.22246,-3.40117 2.5987,-5.97341 3.14017,-5.86896 0.26944,0.052 2.20377,0.96448 4.2985,2.02784 4.60099,2.33555 10.4372,4.52092 15.20849,5.69473 1.94135,0.4776 3.57344,0.89078 3.62689,0.91814 0.0535,0.0274 -0.0777,1.28211 -0.29152,2.7883 -0.31969,2.25232 -0.28584,2.77922 0.19066,2.96801 1.14529,0.45379 15.15381,0.76158 17.83053,0.39177 1.02679,-0.14187 1.21612,-0.33438 1.23964,-1.26037 z m -18.83527,-16.0171 c -2.91897,-1.35776 -9.41003,-5.61615 -12.64251,-8.29396 l -1.86026,-1.54106 2.44632,-2.26482 c 2.77106,-2.56544 7.80376,-6.19627 9.38952,-6.774 0.97565,-0.35546 1.25023,-0.1811 3.50548,2.22692 1.34578,1.43694 4.07505,3.81768 6.06501,5.29056 l 3.61812,2.67794 -3.46036,4.93709 c -1.90317,2.71537 -3.63768,4.96236 -3.85444,4.99335 -0.21666,0.0314 -1.65982,-0.53242 -3.20688,-1.25202 z m 59.71088,5.24876 c -0.093,-0.46141 -4.26285,-2.1167 -5.00634,-1.98726 -1.06346,0.18414 -12.14594,-0.47778 -13.74776,-0.82232 l -1.43737,-0.30917 1.69801,-2.56362 1.69803,-2.56366 -1.72623,-0.96632 c -0.94942,-0.5315 -3.3281,-1.95332 -5.28599,-3.15968 l -3.55978,-2.19338 -2.37878,2.34086 c -8.67105,7.29991 -0.8918,8.22915 7.15806,9.03178 0.99495,0.0709 1.93114,0.26555 2.08048,0.43246 0.14932,0.16687 -0.16799,1.42601 -0.70513,2.79807 -0.53713,1.37205 -0.95914,2.59375 -0.93779,2.71485 0.0434,0.24627 1.94258,0.30104 5.19062,0.14972 2.95836,-0.13783 17.03162,-2.54616 16.95997,-2.90233 z m -46.06065,-71.58949 3.30093,-4.2291 -2.15893,-1.54749 c -1.18739,-0.85111 -4.25578,-2.79446 -6.81862,-4.31857 -2.56284,-1.5241 -4.73218,-2.88452 -4.82074,-3.02313 -0.14755,-0.2309 6.94589,-4.41745 9.15035,-5.40057 0.90011,-0.40141 0.71084,-0.58386 -4.08601,-3.93842 -2.76642,-1.93464 -5.05221,-3.64431 -5.07954,-3.79931 -0.0274,-0.15497 1.19414,-0.50111 2.71437,-0.76916 3.98316,-0.42337 2.52883,-0.1067 6.34713,-0.72352 l -2.26991,-1.00357 c -1.91451,-0.84646 -3.08548,-1.015 -7.47901,-1.07655 -2.86498,-0.0402 -5.25705,-0.005 -5.31565,0.0785 -0.0586,0.0834 1.11114,0.82144 2.59941,1.64021 l 2.70592,1.48873 -2.43248,0.74236 c -5.7321,1.74937 -13.39161,5.05041 -13.27345,5.72052 0.0279,0.15841 2.84713,1.44675 6.26489,2.86299 3.41776,1.41624 6.24421,2.74567 6.281,2.9543 0.0367,0.20863 0.18317,0.27851 0.3253,0.15529 0.14214,-0.12324 0.90207,0.0688 1.68869,0.42675 l 1.43026,0.6508 -2.07068,1.81115 c -2.33402,2.04152 -6.40963,6.37294 -7.98193,8.48294 l -1.04459,1.40186 6.17092,1.76273 c 3.39403,0.96948 7.42152,2.2653 8.95,2.87956 1.52847,0.61426 2.96406,1.09052 3.19024,1.05831 0.22612,-0.0323 1.89661,-1.96163 3.71213,-4.28764 z m 6.29358,-18.14962 c -0.34706,-1.41544 -0.73575,-2.64655 -0.86379,-2.73582 -0.22617,-0.15769 -5.23962,1.51351 -5.49033,1.83016 -0.0688,0.0869 1.44552,1.61461 3.36527,3.39476 l 3.49048,3.23663 0.0647,-1.57611 c 0.0356,-0.86686 -0.21928,-2.73419 -0.56634,-4.14962 z m 132.13614,42.03866 c 0.17797,-0.46694 1.15666,-8.47257 8.35986,-8.90798 0.12109,-0.007 -2.36712,-1.72589 3.68229,-1.25902 7.30906,-2.8495 3.74845,-1.09737 6.05881,-2.06438 6.97261,-2.71643 23.0488,-21.83729 27.95358,-25.49366 2.45157,-2.67437 -2.55301,2.85446 -3.9846,10.51319 -0.7367,3.94124 0.14339,5.94154 -3.93414,9.24119 -7.33042,5.93199 -15.60949,9.97726 -23.49498,13.18196 -5.2212,2.12192 -14.89902,5.46606 -14.64082,4.7887 z"
       id="path4791"
       inkscape:connector-curvature="0"
       sodipodi:nodetypes="ccscccscccccsccccscscscscccccscsssccssccscscccccccccsscccccccccscccccsccccsccccsscscsccssccccsccccscccccsccccsccssscccccsccccccsccccsscccsccccscsscscsccccscscccccccccsscscccccsscccccccccsccssccccccccccccccsccscccsccccccccccccscccccccccccccccccsccccccccccsccsscscccssccccccssssccccccccccssccccscccccscccscsc" />
    <path
       style="display:inline;fill:#000000;stroke-width:0.83160001"
       d="m 636.53516,844.22209 c -7.36967,-2.1227 -15.99985,-6.54805 -29.5218,-15.13805 -13.09662,-8.31981 -33.92118,-19.70076 -58.39086,-31.91154 -24.61082,-12.28122 -40.30247,-16.90051 -86.30754,-25.40715 -42.34029,-7.829 -58.79161,-12.28262 -76.923,-20.8242 -3.20166,-1.50828 -7.21709,-3.61449 -8.92317,-4.68047 -2.62174,-1.63808 -4.20637,-1.93813 -10.23568,-1.93813 -3.92354,0 -10.66567,-0.43406 -14.98252,-0.96457 -10.41398,-1.2798 -14.89358,-0.27253 -23.35586,5.2517 -8.05754,5.26002 -20.41534,15.0338 -28.77166,22.75551 -3.53941,3.27061 -8.34925,6.98827 -10.68852,8.26146 -7.48973,4.07643 -13.21917,2.23518 -28.09126,-9.02758 -4.55837,-3.45209 -13.651,-9.59626 -20.20583,-13.6537 -6.55485,-4.05744 -18.27964,-11.48106 -26.0551,-16.49693 -29.3566,-18.93765 -38.91706,-23.16055 -51.10201,-22.57203 l -5.19136,0.25074 1.70512,2.16152 c 0.95702,1.21318 3.88075,2.9548 6.66397,3.9696 5.74977,2.09648 9.2415,5.60071 12.4972,12.54193 1.91326,4.07912 2.15782,5.62021 2.11751,13.34355 -0.0393,7.54199 -0.39306,9.72016 -2.59569,15.98527 -6.48168,18.43626 -21.07575,35.29188 -32.61779,37.67234 l -2.82665,0.58298 0.50133,-3.08928 c 0.27572,-1.69911 1.63552,-5.51301 3.02176,-8.47533 2.45481,-5.24582 2.48429,-5.4547 1.1321,-8.02271 -1.06834,-2.02894 -1.52562,-6.11574 -1.98396,-17.73079 -0.32759,-8.30176 -0.83082,-15.83515 -1.11829,-16.74087 -0.66612,-2.09877 -4.12466,-2.80033 -8.71759,-1.76837 -8.83067,1.98412 -12.41175,6.02649 -20.94507,23.64307 -8.16887,16.86419 -11.2541,20.89524 -19.424623,25.37948 -3.406682,1.8697 -7.379851,4.75009 -8.829255,6.40088 -2.586617,2.94599 -2.625203,3.11271 -2.08927,9.02701 0.33763,3.72578 0.22859,6.22176 -0.28568,6.5396 -1.183034,0.73115 -6.727203,-2.29398 -9.321154,-5.08603 -2.949644,-3.17488 -5.302058,-8.08258 -6.433932,-13.42269 -1.159699,-5.47137 -1.21061,-17.60852 -0.09846,-23.47286 0.459584,-2.42336 0.728922,-4.51278 0.598544,-4.64316 -0.204715,-0.20471 -3.361726,3.58738 -9.24656,11.10664 -1.536356,1.96306 -1.538003,2.1768 -0.06628,8.62075 1.999715,8.75555 1.404913,9.35692 -5.764019,5.82767 -5.63987,-2.77649 -11.094974,-8.08658 -13.77256,-13.4064 -5.55162,-11.02997 -3.769576,-32.82251 4.048204,-49.50522 4.128944,-8.81093 7.47467,-11.97054 19.743365,-18.64511 10.708563,-5.82581 26.343907,-16.15247 42.70886,-28.20787 30.21379,-22.25729 33.74808,-24.38559 40.61985,-24.46068 5.18235,-0.0566 10.53806,2.78748 18.69192,9.9262 12.47875,10.92516 16.03351,13.7674 28.83783,23.05764 24.64843,17.88377 43.60685,29.62197 66.79472,41.35629 11.91829,6.03129 15.05307,7.3059 16.01161,6.51038 1.35557,-1.12502 7.34314,-10.74546 6.88841,-11.06784 -0.16376,-0.11609 -2.73017,-1.91913 -5.70314,-4.00675 -6.42895,-4.51441 -17.2463,-15.59266 -22.58276,-23.12744 -3.55299,-5.01661 -15.31449,-24.07197 -20.78813,-33.6798 -3.00697,-5.27812 -3.71724,-14.16431 -3.71724,-18.3899 0,-1.88241 -0.0975,-3.86908 0.37734,-6.62911 l 0.53428,-3.10537 -16.84258,-20.11909 c -15.45002,-18.4556 -18.52571,-19.45814 -30.56357,-44.06414 -16.19482,-33.10304 -23.13683,-63.21115 -23.10486,-100.2078 0.0161,-18.62184 2.35876,-39.13652 5.7077,-49.98202 0.33813,-1.09504 -0.53609,-1.42193 -4.89002,-1.82851 -10.55159,-0.98533 -18.18572,-5.36265 -21.71931,-12.45364 -1.71842,-3.44842 -2.11965,-5.4622 -2.11965,-10.63855 0,-3.7947 0.54139,-7.86118 1.33452,-10.02382 3.208,-8.74727 3.05578,-10.59418 -2.48553,-30.15864 -1.56879,-5.53884 -3.81755,-14.18703 -4.99724,-19.21821 -3.83745,-16.36613 -7.01101,-20.86214 -24.75162,-35.06586 -7.27013,-5.82071 -10.967694,-9.43699 -13.23348,-12.94261 -2.951914,-4.56717 -4.931047,-10.65733 -4.931047,-15.17371 0,-1.99673 3.430708,-5.42482 5.428951,-5.42482 0.766503,0 0.474353,-2.17022 -1.091483,-8.1081 -1.609637,-6.10397 -2.153004,-10.26641 -2.198301,-16.8399 -0.07534,-10.93895 1.029437,-13.75168 5.36584,-13.66091 1.589496,0.0333 3.48866,0.3324 4.22038,0.66474 1.19184,0.54132 1.16973,-0.11448 -0.21231,-6.29749 -4.403312,-19.69975 -1.768122,-41.71417 6.41569,-53.59668 2.63703,-3.82886 7.22054,-7.77487 9.03092,-7.77487 1.29188,0 2.97791,6.10575 2.97791,10.78409 0,2.75897 0.28067,5.0155 0.6237,5.0145 0.34304,-8.3e-4 1.66369,-3.27541 2.93479,-7.2765 9.19827,-28.95381 30.20886,-54.0071 47.2819,-56.37953 6.08906,-0.84612 7.37175,0.28754 7.37096,6.51459 -7.4e-4,5.83758 -2.78926,12.75964 -7.99937,19.85724 -1.62384,2.21211 -2.78327,4.02201 -2.57652,4.02201 0.60348,0 10.54802,-8.13897 19.4253,-15.89838 16.18591,-14.1477 26.69385,-20.74524 37.50145,-23.54577 9.56953,-2.47971 26.68014,-1.15394 28.81642,2.23277 0.67032,1.06267 0.42016,1.99576 -1.07854,4.02286 l -1.95129,2.63927 2.8089,-0.53848 c 6.13939,-1.17696 18.68637,-1.51342 22.0829,-0.59219 4.34614,1.17879 7.753,5.00702 7.753,8.71192 0,6.87507 -7.17613,13.13848 -28.6902,25.04114 -6.40332,3.54264 -12.39084,6.99711 -13.3056,7.6766 -1.57323,1.16861 -1.52824,1.20649 0.8316,0.70018 1.37214,-0.29439 6.04989,-0.74893 10.395,-1.01007 7.2602,-0.43635 8.08547,-0.3278 10.1871,1.34002 1.73498,1.37685 2.2869,2.53714 2.2869,4.80764 0,5.46324 -4.15383,8.27203 -34.97723,23.65139 -27.63924,13.79063 -38.97908,20.37508 -46.93537,27.2529 -5.32038,4.59922 -5.58364,5.40196 -1.10503,3.36955 4.4297,-2.01022 9.68502,-2.20179 10.38467,-0.37855 0.81617,2.12691 -1.18651,10.17278 -3.8908,15.63152 -2.34908,4.74173 -5.31315,8.65513 -18.79897,24.81987 -7.20945,8.64159 -10.04536,13.43008 -12.43738,21.00072 -2.84348,8.99948 -3.43571,17.67219 -1.67505,24.5296 0.757,2.94839 1.53903,5.52336 1.73783,5.72216 0.1988,0.1988 1.64761,-0.24885 3.21958,-0.9948 1.57196,-0.74594 3.9443,-1.35626 5.27185,-1.35626 3.53056,0 10.6457,3.83668 13.75703,7.41818 1.48757,1.71237 4.73833,4.20532 7.22391,5.5399 5.81122,3.12022 12.47517,9.21778 15.89019,14.53961 1.98717,3.09674 3.04053,4.04474 4.03025,3.62718 0.73696,-0.31093 4.25571,-0.75425 7.81945,-0.98515 l 6.47954,-0.41983 -0.54486,-3.63335 c -0.65841,-4.39059 -0.26397,-4.47803 7.49508,-1.66165 10.37162,3.76469 14.60211,8.93053 14.60211,17.8306 0,5.06285 0.0881,4.8682 -6.01991,13.29341 -1.58286,2.18334 -2.80785,5.66911 -4.01551,11.42634 -2.58696,12.33278 -1.60903,15.90443 7.43172,27.14274 5.07948,6.31416 7.9389,11.13136 8.85441,14.9168 0.68174,2.81889 -0.42912,3.24236 -9.99291,3.80938 -8.24852,0.48903 -19.71454,-1.11806 -27.50008,-3.85445 l -4.55015,-1.59925 -2.53768,5.02712 c -6.3639,12.60681 -12.12178,30.79511 -14.03642,44.33901 -1.23113,8.70885 -1.03106,25.96217 0.38731,33.39875 4.30306,22.56131 18.27882,49.82695 33.031,64.441 7.8851,7.81126 19.74624,15.87116 31.4863,21.39561 9.01581,4.24252 23.75141,9.53098 24.78203,8.89402 0.32639,-0.20173 4.4017,-1.13021 9.05623,-2.0633 28.4879,-5.71095 56.97267,8.66207 92.32739,18.66469 11.53345,3.26307 24.80929,-5.19552 26.68129,-3.6419 62.41976,23.31714 69.03906,34.8072 97.40086,25.68892 1.09255,1.09255 23.53807,-7.77439 29.57709,-13.76338 16.99306,-16.8523 26.13983,-44.84693 26.13983,-80.00361 0,-24.04706 -3.3831,-43.1915 -11.50954,-65.13075 -2.28303,-6.16354 -6.09403,-16.44553 -8.46892,-22.84885 -7.28657,-19.64652 -13.87703,-48.54627 -17.16266,-75.25979 -2.01894,-16.41467 -2.00497,-42.45201 0.0274,-51.1434 3.40802,-14.57423 8.9603,-26.24597 17.66585,-37.13627 7.72874,-9.66834 15.5371,-14.86235 23.31254,-15.50715 8.14785,-0.67568 11.10409,2.10327 11.10409,10.43819 v 3.70039 l 5.08358,-4.44819 c 15.65783,-13.70076 28.36708,-22.35035 44.39662,-30.2152 20.29554,-9.95796 35.86661,-14.12784 52.8066,-14.14143 9.89502,-0.008 10.63497,0.11165 15.38458,2.48646 7.88922,3.94458 8.97146,8.43674 3.37978,14.02841 l -2.83359,2.83353 7.2113,0.58255 c 24.13461,1.94966 40.75481,8.22257 46.72386,17.63485 3.07368,4.84669 3.20391,8.42722 0.42653,11.72794 -3.47309,4.12751 -7.11442,4.62352 -29.76704,4.05469 l -20.15124,-0.50602 4.5738,2.12231 c 5.81429,2.69791 8.316,5.03616 8.316,7.77266 0,6.77745 -8.10528,10.22823 -36.09044,15.36525 -8.64395,1.58671 -16.06946,3.23811 -16.50114,3.66979 -0.4921,0.4921 -0.44593,1.4182 0.12376,2.48269 3.14857,5.88313 -0.49518,13.06506 -13.50646,26.62157 -5.11882,5.33334 -10.14785,10.88264 -11.17561,12.33178 l -1.86865,2.6348 2.58775,0.56838 c 3.76238,0.82635 8.60483,6.08498 10.42194,11.31764 2.20858,6.35995 2.00952,19.93164 -0.40093,27.33498 -0.96797,2.97297 -1.76476,5.68606 -1.77067,6.0291 -0.006,0.34303 2.0595,0.6237 4.58978,0.6237 5.83096,0 9.27255,1.44305 12.66996,5.31248 5.0942,5.80197 7.36575,14.43603 8.21557,31.22695 l 0.53939,10.65761 4.35978,1.80702 c 2.39788,0.99386 4.98838,2.50163 5.75667,3.35058 4.15133,4.58717 4.87312,31.92615 1.29276,48.96596 -0.99353,4.72847 -1.6232,8.78042 -1.39928,9.00435 0.22393,0.22392 1.84374,-0.8749 3.59959,-2.44185 6.14003,-5.47947 10.41969,-8.09111 13.25878,-8.09111 2.5007,0 2.79908,0.27156 3.31409,3.0169 0.31127,1.65929 0.36665,8.11459 0.12308,14.3451 -0.81955,20.96477 -6.37538,38.02133 -16.89259,51.86113 l -2.99603,3.94252 2.01889,0.76759 c 1.1104,0.42217 3.01483,1.95117 4.23207,3.39778 6.55775,7.7934 -1.17889,21.67596 -18.2019,32.66147 -6.15961,3.97499 -20.9607,11.54957 -28.85724,14.76792 -4.59939,1.87455 -6.13538,3.306 -3.54742,3.306 0.67886,0 2.45641,1.09196 3.9501,2.42658 2.30633,2.0607 2.71582,2.99193 2.71582,6.17602 0,4.55326 -1.88577,7.38667 -7.41081,11.13486 -7.20427,4.88738 -20.74058,7.94449 -42.24544,9.54093 l -13.06587,0.96997 3.31637,2.83868 c 6.55509,5.61091 7.21201,11.4014 1.66125,14.64322 -4.36545,2.54956 -19.42021,2.71087 -46.2055,0.49508 -39.58485,-3.27462 -58.57736,-1.3371 -67.56015,6.89216 -1.02505,0.93906 -2.66381,3.36013 -3.64168,5.38014 -2.29356,4.73787 -9.63345,12.65006 -14.82621,15.98225 l -4.06954,2.61141 2.03676,4.60546 c 4.47636,10.12185 10.54268,17.33205 16.89854,20.08495 3.72678,1.61418 13.39578,1.57394 17.95158,-0.0747 1.83595,-0.66439 5.17645,-2.37383 7.42332,-3.79876 8.83012,-5.5999 12.85592,-4.81009 23.06978,4.52596 14.74073,13.47387 34.9249,26.19038 56.86912,35.8289 6.37257,2.79902 14.76735,6.48429 18.65508,8.18949 23.51092,10.31216 26.39629,11.02435 30.53959,7.538 3.00142,-2.52553 4.89812,-7.68484 8.03961,-21.86883 2.555,-11.53602 3.86976,-14.3625 8.62984,-18.55249 9.25893,-8.15004 32.29908,-10.60945 50.30801,-5.37011 6.0686,1.76553 13.91733,5.50191 13.91733,6.62531 0,1.53277 -2.62237,3.56349 -5.4054,4.18582 -1.37214,0.30683 -3.10512,0.72129 -3.85106,0.921 -0.74595,0.19971 -1.59609,1.56214 -1.88915,3.0276 -1.11301,5.56518 -3.98195,8.37947 -13.72183,13.46049 -5.24968,2.73861 -10.29059,6.02211 -11.68706,7.6126 -2.9938,3.40976 -4.8678,9.02815 -3.67231,11.00991 1.42543,2.36295 7.86257,5.1201 11.95392,5.1201 8.94102,0 16.30117,-3.1904 34.50989,-14.95901 18.2912,-11.82186 25.54883,-14.59309 36.51447,-13.94248 4.40183,0.26116 8.16664,1.03517 10.88673,2.23821 2.2869,1.01143 5.96914,2.05436 8.18277,2.3176 4.83052,0.57446 6.30744,2.64859 4.8543,6.81726 -0.85613,2.45582 -0.79925,2.55962 1.40366,2.55962 1.46544,0 3.16041,-0.90236 4.68607,-2.4948 4.83716,-5.04886 7.0686,-2.6929 7.0686,7.46286 0,5.2441 -0.3946,7.51418 -1.77755,10.225 -6.96748,13.65739 -23.79499,22.19864 -43.78174,22.22266 -3.34545,0.004 -5.94586,0.47743 -7.22453,1.31522 -3.27501,2.14589 -9.97953,3.53455 -21.88147,4.53213 -12.06278,1.01108 -17.65229,2.42284 -30.11629,7.60659 -12.20406,5.07565 -18.34195,6.51947 -27.42608,6.4515 -4.85163,-0.0363 -9.8488,-0.6157 -12.90652,-1.49642 z m 21.30956,-2.96736 c 3.03002,-0.64225 9.39176,-2.67127 14.1372,-4.50893 7.10074,-2.74975 9.30061,-3.26038 12.4275,-2.88465 3.45307,0.41492 3.98779,0.23277 5.86487,-1.99806 2.43726,-2.89651 4.1684,-3.41334 13.36531,-3.99015 12.33878,-0.77386 17.30294,-1.34226 17.30294,-1.98119 0,-0.34474 -1.12266,-0.62681 -2.4948,-0.62681 -2.89356,0 -3.74412,-0.59167 -2.8741,-1.9994 0.4514,-0.73036 2.72299,-0.85333 8.39634,-0.45454 7.55433,0.53101 11.94136,0.12775 11.94136,-1.09765 0,-0.32962 -1.93788,-1.50527 -4.30636,-2.61255 -4.8118,-2.24954 -8.16764,-4.64483 -8.16764,-5.82982 0,-0.43189 1.79359,0.1236 3.98561,1.23441 6.15791,3.12045 12.88148,4.77277 19.52713,4.79884 10.30901,0.0404 16.97537,-2.49949 23.24106,-8.85491 l 3.7743,-3.82839 -2.47127,-2.47128 c -2.23942,-2.23935 -2.44465,-2.89861 -2.18719,-7.02493 0.32823,-5.25983 0.42536,-5.18302 -7.48149,-5.91788 -7.83675,-0.72835 -14.08697,1.05667 -28.40895,8.11343 -14.83159,7.30787 -19.58294,8.97854 -26.56646,9.34135 -4.33538,0.22524 -12.46419,-0.63833 -9.78095,-1.03909 10.91309,-1.62994 19.59208,-4.68713 35.35481,-12.45376 5.62868,-2.77337 12.80572,-5.87081 15.94909,-6.88319 6.22877,-2.00609 7.50361,-3.6567 5.35592,-6.9345 -2.5605,-3.90779 -8.60407,-4.77371 -17.37429,-2.48936 -6.98211,1.81861 -13.42052,5.089 -26.11049,13.26282 -22.86709,14.72915 -32.2905,17.68641 -43.77141,13.73641 -2.65879,-0.91476 -5.17673,-1.6632 -5.59542,-1.6632 -0.4376,0 -0.51829,1.9446 -0.18979,4.5738 0.64445,5.158 -0.32157,5.98328 -2.71952,2.32332 -3.02167,-4.61196 -1.07205,-21.82896 3.14204,-27.7471 1.48892,-2.09099 6.50808,-4.66023 15.34189,-7.85327 8.50432,-3.07395 13.92528,-11.96281 8.01631,-13.1446 -3.42171,-0.68434 -7.60051,-4.46407 -7.60051,-6.87468 0,-1.96177 -0.15265,-2.00507 -7.0686,-2.00507 -6.31626,0 -7.0686,0.1633 -7.0686,1.53431 0,0.84387 0.74844,2.21164 1.6632,3.03949 0.91476,0.82785 1.6632,1.82139 1.6632,2.20789 0,1.57019 -1.90291,0.51536 -4.87298,-2.70119 -2.32981,-2.52317 -3.66378,-3.33005 -5.15564,-3.1185 -2.97971,0.42254 -2.85901,2.43921 0.39186,6.54734 1.59449,2.01495 2.76145,3.80116 2.59325,3.96936 -0.1682,0.1682 -1.59412,-0.30552 -3.16872,-1.05272 -2.93219,-1.39141 -4.75657,-4.1712 -4.75657,-7.24753 0,-1.52419 -0.35943,-1.67455 -2.9848,-1.2485 -5.6054,0.90963 -7.78646,4.54379 -5.70982,9.51388 0.70051,1.67657 1.87871,3.71687 2.61823,4.53403 0.73951,0.81715 1.08087,1.48574 0.75859,1.48574 -1.43065,0 -5.49057,-2.64518 -6.99455,-4.55719 -0.90663,-1.15259 -1.84427,-2.09561 -2.08365,-2.09561 -0.9359,0 -3.17436,7.53941 -5.14264,17.32115 -2.31709,11.51512 -4.13849,16.22952 -7.44466,19.26925 -2.01078,1.84873 -2.96738,2.07512 -8.63686,2.04404 -8.08042,-0.0443 -10.20343,-0.86359 -43.11606,-16.63885 -23.56644,-11.29556 -46.45084,-25.69504 -56.93154,-35.82285 -6.00322,-5.80109 -10.50053,-8.62594 -13.73295,-8.62594 -0.78614,0 -5.19524,1.77564 -9.79801,3.94588 -6.98772,3.29475 -9.16886,3.94657 -13.21783,3.9501 l -4.84916,0.004 0.53429,4.29541 c 0.64434,5.18017 -0.69878,10.74273 -2.93042,12.13642 -2.15869,1.34812 -2.05917,2.27844 0.24414,2.28234 2.88251,0.005 24.82492,5.32495 35.9667,8.72034 28.02781,8.54134 64.77896,25.76864 100.2078,46.97298 16.38957,9.80924 20.32497,11.96871 26.53448,14.56028 9.15786,3.82207 14.67027,4.42323 23.46528,2.55901 z M 80.220461,811.05845 c -0.724215,-4.94123 -2.979631,-10.11732 -5.310364,-12.18709 -1.754277,-1.55785 -1.786019,-1.55785 -1.909337,0 -0.256599,3.24145 0.320581,6.61991 1.546992,9.05524 1.188564,2.36017 5.120311,7.08195 5.897025,7.08195 0.195044,0 0.0941,-1.77755 -0.224316,-3.9501 z m 4.800594,-11.50455 c 0.824939,-1.08287 3.029344,-2.3807 4.898673,-2.88406 2.159092,-0.58138 5.056245,-2.48275 7.942911,-5.21284 3.922511,-3.70975 5.635251,-6.49752 12.520551,-20.37935 8.80327,-17.74872 12.37764,-22.60821 18.84429,-25.61948 5.75209,-2.67853 12.77475,-2.72304 15.1674,-0.0961 3.1722,3.48278 3.71,5.73254 4.43572,18.55608 0.67518,11.93023 1.9557,19.48962 3.30143,19.48962 0.31471,0 1.78925,-0.60715 3.27674,-1.3492 1.86342,-0.9296 3.81435,-1.19709 6.2731,-0.86007 3.41357,0.46788 3.65857,0.35311 5.64087,-2.64234 6.01937,-9.0959 8.89616,-17.39501 8.91195,-25.70969 0.009,-4.84631 -0.11655,-5.19572 -1.86123,-5.17106 -1.0291,0.0145 -2.58111,0.56389 -3.44891,1.22076 -1.75695,1.32992 -2.99599,0.95356 -2.99599,-0.91003 0,-0.67534 1.70795,-1.95999 3.79544,-2.85479 3.8783,-1.66244 4.29041,-3.30358 0.82957,-3.30358 -1.13201,0 -3.37538,1.40302 -5.42713,3.39419 -1.92362,1.86681 -3.67884,3.21283 -3.9005,2.99119 -0.59751,-0.59752 3.07099,-7.46608 4.61625,-8.64302 0.73358,-0.55873 2.36395,-1.02777 3.62306,-1.04232 2.24032,-0.0259 2.26631,-0.0827 1.21515,-2.65886 -2.42121,-5.9337 -7.15544,-5.33796 -15.04732,1.8935 -3.0277,2.77434 -5.50492,4.80909 -5.50492,4.52166 0,-2.76337 5.79947,-9.89302 10.70883,-13.16505 l 1.97702,-1.31766 -2.8591,-1.19461 c -2.58237,-1.07898 -8.99515,-7.47449 -8.99515,-8.97093 0,-0.33425 1.70729,-1.43421 3.79397,-2.44436 3.26273,-1.57946 4.80559,-1.78623 11.0187,-1.47668 6.3378,0.31575 8.12658,0.78473 14.57096,3.82017 10.00517,4.71265 25.30926,13.99114 55.85537,33.8637 14.17878,9.22437 29.14758,18.75671 33.264,21.183 4.11642,2.42628 8.22976,4.8692 9.14074,5.42872 1.40789,0.8647 2.08123,0.69324 4.48872,-1.14305 5.20903,-3.97311 6.68104,-11.65411 3.21044,-16.75212 -2.92575,-4.29768 -6.59556,-6.72758 -22.6611,-15.00463 -30.48741,-15.70728 -35.52121,-18.7456 -67.3596,-40.65711 -20.72156,-14.2608 -27.11189,-19.18286 -35.7588,-27.54267 -4.11642,-3.97975 -8.76152,-7.88252 -10.32244,-8.67283 -6.44878,-3.26507 -14.45801,0.74427 -35.88617,17.96423 -9.08589,7.30155 -21.973587,16.44011 -35.205424,24.96388 -11.480022,7.39528 -21.185268,13.72139 -21.567222,14.05804 -0.381946,0.33665 0.340623,2.24553 1.605728,4.24196 2.127466,3.35731 3.950716,12.36166 2.50305,12.36166 -0.293613,0 -1.849146,-2.77105 -3.456745,-6.15789 -3.80477,-8.01579 -4.520669,-8.58513 -7.556824,-6.00981 -1.308972,1.11028 -3.030284,3.13605 -3.825136,4.5017 l -1.445196,2.48299 2.426343,1.00502 c 2.200638,0.91154 5.037841,5.09154 5.037841,7.42217 0,1.55901 -1.059799,1.02853 -4.335605,-2.17021 -3.0187,-2.94769 -3.222467,-3.01884 -4.608868,-1.60934 -1.382344,1.40536 -1.303941,1.59322 1.667973,3.99629 3.1465,2.54424 4.085543,4.85508 1.972921,4.85508 -0.630062,0 -1.611433,-0.56133 -2.180821,-1.2474 -2.788388,-3.35981 -3.986915,-0.44677 -5.87567,14.28095 -1.302809,10.15881 0.759467,20.68969 3.512562,17.93659 1.411333,-1.41133 4.767089,-1.28791 7.768508,0.28571 l 2.4948,1.308 4.505667,-4.82846 c 3.465701,-3.71399 5.889416,-7.71197 10.500838,-17.32143 7.403186,-15.42703 9.513936,-18.32913 17.635757,-24.2477 3.543614,-2.58233 8.220483,-6.40604 10.393038,-8.49714 2.172555,-2.0911 3.950095,-3.33339 3.950095,-2.76063 0,2.15812 -3.323884,7.34318 -6.999971,10.91955 -4.062865,3.95265 -4.596004,5.02436 -2.499457,5.02436 0.721255,0 2.405245,1.09387 3.7422,2.43083 1.956438,1.95643 2.423665,3.13305 2.394076,6.0291 l -0.03676,3.59827 -1.61969,-3.06662 c -0.890835,-1.68664 -2.454443,-3.65129 -3.474683,-4.3659 -4.368968,-3.06015 -12.205484,-0.38225 -14.424759,4.92922 -1.765478,4.22537 -1.519449,5.39106 1.254935,5.94594 2.525219,0.50504 5.69226,3.243 4.792261,4.143 -0.278769,0.27877 -1.704456,0.0894 -3.168197,-0.42089 -4.092336,-1.4266 -5.296211,-1.13629 -6.298413,1.51887 -1.053554,2.79116 -0.86523,3.09908 2.84576,4.65288 1.486485,0.62239 2.7027,1.66006 2.7027,2.30593 0,0.96204 -0.596532,1.01507 -3.300196,0.29343 -1.815109,-0.48449 -3.507007,-0.67406 -3.759789,-0.42129 -0.636373,0.63638 -2.666708,12.46666 -3.37746,19.6797 -0.587983,5.96714 -0.587293,5.96993 1.486044,5.96993 2.892779,0 5.868236,2.58179 7.72766,6.70526 1.363957,3.02471 1.695175,3.30285 2.440447,2.04933 0.474261,-0.7977 1.537245,-2.33636 2.362184,-3.41924 z m 692.096975,0.0968 c 1.3437,-3.21608 1.62287,-10.06527 0.43992,-10.79636 -1.15351,-0.71291 -4.10969,3.49053 -4.71176,6.69968 -0.48183,2.56817 1.1792,6.98057 2.62777,6.98057 0.24149,0 0.98129,-1.29776 1.64407,-2.88389 z m -623.83755,-3.85895 c 2.1347,-1.87904 4.98383,-5.01894 6.33139,-6.97755 2.22924,-3.2401 2.31285,-3.59699 0.92751,-3.95927 -1.91245,-0.50012 -5.8938,1.15924 -7.72807,3.22093 -1.4015,1.57526 -4.84115,8.94294 -4.84115,10.36967 0,1.46563 1.4584,0.73682 5.31032,-2.65378 z m -96.866431,-1.97757 c -1.293812,-6.92543 -4.049194,-10.40639 -8.237256,-10.40639 -1.926435,0 -1.808173,1.40421 0.500714,5.94563 0.861704,1.6949 7.424367,8.19157 8.274778,8.19157 0.08732,0 -0.154894,-1.67887 -0.538236,-3.73081 z m 707.605371,-7.24631 c 0.54885,-0.54886 0.99792,-1.67152 0.99792,-2.4948 0,-1.15633 -0.66221,-1.49688 -2.9106,-1.49688 -2.67958,0 -2.9106,0.198 -2.9106,2.4948 0,2.04887 0.34187,2.4948 1.91268,2.4948 1.05197,0 2.36174,-0.44907 2.9106,-0.99792 z M 306.40821,759.988 c 6.32657,-5.10539 15.00095,-11.65424 19.2764,-14.553 4.27544,-2.89875 7.67072,-5.27554 7.54505,-5.28177 -0.12568,-0.006 -8.46134,-2.79612 -18.5237,-6.19976 l -18.2952,-6.18845 -4.9896,5.33099 c -2.74428,2.93205 -6.36619,7.54826 -8.04871,10.25825 l -3.05912,4.92725 3.30798,1.49168 c 6.20184,2.79664 9.86305,8.86967 9.87421,16.37886 0.002,1.71517 0.32081,3.1185 0.70724,3.1185 0.38643,0 5.87889,-4.17715 12.20545,-9.28255 z m 159.78931,3.33741 c 4.30549,-1.61089 4.43344,-1.75148 4.43344,-4.87128 0,-5.27289 -1.13969,-6.95341 -7.06623,-10.41938 -6.74609,-3.94526 -11.14729,-9.17295 -15.54097,-18.45932 l -3.23949,-6.84692 -13.46223,-29.74173 c -14.29951,-31.5915 -44.18357,-41.9385 -64.33915,-32.24351 -15.07488,7.25114 -21.74946,30.18449 -19.41797,46.17609 -0.31777,11.24999 20.18699,28.73761 26.46554,32.79918 7.96877,5.15497 19.22215,10.07126 36.83567,16.0925 29.49912,10.08437 43.41231,11.97387 55.33139,7.51437 z m 229.77373,-4.83366 c 1.54445,-0.97672 0.9679,-1.20859 -7.04531,-2.83341 -5.64935,-1.14551 -7.90018,-0.78458 -7.90018,1.26683 0,2.0282 12.19439,3.30641 14.94549,1.56658 z M 366.68096,740.54472 c 0,-0.24828 -2.0979,-2.0025 -4.26467,-3.97065 -4.27311,-3.88138 -5.8233,-7.24481 -12.37779,-21.01594 -7.08752,-14.89106 -5.20427,-38.25351 1.89312,-48.38769 13.24236,-18.90839 43.40465,-15.66887 52.1997,-14.63381 124.1706,12.76928 29.0018,-31.12974 -51.68218,-46.90825 -11.14813,-1.99073 -14.9189,-6.49821 -33.63474,-6.54294 -19.89448,-0.0476 -19.47763,-1.40136 -28.37266,0.76728 -10.68429,2.60483 -11.48692,5.20427 -18.63697,3.36405 -15.11071,-3.88906 -42.32998,-21.36423 -55.17013,-35.26089 -13.72561,-14.85496 -26.81496,-41.79788 -30.87369,-63.54994 -1.73577,-9.30259 -1.24715,-33.06563 0.88064,-42.8274 2.13906,-9.81355 6.70807,-22.72163 11.53664,-32.59263 l 4.43642,-9.06933 -2.51196,-1.29899 c -4.40387,-2.27734 -9.27618,-1.14885 -18.08912,4.18963 -4.30774,2.60945 -8.65576,4.95113 -9.66226,5.20375 -2.04422,0.51306 -2.16407,0.91425 -3.99984,13.38944 -2.31057,15.70164 -3.1843,36.27484 -2.17035,51.10417 2.31075,33.79585 8.10142,57.52255 21.82423,85.38325 15.32426,38.43903 52.69261,55.74607 49.37609,62.66575 l -1.54759,8.90574 c -3.81038,21.92722 15.50661,47.87008 46.13135,66.07238 19.04267,11.31831 43.93945,19.59751 71.41016,23.74683 11.62337,1.75565 13.3056,1.91574 13.3056,1.26619 z m -75.4677,-12.69375 c 0.80042,-0.68739 1.4553,-1.50911 1.4553,-1.82604 0,-0.31694 -2.71309,-1.92165 -6.0291,-3.56601 -7.4351,-3.68698 -15.74608,-9.18443 -23.80405,-15.74562 -5.64521,-4.59662 -6.00867,-4.7741 -4.5738,-2.23343 3.09572,5.4814 17.01785,18.60424 23.54995,22.19789 6.21261,3.41788 6.71495,3.48057 9.4017,1.17321 z m 201.0393,-43.06481 c 8.27284,-1.67987 28.13116,-1.63566 45.738,0.10182 15.0855,1.48867 34.74292,1.92519 41.04733,0.91152 3.98738,-0.64112 4.03423,-0.68427 3.52221,-3.24439 -1.25916,-6.29576 -4.92692,-8.62167 -17.95834,-11.38822 -15.80621,-3.35563 -14.92808,-3.8976 6.36199,-3.92653 24.08052,-0.0327 38.37316,-1.79181 53.6878,-6.60771 6.90969,-2.17285 10.75657,-4.83011 12.84828,-8.87502 1.2602,-2.43695 1.23616,-2.62248 -0.52439,-4.04809 -5.70038,-4.61588 -16.43717,-4.09858 -36.45657,1.7565 -14.2897,4.17932 -27.58273,6.26019 -28.67731,4.4891 -0.26799,-0.4336 9.21376,-3.31563 21.29446,-6.47256 39.29103,-10.26756 58.55556,-17.4792 72.567,-27.16529 9.60448,-6.63957 16.65255,-15.4228 19.01964,-23.70207 0.69193,-2.42012 -2.99865,-4.75267 -7.5197,-4.75267 -4.14525,0 -8.50585,2.41106 -16.1356,8.92167 -5.61165,4.78854 -12.73726,9.14717 -14.17212,8.66888 -0.45479,-0.15159 2.56212,-2.66758 6.70424,-5.5911 25.80131,-18.21056 39.27589,-40.87376 42.43489,-71.37213 0.51027,-4.92642 0.80366,-10.5494 0.65189,-12.49551 l -0.27592,-3.53839 -5.03784,2.38807 c -8.76512,4.15491 -13.56199,11.60618 -19.07905,29.6367 -1.67941,5.48856 -3.553,11.47608 -4.16353,13.3056 l -1.11005,3.3264 -0.0491,-4.158 c -0.0786,-6.64466 1.34599,-14.67848 5.6773,-32.0166 5.22918,-20.93227 6.15075,-27.01954 6.23194,-41.1642 0.0622,-10.83059 -0.0782,-11.93135 -2.01217,-15.78645 -1.83697,-3.66162 -6.81821,-8.02595 -7.91201,-6.93213 -1.62957,1.62957 -4.84405,48.90628 -4.10074,60.31139 0.55684,8.54426 -0.62011,7.98734 -2.5705,-1.21633 -1.64019,-7.73968 -1.5016,-20.72082 0.44602,-41.78188 2.67304,-28.90538 2.03307,-45.20269 -2.17812,-55.4677 -2.86839,-6.99185 -10.33489,-11.91447 -16.13825,-10.63985 -1.93419,0.42483 -2.61204,1.24728 -3.64014,4.4167 -2.57419,7.93576 -3.40729,15.62714 -3.40729,31.45712 0,15.38143 -0.0486,15.84587 -1.43835,13.72694 -2.51079,-3.82835 -3.39351,-10.59337 -2.81402,-21.56622 0.63866,-12.09297 1.16736,-14.86401 6.06388,-31.78138 3.58863,-12.39869 3.71684,-13.2225 3.36476,-21.6216 -0.4064,-9.69498 -1.9792,-14.80022 -5.38494,-17.47917 -3.06692,-2.41245 -5.08217,-2.03877 -8.5254,1.58082 -2.33658,2.45626 -3.70576,5.18888 -5.72432,11.42469 -2.44008,7.53794 -5.8082,23.50748 -7.22482,34.25561 -0.38289,2.90506 -0.86327,4.1372 -1.40267,3.59779 -0.50613,-0.50612 -0.65753,-5.70232 -0.39528,-13.56574 0.4799,-14.3894 1.89258,-20.64143 7.20167,-31.8722 3.64169,-7.70356 7.7297,-13.36202 18.03088,-24.95758 9.18744,-10.34188 13.01259,-15.53352 15.66829,-21.26558 1.91866,-4.14122 1.96554,-4.52849 0.64117,-5.29607 -0.78586,-0.45548 -3.67417,-0.83619 -6.41845,-0.84602 -6.80082,-0.0244 -12.21491,2.76441 -21.59463,11.12333 -4.1016,3.65521 -7.60873,6.49455 -7.79363,6.30965 -1.02336,-1.02336 5.20599,-9.63268 9.47857,-13.09996 8.0513,-6.53377 18.56904,-9.93497 45.68929,-14.77491 7.77546,-1.38763 16.00828,-3.1249 18.29518,-3.86061 5.50003,-1.76937 11.46244,-4.79316 12.92406,-6.55433 1.04723,-1.26181 0.87152,-1.67366 -1.59135,-3.72976 -9.94943,-8.30615 -32.00401,-8.33177 -62.68399,-0.0729 -4.91683,1.32359 -8.9397,2.23788 -8.9397,2.03175 0,-0.96169 14.43737,-6.97268 20.3742,-8.48278 13.97992,-3.55596 25.39927,-4.40617 55.2642,-4.11462 29.4033,0.28704 33.13203,-0.0668 36.17835,-3.43287 2.13804,-2.36257 1.09197,-5.29468 -3.54237,-9.92904 -7.0271,-7.02706 -25.37794,-13.10129 -42.22956,-13.97818 -11.1812,-0.58182 -14.74779,0.14904 -28.20702,5.78019 -11.78318,4.92991 -16.95255,6.43382 -22.0374,6.4113 -3.28412,-0.0146 -3.56454,-0.15145 -2.29086,-1.11841 0.79823,-0.606 8.36417,-3.3999 16.81321,-6.20867 19.2744,-6.40752 23.94894,-8.61389 29.08382,-13.7274 l 4.10511,-4.08809 -2.58095,-2.3061 c -3.87509,-3.4624 -9.72215,-4.39052 -20.65424,-3.27851 -11.1398,1.13315 -17.71854,2.49788 -28.29323,5.8693 -25.79809,8.22496 -53.4654,26.56434 -71.96285,47.70085 -7.10633,8.12018 -10.44537,13.87307 -15.65552,26.97309 -3.98041,10.00804 -6.62899,15.42655 -7.24126,14.81428 -0.68374,-0.68374 1.92831,-12.25561 3.88949,-17.23116 2.72032,-6.90151 7.1001,-15.30967 10.85484,-20.83877 6.23406,-9.18006 7.83275,-14.84073 5.74335,-20.33625 -0.79071,-2.07975 -1.0966,-2.19828 -4.3659,-1.6919 -14.58812,2.25956 -31.96831,21.90656 -38.08665,43.05412 -5.43612,18.78949 -1.09848,72.16029 8.67285,106.71174 1.55219,5.48856 6.04804,18.87845 9.99077,29.75532 14.53598,40.10064 17.98926,56.57971 17.98308,85.81526 -0.006,29.42487 -5.16783,49.14961 -17.84877,68.2079 -5.74261,8.63061 -7.5597,13.87753 -28.35539,23.69772 -67.84872,22.45695 -78.98747,45.35892 -26.1417,46.91641 z M 173.74976,422.7655 c 5.19032,-1.41925 11.76798,-4.76645 13.81789,-7.03157 1.13649,-1.2558 1.19226,-1.75215 0.31558,-2.80848 -0.58568,-0.70571 -0.88346,-1.46451 -0.66173,-1.68624 0.22172,-0.22173 5.98191,1.45845 12.8004,3.73371 15.64332,5.22003 22.49837,6.67809 34.25217,7.28539 l 9.3809,0.4847 -3.00076,-5.32233 c -7.27178,-12.89762 -13.24472,-22.43471 -13.52463,-21.59498 -0.42719,1.28157 3.85064,10.14034 8.46028,17.52005 2.54372,4.07229 3.52453,6.31713 2.82594,6.46788 -0.58845,0.12699 -4.80733,-0.71647 -9.37528,-1.87436 -9.98437,-2.53084 -23.30994,-8.90013 -34.91656,-16.68924 -10.3576,-6.9509 -12.0582,-8.49073 -12.0582,-10.91824 0,-2.4964 -1.30331,-2.46357 -7.96257,0.20055 -2.9346,1.17403 -6.36641,2.00936 -7.62623,1.85629 -2.22499,-0.27033 -2.174,-0.35451 1.78009,-2.93941 5.62876,-3.67967 11.59088,-5.51542 17.977,-5.53516 7.45129,-0.023 8.67758,0.9292 4.05428,3.14821 -5.27195,2.53034 -4.93476,4.43468 1.34083,7.57248 4.43856,2.21928 5.81617,2.4943 12.474,2.49026 6.63571,-0.004 8.0365,-0.2835 12.35319,-2.46448 9.34427,-4.72117 14.53664,-13.7458 13.61668,-23.6666 -0.4192,-4.52059 -4.62207,-18.39636 -5.54694,-18.31324 -0.25549,0.0229 -1.52807,2.28576 -2.82795,5.02845 -3.22949,6.81404 -7.18481,9.44942 -14.21126,9.46877 l -5.09617,0.014 0.0246,4.85201 c 0.0221,4.35775 -0.22568,5.06748 -2.43257,6.9673 -2.68814,2.31408 -0.96679,2.27161 -22.19602,0.54764 -7.43313,-0.60362 -12.9616,0.46937 -20.397,3.95877 -9.81577,4.60648 -16.0181,12.79672 -16.05412,21.19963 -0.0691,16.12188 12.94949,23.37063 32.41414,18.0482 z m 56.133,-9.9271 c -4.74816,-3.67147 -14.84803,-7.01466 -16.4256,-5.43709 -0.66325,0.66325 3.14911,2.4093 13.515,6.1898 0.68607,0.25021 1.99584,0.47257 2.9106,0.49414 l 1.6632,0.0392 z m -4.5738,-9.87082 c 0,-0.67682 -0.60088,-2.73234 -1.3353,-4.56784 l -1.33531,-3.33726 -2.38328,1.69705 c -1.31081,0.93337 -5.10701,2.24436 -8.436,2.9133 -9.34418,1.87763 -10.03059,2.07204 -9.43154,2.67109 0.3078,0.30779 4.93616,0.78926 10.28523,1.06992 5.34909,0.28066 10.38049,0.57196 11.1809,0.64731 0.80042,0.0753 1.4553,-0.41676 1.4553,-1.09357 z m -65.96458,-24.67116 c 2.58309,-0.90789 8.05998,-2.10123 12.17086,-2.65188 l 7.47433,-1.00119 -8.02967,-6.45838 c -4.41631,-3.55212 -9.58113,-8.40955 -11.47738,-10.7943 -3.86935,-4.86616 -7.81281,-12.78905 -8.62415,-17.32698 -0.50641,-2.83243 -0.37815,-3.06776 2.15295,-3.9501 5.71939,-1.99379 9.30839,-1.24242 19.47203,4.07659 5.27033,2.75816 9.58241,4.83619 9.58241,4.61784 0,-0.21835 -1.83534,-2.82182 -4.07854,-5.78549 -4.71049,-6.22342 -5.56897,-9.05424 -4.16598,-13.73703 1.182,-3.94515 0.34442,-5.47292 -3.99486,-7.28677 -3.7018,-1.54738 -5.77316,-1.40124 -7.71902,0.54462 -2.30082,2.30082 -2.10581,3.47086 1.2474,7.4844 1.60083,1.91606 2.9106,3.7927 2.9106,4.1703 0,0.3776 -2.25482,-0.4402 -5.01071,-1.81733 -8.11237,-4.0538 -15.79985,-2.96334 -17.15434,2.43335 -0.45659,1.81921 1.44118,13.04125 2.80759,16.60205 0.92192,2.40248 -2.98679,-0.47028 -4.42561,-3.25267 -1.77681,-3.43595 -2.40951,-11.05598 -1.26821,-15.27383 0.71291,-2.63464 1.5604,-3.68371 3.86289,-4.7817 1.62229,-0.77362 3.32317,-1.40657 3.77972,-1.40657 0.45655,0 2.1178,-0.53804 3.69167,-1.19565 l 2.86158,-1.19564 -2.22963,-4.83346 c -1.79871,-3.8993 -2.29438,-6.37847 -2.56463,-12.82758 -0.59436,-14.1831 2.64537,-21.43832 20.00973,-44.81098 11.37409,-15.30966 15.34384,-21.66202 17.68645,-28.30167 l 1.22923,-3.48403 -3.11396,0.55117 c -6.82969,1.20883 -11.61553,4.43768 -18.61829,12.56113 -3.69259,4.28353 -7.64398,8.39771 -8.78086,9.14263 -2.01944,1.32318 -2.05385,1.30965 -1.49266,-0.58726 3.77456,-12.75869 14.08424,-24.22652 33.26224,-36.99875 11.81198,-7.86659 32.08941,-18.83439 42.1603,-22.80396 10.33584,-4.07401 18.46744,-8.6507 23.26993,-13.09695 l 5.01542,-4.64339 -1.84305,-1.49241 c -2.5468,-2.06227 -11.95906,-1.98032 -20.39642,0.1776 -9.25236,2.36635 -16.90792,6.41143 -31.84529,16.82658 -16.07604,11.20909 -17.21239,11.8346 -13.0968,7.20922 8.23816,-9.2586 21.26708,-18.68576 39.56331,-28.62627 24.62843,-13.38085 34.66953,-19.36113 38.73284,-23.06849 4.32407,-3.94528 7.38491,-9.47584 6.50843,-11.75991 -1.85219,-4.82672 -18.39398,-5.16672 -31.71703,-0.6519 -14.28353,4.84028 -22.05393,9.70461 -45.60489,28.549 -17.46691,13.97621 -22.31463,17.35284 -24.83886,17.30124 -1.31714,-0.0269 -0.29202,-1.37659 4.47715,-5.89457 7.29979,-6.91531 42.97973,-32.5467 53.64763,-38.53882 4.09323,-2.29916 9.1452,-5.86428 11.2266,-7.92249 l 3.78433,-3.7422 -4.158,-0.48395 c -6.01214,-0.69975 -17.38766,0.5349 -24.1164,2.61748 -14.27306,4.41761 -25.27086,12.03392 -46.1538,31.96292 -12.01291,11.46417 -25.51294,22.58041 -26.3753,21.71804 -0.59518,-0.59517 5.32968,-9.534 10.53737,-15.89769 9.28283,-11.34347 13.09482,-18.57814 14.57872,-27.66857 l 0.57985,-3.55217 -4.27522,1.68513 c -6.60832,2.60477 -10.03417,4.51716 -15.63755,8.7293 -14.87697,11.18322 -25.34893,30.77413 -33.56972,62.80211 -1.81967,7.0894 -3.48417,13.41114 -3.69889,14.04833 -1.13828,3.37786 -1.59866,-1.87263 -1.59866,-18.23247 0,-21.0063 -0.44217,-22.57057 -4.54955,-16.09514 -10.18018,16.04931 -10.39306,47.78232 -0.52225,77.84856 1.54257,4.69861 2.67089,8.68784 2.5074,8.86496 -0.82629,0.89515 -5.45994,-5.56292 -6.97233,-9.71754 -3.09469,-8.50129 -4.44511,-11.05 -6.98897,-13.19051 l -2.504688,-2.10756 -0.796673,1.95179 c -0.438178,1.07348 -0.770502,5.31977 -0.73851,9.43619 0.07135,9.18494 2.215366,17.7992 7.192021,28.89682 2.00014,4.46016 3.30541,8.10938 2.90059,8.10938 -0.40481,0 -2.80216,-1.8711 -5.32744,-4.158 -2.525265,-2.2869 -5.013786,-4.158 -5.530035,-4.158 -1.442203,0 -0.266836,7.6149 1.801004,11.66819 2.540347,4.97951 7.237821,9.77433 18.395551,18.7768 16.46906,13.28784 19.69253,19.11546 24.78869,44.81481 2.57719,12.99643 5.29018,23.51773 6.79923,26.36812 0.67885,1.28228 1.11526,1.17484 4.49604,-1.10682 2.05932,-1.38981 5.85765,-3.26975 8.44074,-4.17763 z m 40.18498,-7.86845 c 0,-4.22065 -1.7347,-6.96563 -8.07628,-12.77982 -10.72058,-9.82904 -26.38232,-19.15489 -32.13286,-19.13367 -5.76678,0.0213 -5.96847,0.62501 -2.47653,7.41334 3.70557,7.20362 10.89793,15.19574 20.04371,22.27252 6.53361,5.05554 6.68778,5.12297 7.18484,3.1425 1.14902,-4.57809 7.03981,-4.3908 11.80596,0.37535 2.85946,2.85944 3.65116,2.57968 3.65116,-1.29022 z m 38.1547,-11.21859 c 0.99365,-4.5757 -0.45448,-9.34661 -4.091,-13.47791 -2.99668,-3.40441 -8.2841,-6.46373 -8.2841,-4.79322 0,0.37773 0.60733,2.13581 1.34962,3.90684 0.74228,1.77103 2.20187,6.02671 3.24354,9.45706 1.04165,3.43035 2.32162,7.33306 2.84438,8.6727 l 0.95045,2.43571 1.68647,-1.68647 c 0.92756,-0.92756 1.96285,-2.95918 2.30064,-4.51471 z m -17.34879,-7.04302 c 0.90715,-3.24006 0.89246,-3.95837 -0.0938,-4.58274 -1.34924,-0.85417 -5.67369,-0.96547 -9.96006,-0.25632 l -2.96933,0.49125 2.36147,6.67324 c 1.29881,3.67029 2.60612,7.06909 2.90513,7.5529 0.91639,1.48275 6.60351,-5.76005 7.75656,-9.87833 z m -16.5794,3.79899 h 3.30061 l -1.38151,-2.7027 c -2.89335,-5.66041 -9.93518,-15.0371 -13.89257,-18.49892 -4.11332,-3.59824 -10.05461,-7.18844 -13.74883,-8.30817 -1.7531,-0.53136 -1.89271,-0.39191 -1.3628,1.36119 1.97432,6.53161 5.33766,11.73211 14.50961,22.43518 3.67271,4.28582 6.67949,8.15635 6.68173,8.60116 0.002,0.44479 0.58661,-0.023 1.29861,-1.0395 0.968,-1.38203 2.12712,-1.84824 4.59515,-1.84824 z"
       id="path3904"
       inkscape:connector-curvature="0"
       sodipodi:nodetypes="csssscsscsccssscssccssccccsccssccccscsscssssscssscccsssscssccssssssscssscccsssscssscsssscccsssccscsscscsssssssccccscssssssssscssssscssccssssscssscssccccsccscsssscscccsscscscsccscsccccccsssssssccssssscssccsssssssscccsscscscccscscccssccccsccssscsscsccccccssccsscscsscscssssssssscscscccssssccssssccsccsssccccccscccssssssccsccsssssccccssccssccsscsscssscssccsccccsssccscsscccsccscscccccscsscssccssccccccscsscssssscsssssssscccscsccccscsssscsscsssccscsssscccccsssscsscssccsssscscccsccsssscsscscsscsscccccsssccscccccsscsscssscscscsssccssssscccssssccsscsscccsssssscccssscscccccccsscccscsssccssscccccsccccssscccscccccscccccccssscssscsssccsssccsscsscccsscccscssssccsssssssscscccssssssccsscscccscccccscscssccssscssscscssccccccscscsssscsccssccs" />
    <path
       style="display:inline;fill:#ffcc00;stroke-width:0.80870354"
       d="m 153.31814,422.73164 c -3.63658,-1.34762 -7.90208,-5.11259 -9.67373,-8.53857 -0.62669,-1.2119 -1.37292,-4.18994 -1.65827,-6.61789 -1.13569,-9.66287 4.1985,-17.75439 15.30791,-23.22081 8.81044,-4.33521 13.38353,-5.08281 24.87177,-4.066 13.76102,1.21796 15.69285,1.11175 18.14504,-0.99753 1.73859,-1.49547 2.20941,-2.74818 2.58352,-6.87398 l 0.45749,-5.04523 4.53773,-0.003 c 3.19765,-0.002 5.36938,-0.51001 7.35389,-1.71977 3.37148,-2.05527 4.26334,-3.11731 6.9957,-8.3305 1.60693,-3.0659 2.2486,-3.70501 2.77517,-2.76408 1.40778,2.51554 4.80009,15.53467 4.80009,18.42196 0,8.46376 -5.7881,17.36892 -13.92469,21.42356 -3.59955,1.79374 -5.2404,2.08515 -11.74047,2.08515 -7.6891,0 -11.88254,-1.24027 -15.7809,-4.66743 -2.04581,-1.79853 -1.79339,-2.3851 1.81959,-4.22831 1.77914,-0.90765 3.23481,-1.99986 3.23481,-2.42713 0,-1.31355 -3.94946,-1.85885 -9.86886,-1.36259 -5.87803,0.49279 -13.66398,3.53172 -17.62706,6.88001 l -2.02176,1.70813 2.90603,0.0269 c 1.59832,0.0148 5.02153,-0.70093 7.60711,-1.5905 6.13443,-2.11055 6.80667,-2.05187 7.75801,0.67715 1.23241,3.53529 14.08474,12.42869 28.26458,19.55817 11.66888,5.867 28.26934,10.53316 28.26934,7.94611 0,-0.61354 -1.49011,-3.65717 -3.31136,-6.76362 -4.60555,-7.85555 -6.57356,-11.80245 -6.11406,-12.26195 0.36556,-0.36557 9.07188,13.80027 12.20305,19.85528 l 1.40178,2.71076 -7.54844,-0.54178 c -11.33562,-0.8136 -19.66067,-2.52729 -33.79112,-6.95582 -7.0315,-2.20369 -13.16986,-4.00671 -13.64079,-4.00671 -0.47092,0 -0.78771,0.97421 -0.70398,2.1649 0.46787,6.65275 -23.47632,13.38307 -33.88712,9.52512 z"
       id="path3920"
       inkscape:connector-curvature="0" />
    <path
       style="display:inline;fill:#ffcc00;stroke-width:0.80870354"
       d="m 212.15888,359.99785 c -0.39265,-1.05947 -1.50645,-4.06668 -2.47511,-6.68271 -0.96866,-2.61601 -1.59519,-4.92239 -1.39229,-5.12529 0.95119,-0.95118 10.24908,-1.19405 11.33119,-0.29597 1.932,1.60341 -1.02561,8.8499 -5.12692,12.56153 -1.57827,1.42832 -1.64261,1.41572 -2.33687,-0.45756 z"
       id="path3924"
       inkscape:connector-curvature="0" />
    <path
       style="display:inline;fill:#ffcc00;stroke-width:0.80870354"
       d="m 233.54674,363.47879 c -0.72625,-1.1751 -7.70871,-22.32234 -7.45442,-22.57663 0.5368,-0.53681 5.78015,3.65309 7.95619,6.3577 2.92987,3.64157 4.05737,8.19081 3.00696,12.13271 -0.82808,3.10759 -2.73851,5.33245 -3.50873,4.08622 z"
       id="path3926"
       inkscape:connector-curvature="0" />
    <path
       style="display:inline;fill:#ff2a2a;stroke-width:0.10108794"
       d="m 205.49858,553.45374 c -7.34897,-11.60328 -13.67341,-25.56917 -17.82329,-39.35821 -1.62909,-5.41304 -2.23494,-8.41964 -2.41306,-11.97496 l -0.0532,-1.06142 0.14869,1.06142 c 0.24982,1.78322 0.53224,3.27564 1.11147,5.87321 3.25123,14.58037 10.49394,31.72751 19.21726,45.49691 0.4207,0.66406 0.74222,1.23007 0.7145,1.2578 -0.0277,0.0277 -0.43381,-0.55491 -0.90239,-1.29475 z"
       id="path3956"
       inkscape:connector-curvature="0" />
    <path
       style="display:inline;fill:#ff2a2a;stroke-width:0.17645879"
       d="m 555.02759,331.49099 c 0.11322,-0.49989 3.76591,-9.43851 4.97702,-12.17945 3.79717,-8.59362 7.27401,-13.99664 13.55287,-21.06127 18.0792,-20.34174 44.53903,-37.97332 69.55562,-46.34862 10.85602,-3.63448 18.34163,-5.24267 29.998,-6.44471 4.18843,-0.43192 10.31111,-0.52216 12.35211,-0.18205 4.17476,0.69568 6.06652,1.57279 9.0467,4.1945 0.84745,0.74552 1.57524,1.38216 1.61729,1.41476 0.0421,0.0326 -0.007,0.14228 -0.10797,0.24372 -0.12828,0.12827 -0.66381,-0.23816 -1.75874,-1.20339 -2.64736,-2.33379 -4.19348,-3.2192 -6.82507,-3.90848 -4.26161,-1.11621 -11.61567,-0.90679 -21.38268,0.60894 -27.29517,4.2359 -54.91631,17.67163 -78.34771,38.11061 -3.99657,3.48619 -12.37402,11.89526 -15.02435,15.08109 -6.89324,8.28598 -10.24448,14.10869 -15.53336,26.98883 -1.77777,4.32945 -2.30109,5.48621 -2.11973,4.68552 z"
       id="path4004"
       inkscape:connector-curvature="0" />
    <path
       style="display:inline;fill:#ff2a2a;stroke-width:0.17645879"
       d="m 661.03838,269.21577 c 0.0404,-0.0404 2.3366,-0.86531 5.10259,-1.8331 15.33319,-5.36489 19.33438,-7.2527 24.66686,-11.63807 1.10702,-0.9104 2.04853,-1.6195 2.09225,-1.57578 0.11839,0.11839 -2.7766,2.71356 -4.26923,3.82709 -3.72888,2.78178 -8.95441,5.05039 -21.39936,9.29024 -5.3289,1.8155 -6.41862,2.15502 -6.19311,1.92962 z"
       id="path4008"
       inkscape:connector-curvature="0" />
    <path
       style="display:inline;fill:#ff2a2a;stroke-width:0.17645879"
       d="m 690.66874,290.98208 c 1.69842,-0.0746 12.02126,-0.2182 22.93964,-0.3192 19.5086,-0.18046 23.74313,-0.3134 26.20413,-0.82265 3.13158,-0.648 5.20014,-2.52326 5.20456,-4.7182 0.004,-2.15408 -2.94793,-6.10936 -6.558,-8.78607 -8.12546,-6.02466 -23.30004,-10.70914 -38.87432,-12.00075 -3.23568,-0.26833 -9.53526,-0.1222 -11.65112,0.27027 -4.2096,0.78085 -8.68744,2.16971 -15.94021,4.94403 -2.45871,0.9405 -4.50613,1.67427 -4.54981,1.63059 -0.13626,-0.13627 9.57229,-4.01593 12.72584,-5.08542 4.83762,-1.64062 8.60717,-2.27649 13.48562,-2.27481 17.52064,0.006 37.58004,5.72454 46.35027,13.21357 2.23336,1.9071 4.55304,4.83212 5.21619,6.57738 0.67707,1.78192 0.33046,3.10411 -1.20386,4.59224 -1.49793,1.45282 -3.0735,2.03063 -6.9645,2.5541 -1.9312,0.25982 -4.89454,0.29733 -25.82698,0.32699 -13.00501,0.0184 -22.25586,-0.0275 -20.55745,-0.10207 z"
       id="path4012"
       inkscape:connector-curvature="0" />
    <path
       style="display:inline;fill:#ff2a2a;stroke-width:0.17645879"
       d="m 671.43474,316.37335 c 14.7005,-3.04417 20.15638,-4.3553 24.88069,-5.97921 3.84668,-1.32224 4.12073,-1.38683 2.47041,-0.58229 -4.45891,2.17377 -9.11102,3.36923 -23.57004,6.05685 -4.67235,0.86849 -7.10775,1.19354 -3.78106,0.50465 z"
       id="path4016"
       inkscape:connector-curvature="0" />
    <path
       style="display:inline;fill:#ff2a2a;stroke-width:0.17645879"
       d="m 562.73612,305.22197 c 0,-0.0745 1.02148,-1.82612 2.26995,-3.89246 2.6324,-4.35687 4.00816,-7.08582 4.86657,-9.65325 1.16534,-3.48544 1.22479,-5.39669 0.26805,-8.61724 -0.57789,-1.94524 -0.57807,-2.51716 -3.7e-4,-1.16943 1.70102,3.9683 1.2743,8.30218 -1.33572,13.566 -1.22616,2.47293 -1.52927,2.99203 -3.83442,6.56678 -1.98223,3.074 -2.23406,3.43467 -2.23406,3.1996 z"
       id="path4054"
       inkscape:connector-curvature="0" />
    <path
       style="display:inline;fill:#ff2a2a;stroke-width:0.17645879"
       d="m 665.37402,517.33643 c 0.1325,-7.19691 0.56165,-16.28801 1.30361,-27.61581 0.19389,-2.9601 0.38646,-5.5408 0.42793,-5.7349 0.11538,-0.53994 -0.0435,2.92045 -0.42949,9.35231 -0.19219,3.20272 -0.54938,10.42871 -0.79377,16.05775 -0.52402,12.06987 -0.60864,13.39186 -0.50828,7.94065 z"
       id="path4056"
       inkscape:connector-curvature="0" />
    <path
       style="display:inline;fill:#ff2a2a;stroke-width:0.17645879"
       d="m 652.02427,604.69692 c 0,-0.0412 1.36976,-1.12684 3.04392,-2.41264 10.08412,-7.74487 16.73991,-14.22787 22.53717,-21.95207 11.19615,-14.91763 16.90465,-31.63038 18.5337,-54.26107 0.10828,-1.50432 0.26062,-3.56888 0.33853,-4.58793 l 0.14164,-1.85282 0.024,1.58813 c 0.0287,1.90322 -0.22212,6.15433 -0.5986,10.14637 -2.59631,27.53054 -13.51925,48.66969 -34.06834,65.9325 -2.2105,1.85698 -5.41179,4.33408 -8.14182,6.3 -1.54745,1.11433 -1.81012,1.27389 -1.81012,1.09953 z"
       id="path4066"
       inkscape:connector-curvature="0" />
    <path
       style="display:inline;fill:#ff2a2a;stroke-width:0.17645879"
       d="m 624.01479,645.23499 c 0.17169,-0.0447 0.40991,-0.0418 0.52938,0.007 0.11947,0.0483 -0.021,0.0849 -0.31216,0.0813 -0.29116,-0.003 -0.38891,-0.0432 -0.21722,-0.0879 z"
       id="path4080"
       inkscape:connector-curvature="0" />
    <path
       style="display:inline;fill:#ff2a2a;stroke-width:0.08822939"
       d="m 131.06165,329.34357 c -0.15657,-0.27666 -0.53746,-0.89485 -0.84639,-1.37375 -0.30895,-0.47891 -0.54483,-0.88763 -0.52418,-0.90829 0.0644,-0.0644 1.91192,2.48457 1.91192,2.63772 0,0.0269 -0.0578,0.071 -0.12834,0.0981 -0.0878,0.0337 -0.21816,-0.10947 -0.41301,-0.45376 z"
       id="path4116"
       inkscape:connector-curvature="0" />
    <path
       style="display:inline;fill:#ffcc00;fill-opacity:1;stroke-width:0.08822939"
       d="m 212.75002,362.12551 c -0.33454,-0.25175 -1.25856,-2.64915 -4.00121,-10.38122 -0.74716,-2.10638 -1.34294,-3.84531 -1.32395,-3.86429 0.067,-0.067 3.64583,-0.64255 4.90803,-0.78924 1.76796,-0.20547 5.03741,-0.20801 6.14782,-0.005 1.62495,0.29741 2.33175,0.75658 2.45772,1.59661 0.11294,0.75313 -0.54405,3.45322 -1.21086,4.97643 -1.71585,3.9195 -6.04287,9.16985 -6.97755,8.46648 z m 0.61182,-0.70938 c 0.46584,-0.26166 1.71034,-1.42321 2.47805,-2.31289 1.91175,-2.21545 3.49302,-5.13819 4.17675,-7.72007 0.14174,-0.53526 0.20062,-1.01517 0.20569,-1.67636 0.007,-0.83289 -0.0151,-0.9657 -0.21348,-1.31563 -0.12132,-0.21407 -0.31984,-0.4624 -0.44115,-0.55186 -0.4132,-0.30469 -1.41903,-0.43309 -3.81666,-0.48722 -3.83434,-0.0866 -7.17743,0.29562 -7.47667,0.85474 -0.24582,0.45934 0.37332,2.43048 2.89608,9.22004 1.34499,3.61981 1.37803,3.70066 1.60562,3.92824 0.19971,0.19972 0.31709,0.21194 0.58577,0.061 z"
       id="path4122"
       inkscape:connector-curvature="0" />
    <path
       style="display:inline;fill:#ffcc00;fill-opacity:1;stroke-width:0.08822939"
       d="m 199.7602,396.9939 c -2.81934,-0.17403 -4.41271,-0.61834 -7.43072,-2.07204 -1.82867,-0.88083 -3.3928,-1.79358 -4.27218,-2.49304 -2.37626,-1.89008 -1.78365,-3.313 2.21189,-5.31092 2.04107,-1.02063 2.77758,-1.60188 2.72435,-2.15009 -0.0226,-0.23257 -0.0945,-0.31152 -0.43959,-0.48278 -0.61696,-0.30617 -1.56613,-0.44213 -3.90097,-0.55881 -3.07362,-0.15358 -5.90439,0.0295 -8.50516,0.55016 -0.49926,0.0999 -0.95268,0.16673 -1.00761,0.14842 -0.14108,-0.047 1.99082,-0.47872 3.15057,-0.63797 1.47557,-0.20262 3.26049,-0.31095 5.13001,-0.31134 3.78324,-8.1e-4 5.94278,0.53056 5.94278,1.46226 0,0.44451 -1.29996,1.40629 -3.47026,2.5675 -3.05289,1.63343 -3.39702,2.19462 -2.158,3.51915 1.05286,1.1255 2.73533,2.33641 4.42883,3.18753 3.28484,1.65088 7.67472,2.2671 14.65767,2.05756 4.49534,-0.1349 5.95459,-0.46906 9.15191,-2.09573 2.49899,-1.2714 4.44392,-2.70029 6.50555,-4.77948 4.0629,-4.09753 6.59402,-9.13646 7.23273,-14.39892 0.12153,-1.00123 0.12491,-2.78057 0.007,-3.60766 -0.61417,-4.30306 -3.31666,-14.26932 -4.55459,-16.79647 -0.61159,-1.24851 -1.15509,-0.81067 -2.81907,2.27105 -1.90924,3.53593 -2.59544,4.64955 -3.54406,5.75162 -0.48253,0.56059 -1.68183,1.62722 -1.82962,1.62722 -0.0341,0 0.33216,-0.38711 0.81389,-0.86024 1.57502,-1.54687 2.47619,-2.91189 4.20911,-6.37559 1.2187,-2.4359 1.81827,-3.5375 2.24795,-4.13017 0.33588,-0.46328 0.411,-0.42546 0.83761,0.42168 1.42932,2.83823 4.27978,12.73227 4.90695,17.03215 0.1666,1.1422 0.14215,4.41002 -0.0426,5.6908 -0.39113,2.71183 -1.068,4.92664 -2.21099,7.23481 -2.57604,5.20204 -6.72377,9.07274 -12.68542,11.83814 -2.41424,1.11989 -4.08091,1.5349 -6.83389,1.70169 -1.65751,0.10042 -6.82397,0.10012 -8.45394,-5.3e-4 z"
       id="path4124"
       inkscape:connector-curvature="0" />
    <path
       style="display:inline;fill:#ffcc00;fill-opacity:1;stroke-width:0.08822939"
       d="m 233.06986,363.67536 c -0.7603,-1.96406 -1.54546,-4.31143 -2.99016,-8.93948 -1.26688,-4.05844 -2.28367,-7.06195 -3.12126,-9.21997 -1.54416,-3.97849 -1.74049,-4.64341 -1.44371,-4.88971 0.3937,-0.32674 2.00999,0.30355 3.75821,1.46556 4.42225,2.93941 7.39297,7.02611 8.40157,11.5577 0.16263,0.73069 0.19334,1.14819 0.19674,2.67455 0.006,2.45699 -0.22225,3.47998 -1.20137,5.39675 -0.54172,1.0605 -1.05791,1.73901 -2.1247,2.79279 l -0.83253,0.82236 z m 1.74622,-0.1257 c 0.75674,-0.5565 1.71358,-2.23942 2.17693,-3.82882 1.18222,-4.05529 0.0779,-8.75929 -2.93082,-12.48445 -0.63694,-0.7886 -2.48968,-2.63252 -3.59816,-3.58102 -1.70725,-1.46085 -3.78118,-2.85973 -4.23976,-2.85973 -0.20744,0 -0.15359,0.41384 0.22015,1.69196 1.34017,4.58305 5.75971,17.83664 6.78641,20.35145 0.14545,0.35628 0.33301,0.72354 0.4168,0.81613 0.23866,0.2637 0.72627,0.21966 1.16845,-0.10552 z"
       id="path4126"
       inkscape:connector-curvature="0" />
    <path
       style="display:inline;fill:#ffcc00;fill-opacity:1;stroke-width:0.08822939"
       d="m 203.164,369.06581 c 0.004,-0.10278 0.0251,-0.12369 0.0533,-0.0533 0.0255,0.0637 0.0224,0.13979 -0.007,0.16911 -0.0293,0.0294 -0.0501,-0.0228 -0.0463,-0.1158 z"
       id="path4128"
       inkscape:connector-curvature="0" />
    <path
       style="display:inline;fill:#ffcc00;fill-opacity:1;stroke-width:0.08822939"
       d="m 198.56819,380.25161 c 0.46745,-0.31872 2.04137,-1.72305 2.53541,-2.26221 0.28538,-0.31144 0.62864,-0.79043 0.76279,-1.06441 0.48433,-0.98911 0.51797,-1.3283 0.56069,-5.65395 l 0.0393,-3.97818 3.37528,-0.0571 c 4.47665,-0.0757 6.01459,-0.28396 8.02052,-1.08611 0.42863,-0.17141 0.79664,-0.29434 0.81779,-0.27319 0.0713,0.0713 -1.35675,0.67717 -2.1131,0.89635 -1.46552,0.4247 -2.33438,0.5065 -5.89889,0.5554 l -3.32684,0.0457 -0.0484,0.36437 c -0.0266,0.20041 -0.14951,1.49592 -0.27312,2.87892 -0.42766,4.78457 -0.67623,6.0278 -1.44109,7.20766 -0.42868,0.66126 -1.62744,1.78488 -2.38341,2.234 -0.58096,0.34514 -1.07172,0.49604 -0.62694,0.19277 z"
       id="path4130"
       inkscape:connector-curvature="0" />
    <path
       style="display:inline;fill:#ffcc00;fill-opacity:1;stroke-width:0.08822939"
       d="m 171.30622,391.54613 c 0.55805,-0.16548 1.64989,-0.5436 2.42631,-0.84026 4.6004,-1.75779 5.80144,-2.1334 6.85832,-2.14491 0.99272,-0.0108 1.33397,0.39742 1.42662,1.70661 l 0.0531,0.74995 -0.25719,-0.48935 c -0.85712,-1.63086 -1.68175,-1.62616 -6.76877,0.0386 -2.18537,0.71516 -4.25459,1.29384 -4.59344,1.28461 -0.0878,-0.002 0.29702,-0.13974 0.85508,-0.30522 z"
       id="path4132"
       inkscape:connector-curvature="0" />
    <path
       style="display:inline;fill:#ffcc00;fill-opacity:1;stroke-width:0.08822939"
       d="m 159.35113,424.35738 c -5.47369,-0.55386 -9.53259,-2.23803 -12.60417,-5.22988 -2.76457,-2.69281 -4.43593,-6.11644 -5.09511,-10.43688 -0.22711,-1.48857 -0.31989,-4.44746 -0.178,-5.67686 0.35833,-3.10481 1.53446,-6.26228 3.35107,-8.99644 2.96761,-4.46649 7.55399,-8.19402 13.24689,-10.76625 5.36172,-2.4226 9.36462,-3.48094 14.20493,-3.75572 2.00472,-0.1138 3.22005,-0.0653 8.11711,0.324 11.52037,0.91582 12.78085,1.00166 14.95488,1.01843 1.35469,0.0105 1.44011,0.0197 0.88229,0.096 -0.82575,0.11288 -5.47161,0.0234 -7.63184,-0.14699 -0.94626,-0.0747 -3.36815,-0.27372 -5.38199,-0.44242 -5.01579,-0.42017 -7.14774,-0.52112 -9.70524,-0.45956 -3.69592,0.089 -6.25547,0.50769 -9.34098,1.52815 -3.20346,1.05945 -7.68006,3.16133 -10.66324,5.00665 -3.73436,2.30998 -6.95464,5.4273 -8.89682,8.61236 -1.27193,2.08589 -2.06526,4.21237 -2.56743,6.88189 -0.22855,1.21497 -0.22924,5.01833 -8.3e-4,6.39663 0.46016,2.78081 1.12252,5.10613 1.7888,6.27986 1.65933,2.92311 5.14791,6.12742 8.32932,7.65061 1.23503,0.5913 2.09543,0.87697 3.48506,1.15713 1.93158,0.38941 2.58827,0.44071 5.55846,0.43426 3.02236,-0.007 4.46927,-0.12724 7.41127,-0.61805 8.20554,-1.3689 15.59732,-4.54631 17.81889,-7.65957 0.68837,-0.96465 0.78708,-1.34079 0.83486,-3.18136 l 0.007,-0.26035 0.24263,0.36314 c 0.13346,0.19973 0.37713,0.55035 0.54151,0.77915 0.61517,0.85625 0.45506,1.43769 -0.72295,2.62543 -1.15376,1.16329 -3.23329,2.50032 -6.04803,3.88856 -4.03211,1.98866 -7.54376,3.14859 -12.04243,3.97771 -2.58597,0.4766 -3.88701,0.5954 -6.8073,0.62157 -1.50431,0.0135 -2.89393,0.008 -3.08803,-0.0112 z"
       id="path4134"
       inkscape:connector-curvature="0" />
    <path
       style="display:inline;fill:#ffcc00;fill-opacity:1;stroke-width:0.08822939"
       d="m 243.08083,422.66881 c -0.24263,-0.0126 -2.76378,-0.14282 -5.60256,-0.28919 -8.91787,-0.45983 -12.66078,-0.84603 -17.51354,-1.80712 -5.30818,-1.05128 -9.59439,-2.26197 -19.70277,-5.56522 -6.36338,-2.07945 -10.99594,-3.48334 -12.21421,-3.7015 -0.46649,-0.0835 -0.42671,-0.2533 0.0442,-0.18822 0.7344,0.1015 5.43227,1.48346 12.94767,3.80877 13.8339,4.28031 21.25381,5.91587 31.01263,6.8361 2.26895,0.21395 10.59928,0.81858 10.75364,0.78051 0.19036,-0.0469 -2.34516,-4.80787 -4.73366,-8.88835 -2.46803,-4.21637 -5.30095,-8.82713 -6.88844,-11.21136 -1.64902,-2.47666 -2.08738,-2.94026 -1.96993,-2.08338 0.15337,1.11894 1.86969,4.48878 5.38483,10.57262 0.79296,1.37243 1.70759,2.97999 2.0325,3.57238 0.7157,1.30488 1.73021,3.39922 1.72748,3.56619 -8.4e-4,0.0666 -0.31077,-0.47441 -0.68817,-1.2023 -0.3774,-0.7279 -0.74936,-1.42271 -0.82658,-1.54402 -0.63994,-1.00535 -3.07066,-5.07353 -3.8068,-6.37126 -2.53785,-4.47391 -4.67137,-8.85685 -5.52531,-11.35078 -0.30883,-0.90193 -0.44741,-1.77666 -0.28147,-1.77666 0.24165,0 1.94596,2.41012 3.89946,5.51434 2.1015,3.33942 5.57364,9.2152 8.70683,14.73431 2.50471,4.41205 3.73256,6.60026 3.7084,6.60895 -0.0126,0.004 -0.22147,-0.002 -0.46411,-0.0148 z"
       id="path4140"
       inkscape:connector-curvature="0" />
    <path
       style="display:inline;fill:#ffcc00;fill-opacity:1;stroke-width:0.08822939"
       d="m 235.40488,419.58684 c -4.74149,-0.6213 -13.21382,-3.30429 -20.52865,-6.50096 -7.13931,-3.11998 -17.34004,-8.91087 -24.15954,-13.71524 -2.13848,-1.50657 -4.82285,-3.6038 -4.73067,-3.69597 0.0228,-0.0228 0.43149,0.25241 0.90821,0.61157 1.82473,1.37474 6.89157,4.83245 9.82206,6.70277 6.85111,4.37255 13.97147,8.13772 20.91616,11.0602 5.7055,2.40102 10.54366,3.88656 17.07744,5.24362 1.40226,0.29124 1.72911,0.42952 0.69499,0.29401 z"
       id="path4144"
       inkscape:connector-curvature="0" />
    <path
       style="display:inline;fill:#ff2a2a;fill-opacity:1;stroke-width:0.08822939"
       d="m 165.01125,391.49694 c 2.07526,-1.76319 3.23876,-2.54438 5.5009,-3.69344 1.53504,-0.77972 3.66797,-1.70997 3.81122,-1.66222 0.0518,0.0173 -0.17909,0.14558 -0.51304,0.28516 -1.06831,0.44651 -3.21989,1.54922 -4.35693,2.23297 -1.59888,0.96149 -3.87725,2.51321 -4.23287,2.88288 -0.37557,0.39043 -0.30785,0.57167 0.27102,0.7254 0.36526,0.097 0.33116,0.10362 -0.56853,0.11028 l -0.95709,0.007 z"
       id="path4146"
       inkscape:connector-curvature="0" />
    <path
       style="display:inline;fill:#ff2a2a;fill-opacity:1;stroke-width:0.08822939"
       d="m 647.04334,609.86979 c -0.28352,-0.0552 -0.41551,-0.24755 -0.3028,-0.44127 0.0509,-0.0875 0.0937,-0.1094 0.0952,-0.0487 0.002,0.0716 0.1429,0.11028 0.4025,0.11028 1.80963,0 8.1718,-3.93667 13.38567,-8.28257 1.31304,-1.09444 1.65624,-1.34646 1.37941,-1.0129 -0.1076,0.12965 -0.097,0.13854 0.0995,0.0837 0.28293,-0.079 0.37807,-0.157 -1.98984,1.63084 -5.59571,4.22493 -10.15653,7.18206 -12.11931,7.85787 -0.4736,0.16307 -0.58106,0.17469 -0.9503,0.10282 z"
       id="path4186"
       inkscape:connector-curvature="0" />
    <path
       style="display:inline;fill:#ff2a2a;fill-opacity:1;stroke-width:0.08822939"
       d="m 663.97114,530.94803 c -0.63919,-1.03422 -1.60039,-4.58632 -2.2633,-8.36392 -0.49722,-2.83342 -0.67064,-5.97209 -0.64838,-11.73451 l 0.0159,-4.10267 0.0604,4.1909 c 0.0951,6.59536 0.37888,9.75564 1.24016,13.8079 0.56288,2.64833 1.30637,5.33041 1.68384,6.07433 0.21641,0.42648 0.15277,0.51845 -0.0886,0.12797 z"
       id="path4190"
       inkscape:connector-curvature="0" />
    <path
       style="display:inline;fill:#ff2a2a;fill-opacity:1;stroke-width:0.08822939"
       d="m 635.81187,466.44113 c -0.801,-0.801 -1.7535,-3.67983 -2.33176,-7.04754 -0.54454,-3.17126 -0.77946,-6.4205 -0.77819,-10.76336 8.3e-4,-4.20928 0.15954,-6.76062 0.69503,-11.20143 0.27097,-2.24713 0.37612,-2.4848 0.16972,-0.3836 -0.17659,1.79769 -0.46646,6.42877 -0.5788,9.24695 -0.38671,9.70163 0.56906,16.07546 2.94226,19.62103 0.26103,0.38998 0.45321,0.73044 0.42708,0.75657 -0.10691,0.10691 -0.28408,0.0326 -0.54534,-0.22862 z"
       id="path4194"
       inkscape:connector-curvature="0" />
    <path
       style="display:inline;fill:#ff2a2a;fill-opacity:1;stroke-width:0.08822939"
       d="m 613.85815,423.37795 c -0.29634,-1.20112 -0.32633,-1.88415 -0.32459,-7.3926 0.002,-4.35451 0.0333,-5.92259 0.15161,-7.45537 0.22666,-2.93571 0.53872,-6.26147 0.5768,-6.14722 0.0186,0.0558 -0.0285,1.02504 -0.10479,2.15383 -0.28565,4.22931 -0.35339,6.51235 -0.35674,12.02226 -0.002,4.05325 0.0274,5.85639 0.10603,6.38984 0.12029,0.8165 0.0974,1.01986 -0.0483,0.42926 z"
       id="path4196"
       inkscape:connector-curvature="0" />
    <path
       style="display:inline;fill:#ff2a2a;fill-opacity:1;stroke-width:0.08822939"
       d="m 616.23674,419.07338 c 0,-0.12131 0.02,-0.17094 0.0445,-0.11028 0.0245,0.0606 0.0245,0.15991 0,0.22057 -0.0245,0.0606 -0.0445,0.0111 -0.0445,-0.11029 z"
       id="path4198"
       inkscape:connector-curvature="0" />
    <path
       style="display:inline;fill:#ff2a2a;fill-opacity:1;stroke-width:0.08822939"
       d="m 648.09689,276.53724 c 0.13412,-0.0203 0.33263,-0.0197 0.44115,8.3e-4 0.10852,0.021 -8.3e-4,0.0375 -0.24384,0.0368 -0.24263,-6.6e-4 -0.33142,-0.0178 -0.19731,-0.0381 z"
       id="path4200"
       inkscape:connector-curvature="0" />
    <path
       style="display:inline;fill:#ff2a2a;fill-opacity:1;stroke-width:0.08822939"
       d="m 647.04197,276.4199 c -0.20346,-0.0402 -0.46938,-0.12522 -0.59093,-0.1889 -0.1881,-0.0986 0.10348,-0.11673 1.95806,-0.122 1.55904,-0.004 2.50139,-0.0503 3.3119,-0.16115 0.62306,-0.0852 1.15092,-0.13686 1.17303,-0.11476 0.0482,0.0482 -2.11297,0.46055 -3.08426,0.58839 -0.79918,0.10519 -2.23157,0.10437 -2.7678,-0.002 z"
       id="path4202"
       inkscape:connector-curvature="0" />
    <path
       style="display:inline;fill:#ff2a2a;fill-opacity:1;stroke-width:0.08822939"
       d="m 549.61821,340.39527 c -0.48101,-0.85441 1.11827,-8.44816 2.76038,-13.10693 0.31868,-0.9041 0.27737,-0.54878 -0.0786,0.67619 -1.2311,4.23627 -2.35947,9.52462 -2.50072,11.72004 -0.0546,0.84761 -0.0699,0.90807 -0.18104,0.7107 z"
       id="path4204"
       inkscape:connector-curvature="0" />
    <path
       style="display:inline;fill:#ffcc00;fill-opacity:1;stroke-width:0.70583516"
       d="m 80.462025,800.87298 c -1.514003,-3.65512 -4.077543,-6.17251 -6.807137,-6.68458 l -2.525877,-0.47386 0.419991,-5.72621 c 0.41343,-5.63692 2.329761,-17.77691 2.969536,-18.81209 0.180049,-0.29133 1.650302,-0.23245 3.267215,0.13085 3.865526,0.86852 5.26071,-0.28397 2.715116,-2.24283 -0.970528,-0.74683 -2.122726,-1.36492 -2.560455,-1.37355 -1.641113,-0.0324 -2.441686,-1.88009 -1.681221,-3.88026 0.715525,-1.88198 0.8118,-1.90921 5.022606,-1.42049 3.941618,0.45748 4.273193,0.39083 4.05005,-0.81397 -0.13842,-0.74732 -1.686418,-2.00181 -3.595772,-2.914 -1.84399,-0.88096 -3.33746,-1.99264 -3.318816,-2.47042 0.07842,-2.00962 2.603649,-5.87161 4.809368,-7.35531 5.423703,-3.64828 9.612947,-2.71898 13.326456,2.95624 l 2.299499,3.51424 v -3.91202 c 0,-3.50117 -0.240914,-4.1382 -2.293969,-6.06588 -1.261678,-1.18463 -2.881859,-2.36095 -3.600403,-2.61407 -1.127833,-0.39728 -0.757713,-1.05288 2.707315,-4.79553 6.094393,-6.58267 9.118173,-13.92651 3.992611,-9.69683 -1.12666,0.92972 -5.721857,4.64177 -10.211557,8.24898 -4.4897,3.60721 -9.259758,8.05398 -10.600131,9.88169 -1.340381,1.82772 -5.153891,8.67363 -8.474478,15.21314 -5.725058,11.27482 -9.531383,17.18743 -13.410955,20.83209 l -1.72498,1.62054 -3.586882,-1.27395 c -2.899747,-1.02989 -3.990191,-1.12171 -5.692235,-0.47925 -3.466001,1.30827 -3.924071,0.0249 -3.924071,-10.99349 0,-9.73107 1.156365,-18.02392 2.833003,-20.31685 0.875575,-1.19742 0.989222,-1.19915 2.276131,-0.0345 0.744997,0.67422 1.885379,1.22585 2.534176,1.22585 2.039674,0 1.28933,-2.18031 -1.686476,-4.90046 -2.522559,-2.30585 -2.734176,-2.72938 -1.765437,-3.53337 0.931367,-0.77296 1.580514,-0.52027 4.220112,1.64268 1.715691,1.40587 3.463015,2.55614 3.88294,2.55614 2.375657,0 -0.860939,-6.44199 -4.187613,-8.33485 -1.15407,-0.65665 -2.100314,-1.38742 -2.102776,-1.62393 -0.01156,-1.10993 5.911246,-6.98127 7.042422,-6.98127 0.898078,0 2.2548,1.88696 4.545151,6.3215 1.795707,3.47682 3.623339,6.54301 4.061401,6.81375 1.497271,0.92536 0.142412,-7.80979 -1.816156,-11.70919 -1.010943,-2.01275 -1.838077,-3.94404 -1.838077,-4.29175 0,-0.34772 9.766992,-7.12842 21.704427,-15.06824 11.937444,-7.93982 27.104073,-18.62007 33.703633,-23.73388 19.56436,-15.15989 26.99281,-19.71876 32.15377,-19.73295 3.28756,-0.009 7.16814,2.54139 15.1527,9.95874 11.09305,10.30504 18.27174,15.67008 47.27545,35.33154 18.10028,12.27008 28.02123,18.19696 47.64387,28.4629 26.45837,13.8422 30.21311,16.45053 31.69785,22.01982 1.28913,4.83551 -1.13101,11.07716 -5.30397,13.6792 l -2.19243,1.36709 -8.39509,-5.05361 c -4.6173,-2.7795 -19.35319,-12.10679 -32.7464,-20.72732 -30.60489,-19.69879 -39.32846,-25.13389 -49.05555,-30.56334 -12.16172,-6.7884 -15.74788,-8.04476 -24.09367,-8.4409 -6.57939,-0.31229 -7.47177,-0.1939 -11.1169,1.4749 -2.1798,0.99794 -3.96328,2.16326 -3.96328,2.58957 0,1.24222 6.09972,7.41456 8.7239,8.82777 l 2.40112,1.29309 -4.1832,3.8729 c -4.09512,3.79137 -8.23325,9.66314 -7.39842,10.49796 0.23141,0.23141 1.88242,-0.81521 3.6689,-2.32585 9.57332,-8.0951 13.2733,-9.27153 15.85298,-5.04055 1.79515,2.94426 1.76281,3.35271 -0.26546,3.35271 -2.28858,0 -5.14422,2.39987 -6.86182,5.76664 -2.46691,4.83555 -1.4825,5.44076 2.84235,1.74751 2.44556,-2.08842 4.49598,-3.27061 5.64668,-3.25565 l 1.80677,0.0235 -1.51082,1.21172 c -0.83096,0.66645 -2.49849,1.7528 -3.70565,2.41412 -2.3433,1.28373 -2.54745,1.73503 -1.51987,3.3597 0.56763,0.89742 0.986,0.87427 3.1894,-0.17646 4.67305,-2.22842 4.84253,-2.02547 4.44221,5.3196 -0.41819,7.67283 -2.98592,15.12088 -7.68773,22.29926 l -2.93236,4.47691 -2.9912,-0.44855 c -2.13713,-0.32049 -4.02136,-0.0571 -6.59928,0.92241 l -3.6081,1.37097 -0.65765,-2.57599 c -0.83177,-3.25804 -1.30631,-7.325 -2.18588,-18.73414 -0.86702,-11.24627 -1.50837,-13.70225 -4.26802,-16.34388 -1.97635,-1.89183 -2.61167,-2.08109 -6.89315,-2.05351 -5.6689,0.0365 -10.48869,1.97578 -14.48362,5.82759 -3.2016,3.0869 -8.07962,11.233 -15.70245,26.22249 -6.03466,11.86651 -10.680268,17.62729 -16.174375,20.05697 -5.451005,2.41062 -6.229108,2.93664 -7.69635,5.20292 -0.813729,1.25687 -1.679192,2.28916 -1.92325,2.29397 -0.244066,0.005 -0.855924,-0.98635 -1.35969,-2.20255 z"
       id="path4216"
       inkscape:connector-curvature="0" />
    <path
       style="display:inline;fill:#ffcc00;fill-opacity:1;stroke-width:0.70583516"
       d="m 641.80452,840.81145 c -6.83929,-1.84136 -13.61175,-5.19229 -31.12338,-15.39946 -36.14357,-21.06734 -59.21314,-32.50574 -86.56286,-42.91976 -13.65042,-5.19771 -35.97214,-11.34506 -52.57475,-14.47898 -1.54599,-0.29183 -1.60893,-0.41272 -0.52936,-1.01689 2.43799,-1.36436 3.59823,-4.91471 3.57492,-10.93926 l -0.0222,-5.73581 4.65938,-0.33919 c 3.58857,-0.26123 6.60569,-1.18817 13.12829,-4.03332 6.53599,-2.851 9.00163,-3.60768 10.80299,-3.31536 2.6229,0.42563 5.46336,2.43184 15.45211,10.91377 15.53459,13.19114 38.81418,26.60377 74.23431,42.77036 12.71339,5.8027 15.98387,6.76672 22.95644,6.76672 5.41201,0 6.17281,-0.17259 8.17032,-1.85337 3.30161,-2.77812 4.82551,-6.41816 7.45533,-17.80798 2.7865,-12.06851 4.60398,-18.45375 5.25261,-18.45375 0.25412,0 1.39492,0.98124 2.53513,2.18052 3.5347,3.71785 8.43196,5.47723 6.11566,2.1971 -5.05744,-7.16189 -4.04124,-12.46145 2.55929,-13.34677 2.67346,-0.35858 2.92692,-0.25644 2.92692,1.17959 0,3.31155 4.2217,7.78956 7.34371,7.78956 1.5435,0 1.47134,-0.22231 -1.34411,-4.14122 -3.01083,-4.19084 -3.17349,-5.74047 -0.60257,-5.74047 1.24012,0 3.00902,1.06744 5.26352,3.17626 1.86762,1.74694 3.72692,3.17625 4.13176,3.17625 1.11254,0 0.88184,-1.82366 -0.36123,-2.85532 -0.6035,-0.50087 -1.43036,-1.53303 -1.83746,-2.2937 -1.09473,-2.04552 0.30581,-2.59185 6.67641,-2.60435 l 5.50623,-0.0108 0.96447,2.3083 c 1.18505,2.83623 3.14926,4.67081 6.97493,6.51464 2.37934,1.14675 2.89317,1.7339 2.73805,3.12866 -0.33775,3.03663 -3.4776,6.21143 -8.45901,8.55315 -16.37937,7.69981 -16.357,7.68656 -17.82599,10.56602 -2.18643,4.28575 -3.5004,11.02041 -3.50895,17.98477 -0.007,5.14676 0.26366,6.79776 1.42234,8.69826 2.14826,3.52358 3.19596,2.55533 2.91439,-2.69334 -0.20718,-3.86203 -0.0892,-4.38153 0.90848,-3.9987 7.91529,3.03739 16.56312,3.62431 22.6222,1.53537 5.5576,-1.91605 13.66715,-6.19622 25.27504,-13.34001 14.99226,-9.2266 17.72882,-10.68234 24.04547,-12.79131 9.6759,-3.23054 17.6642,-2.46184 19.92897,1.91772 1.45244,2.8087 0.71052,3.54269 -6.31818,6.25074 -3.16725,1.2203 -10.36423,4.38391 -15.99326,7.03026 -14.9969,7.05041 -21.54444,9.46642 -30.53688,11.26797 -2.23743,0.44825 -3.88622,1.10922 -3.66398,1.46882 0.6875,1.1124 13.82209,0.76049 18.0076,-0.48248 2.10448,-0.62497 8.91168,-3.51508 15.1271,-6.42249 14.11593,-6.60305 18.9283,-8.45207 24.21285,-9.30313 4.9094,-0.79063 13.47984,0.0777 14.35109,1.45401 0.3267,0.51606 0.40547,1.96849 0.17505,3.22761 -0.56429,3.08364 0.0758,5.28403 2.30956,7.93862 l 1.86771,2.21964 -3.45564,3.51813 c -4.71932,4.80467 -10.75577,7.68783 -17.33531,8.27978 -7.92016,0.71256 -14.75204,-0.26461 -21.93073,-3.13674 -3.46719,-1.3872 -6.48741,-2.33875 -6.71161,-2.11456 -0.79132,0.79132 2.11041,3.15614 7.07176,5.76326 4.70724,2.47358 4.91241,2.67859 3.29499,3.29239 -0.94875,0.36004 -5.21821,0.4588 -9.489,0.21949 -4.43031,-0.24825 -8.18719,-0.15265 -8.74933,0.22264 -1.6638,1.1108 -0.33891,2.9177 2.13938,2.9177 5.25589,0 0.87554,0.67789 -9.28777,1.43737 -13.02166,0.97305 -15.78303,1.58832 -18.23996,4.06406 -1.55874,1.57068 -2.71711,1.95159 -7.15367,2.35237 -3.29435,0.2976 -7.42647,1.3146 -10.94045,2.69266 -13.28173,5.20865 -22.8885,6.65379 -30.53914,4.59399 z"
       id="path4218"
       inkscape:connector-curvature="0" />
    <path
       style="display:inline;fill:none;stroke:#000000;stroke-width:0.83160001px;stroke-linecap:butt;stroke-linejoin:miter;stroke-opacity:1"
       d="m 249.89235,655.29686 c -4.96772,3.69031 -9.32951,14.58461 -9.32951,14.58461 l 2.98063,6.52901 4.39998,6.67095 6.92603,-8.19543 c -2.79729,-6.20226 -4.29412,-13.89462 -4.97713,-19.58914 z"
       id="path5311"
       inkscape:connector-curvature="0"
       sodipodi:nodetypes="cccccc" />
    <path
       style="fill:#000000;fill-opacity:1;stroke-width:0.04389016"
       d="m 247.28416,591.37341 c -1.83105,-2.75768 -3.27789,-5.2729 -4.65175,-8.08676 -0.39711,-0.81334 -1.13504,-2.44158 -1.32532,-2.92432 l -0.0885,-0.22447 0.41625,-0.93832 c 0.52333,-1.17971 1.74898,-3.65485 2.36633,-4.7787 1.24852,-2.27284 2.68591,-4.44472 3.87781,-5.85934 0.44587,-0.52918 1.61454,-1.71898 1.65183,-1.68169 0.0163,0.0163 0.10512,0.54955 0.19726,1.18489 0.9362,6.45519 2.443,12.29012 4.31058,16.69227 0.14337,0.33795 0.27126,0.64911 0.28419,0.69145 0.0162,0.0531 -0.11556,0.24191 -0.42545,0.60938 -2.21509,2.62669 -5.67014,6.70913 -5.67807,6.70913 -0.005,0 -0.42628,-0.62709 -0.93518,-1.39352 z"
       id="path5701"
       inkscape:connector-curvature="0"
       transform="translate(0,89.299218)" />
  </g>
</svg>
